<svg xmlns="http://www.w3.org/2000/svg" width="900" height="500" viewBox="0 0 900 500">
<g>
<path d="M 48.00,335.68 C48.00,335.37 55.69,317.88 65.09,296.81 C74.49,275.74 88.73,243.76 96.73,225.75 C104.73,207.74 111.58,193.00 111.94,193.00 C112.42,193.00 155.16,289.00 157.80,296.00 C157.96,296.43 155.49,297.69 152.30,298.79 C149.11,299.89 125.12,308.52 99.00,317.97 C46.23,337.06 48.00,336.45 48.00,335.68 M 738.63,327.41 C721.41,323.25 708.74,310.84 704.40,293.93 C702.41,286.17 702.18,270.49 703.94,263.00 C707.56,247.60 717.24,235.43 731.45,228.42 C739.30,224.54 739.52,224.50 750.95,224.50 C766.29,224.50 771.74,226.57 781.15,235.95 C786.78,241.58 788.09,243.57 789.76,249.04 C790.85,252.59 792.05,257.64 792.43,260.25 L 793.12,265.00 L 756.11,265.00 L 719.09,265.00 L 718.42,268.60 C717.40,274.01 718.83,286.48 721.20,292.82 C724.09,300.52 731.61,307.96 739.48,310.91 C746.59,313.57 757.90,313.84 765.57,311.55 C773.05,309.31 781.91,303.13 786.87,296.68 C790.02,292.59 791.91,291.00 793.62,291.00 C796.49,291.00 796.56,292.18 794.03,297.75 C787.64,311.81 773.92,323.96 760.46,327.47 C753.33,329.32 746.46,329.31 738.63,327.41 M 767.00,253.68 C767.00,237.14 749.39,227.15 734.03,234.98 C728.90,237.60 722.49,245.10 720.58,250.73 C719.71,253.28 719.00,255.73 719.00,256.18 C719.00,256.63 729.80,257.00 743.00,257.00 L 767.00,257.00 L 767.00,253.68 M 835.50,327.96 C828.28,326.48 822.85,324.07 816.44,319.50 C808.68,313.96 805.26,309.59 807.03,307.46 C808.82,305.30 809.62,305.57 815.83,310.45 C822.67,315.81 831.02,319.77 837.32,320.63 C850.44,322.43 862.61,312.01 859.82,301.37 C858.70,297.08 854.37,293.12 845.23,288.03 C827.55,278.19 821.46,274.22 816.03,269.00 C806.54,259.87 804.76,250.32 810.47,239.06 C816.60,226.96 834.93,220.31 850.89,224.39 C857.10,225.98 866.18,230.28 870.76,233.79 C872.84,235.39 872.90,235.69 871.51,237.69 L 869.99,239.85 L 860.02,234.72 C850.73,229.93 849.56,229.58 842.78,229.57 C837.15,229.55 834.54,230.05 831.26,231.79 C825.32,234.93 823.64,237.87 824.23,244.06 C825.03,252.34 828.16,255.21 847.09,265.00 C866.07,274.81 871.63,278.57 875.80,284.37 C887.22,300.27 877.55,321.49 856.48,326.80 C850.50,328.31 840.01,328.89 835.50,327.96 M 262.00,325.99 C262.00,323.39 320.33,195.24 322.50,193.08 C324.92,190.65 327.05,192.67 331.44,201.54 C341.37,221.58 389.00,323.46 389.00,324.66 C389.00,325.69 386.73,326.00 379.13,326.00 C370.83,326.00 368.87,325.69 366.77,324.03 C365.26,322.85 361.78,316.56 358.05,308.28 C354.63,300.70 351.69,294.36 351.52,294.18 C351.24,293.91 312.54,307.57 286.66,317.08 C281.25,319.07 276.66,321.49 274.83,323.32 C272.55,325.60 270.68,326.42 266.92,326.78 C263.37,327.12 262.00,326.90 262.00,325.99 M 331.19,293.84 L 348.88,287.47 L 334.03,254.06 L 319.17,220.65 L 317.70,224.07 C316.88,225.96 308.24,245.28 298.49,267.00 C288.74,288.73 280.17,307.89 279.44,309.58 L 278.11,312.67 L 295.81,306.44 C305.54,303.01 321.46,297.34 331.19,293.84 M 419.93,325.69 C391.91,317.80 378.19,280.05 393.12,251.94 C403.84,231.76 427.73,219.71 448.51,223.99 C455.73,225.48 458.85,226.98 465.78,232.27 L 471.07,236.30 L 468.89,238.62 L 466.71,240.94 L 462.94,237.95 C460.87,236.31 456.55,233.75 453.34,232.26 C448.51,230.02 446.12,229.56 439.50,229.58 C432.78,229.59 430.66,230.03 426.29,232.30 C416.04,237.61 411.25,243.66 407.61,255.93 C401.19,277.58 413.57,303.84 432.93,309.62 C444.59,313.11 455.85,309.58 467.99,298.64 C472.05,294.99 475.74,292.00 476.20,292.00 C477.64,292.00 475.91,297.27 472.64,302.88 C467.94,310.92 459.50,318.98 451.58,322.98 C445.24,326.18 443.87,326.48 434.59,326.72 C428.60,326.87 422.64,326.45 419.93,325.69 M 490.24,252.25 L 490.50,178.50 L 498.00,175.81 C510.17,171.45 508.93,168.20 509.24,205.41 L 509.50,237.81 L 517.47,232.90 C529.11,225.71 534.98,223.69 544.50,223.59 C551.51,223.51 553.08,223.84 557.18,226.25 C563.38,229.90 567.69,235.28 569.78,242.00 C571.27,246.79 571.49,252.54 571.49,286.50 L 571.50,325.50 L 561.84,325.79 L 552.18,326.07 L 551.77,288.29 C551.33,248.59 551.05,246.09 546.61,241.15 C545.45,239.87 543.18,238.12 541.56,237.28 C534.65,233.69 518.18,238.97 512.31,246.65 L 509.50,250.34 L 509.22,288.17 L 508.93,326.00 L 499.46,326.00 L 489.99,326.00 L 490.24,252.25 M 590.63,323.75 C590.30,322.51 590.02,302.81 590.01,279.97 C590.00,244.96 590.23,238.11 591.48,236.34 C592.67,234.64 606.41,229.00 609.36,229.00 C609.71,229.00 610.00,250.82 610.00,277.50 L 610.00,326.00 L 600.62,326.00 C591.73,326.00 591.20,325.88 590.63,323.75 M 630.00,260.62 C630.00,206.45 630.24,195.05 631.37,194.11 C632.13,193.48 635.84,191.90 639.62,190.59 C643.40,189.28 647.29,187.89 648.25,187.50 C649.91,186.82 650.00,190.50 650.00,256.39 L 650.00,326.00 L 640.00,326.00 L 630.00,326.00 L 630.00,260.62 M 669.67,325.33 C669.30,324.97 669.00,292.65 669.00,253.52 C669.00,198.17 669.28,182.01 670.25,180.70 C670.94,179.78 675.44,177.69 680.25,176.07 L 689.00,173.13 L 689.00,249.56 L 689.00,326.00 L 679.67,326.00 C674.53,326.00 670.03,325.70 669.67,325.33 M 32.78,317.72 C23.73,302.10 19.00,284.39 19.01,266.19 C19.03,238.48 31.10,210.40 51.08,191.60 C60.02,183.19 66.77,178.50 78.01,172.88 C85.78,168.99 103.79,163.65 107.22,164.22 C108.63,164.45 102.40,178.98 73.08,243.81 C53.36,287.43 37.03,323.30 36.80,323.53 C36.57,323.76 34.76,321.15 32.78,317.72 M 205.19,319.77 C204.13,317.42 197.98,304.25 191.52,290.50 C185.05,276.75 169.64,243.90 157.26,217.50 C144.89,191.10 133.88,167.77 132.81,165.66 L 130.86,161.81 L 134.18,162.53 C171.82,170.63 197.05,188.11 212.79,217.00 C226.53,242.23 228.91,275.01 218.97,302.24 C216.09,310.15 209.77,322.40 208.03,323.48 C207.53,323.79 206.25,322.12 205.19,319.77 M 591.00,218.65 C591.00,208.71 590.91,208.82 602.16,204.59 C609.84,201.70 610.00,201.82 610.00,210.33 C610.00,219.96 605.45,224.97 595.25,226.58 L 591.00,227.26 L 591.00,218.65 Z" fill="rgba(0,0,0,1)"/>
</g>
</svg>