<?xml version="1.0" standalone="no"?>
<!DOCTYPE svg PUBLIC "-//W3C//DTD SVG 20010904//EN"
 "http://www.w3.org/TR/2001/REC-SVG-20010904/DTD/svg10.dtd">
<svg version="1.0" xmlns="http://www.w3.org/2000/svg"
 width="2404.000000pt" height="399.000000pt" viewBox="0 0 2404.000000 399.000000"
 preserveAspectRatio="xMidYMid meet">

<g transform="translate(0.000000,399.000000) scale(0.100000,-0.100000)"
fill="#000000" stroke="none">
<path d="M7 3984 c-4 -4 -7 -763 -7 -1687 l0 -1679 613 5 c567 4 620 6 724 26
212 39 354 104 462 211 156 153 203 370 181 832 -16 337 -55 477 -161 572 -73
66 -161 93 -386 121 -30 4 -53 12 -53 18 0 7 44 22 101 34 121 26 262 92 333
154 86 76 136 174 161 317 17 91 20 441 5 547 -38 269 -169 409 -447 480 -164
42 -257 47 -898 52 -341 3 -623 1 -628 -3z m1058 -491 c22 -12 54 -36 72 -55
60 -62 63 -81 63 -355 0 -148 -5 -264 -11 -288 -14 -53 -99 -136 -155 -153
-23 -6 -87 -12 -143 -12 l-101 0 0 446 0 446 118 -4 c95 -3 125 -8 157 -25z
m15 -1384 c24 -13 60 -46 79 -74 l36 -49 0 -346 c0 -335 -1 -346 -22 -385 -12
-22 -36 -54 -55 -71 -59 -56 -93 -67 -215 -72 l-113 -5 0 518 0 518 123 -5
c107 -4 130 -8 167 -29z"/>
<path d="M4170 2305 l0 -1685 370 0 370 0 0 1685 0 1685 -370 0 -370 0 0
-1685z"/>
<path d="M5655 3980 c-267 -35 -402 -216 -422 -567 l-6 -103 -74 0 -73 0 0
-245 0 -245 75 0 75 0 2 -1097 3 -1098 373 -3 372 -2 0 1100 0 1100 110 0 110
0 0 245 0 245 -110 0 -110 0 0 69 c0 64 2 71 30 94 29 25 104 47 160 47 l30 0
0 235 0 235 -242 -1 c-134 -1 -270 -5 -303 -9z"/>
<path d="M13380 2305 l0 -1687 603 5 c495 3 619 7 697 20 150 26 208 43 320
98 86 43 118 65 175 123 150 152 192 327 182 751 -12 473 -76 640 -274 715
-51 19 -173 44 -275 55 -84 9 -73 27 29 48 231 48 384 149 458 302 54 110 65
190 65 460 0 276 -11 349 -70 472 -64 131 -166 207 -346 257 -182 52 -269 58
-941 63 l-623 5 0 -1687z m1012 1205 c56 -16 130 -70 155 -115 23 -39 23 -44
21 -327 l-3 -286 -30 -43 c-17 -24 -53 -57 -80 -74 -46 -28 -55 -30 -172 -34
l-123 -3 0 446 0 446 98 0 c53 0 114 -5 134 -10z m39 -1388 c41 -16 98 -70
122 -116 22 -40 22 -48 19 -370 -3 -372 -3 -376 -81 -453 -56 -55 -95 -67
-221 -68 l-105 0 -3 500 c-1 275 0 506 3 514 4 11 28 13 123 9 64 -3 129 -10
143 -16z"/>
<path d="M19710 3560 l0 -250 -125 0 -125 0 0 -245 0 -245 125 0 124 0 3 -907
3 -908 23 -59 c56 -149 153 -244 304 -298 60 -21 81 -23 401 -26 l337 -4 0
235 0 235 -117 4 c-136 4 -176 19 -199 73 -12 29 -14 167 -14 845 l0 810 295
0 294 0 3 -902 3 -903 23 -65 c46 -127 121 -214 236 -272 98 -49 173 -58 507
-58 l299 0 0 234 0 234 -117 4 c-92 2 -125 7 -149 22 -62 37 -59 -15 -62 884
l-3 822 166 0 165 0 0 245 0 245 -162 2 -163 3 -3 248 -2 247 -370 0 -370 0 0
-250 0 -250 -295 0 -295 0 0 250 0 250 -370 0 -370 0 0 -250z"/>
<path d="M2916 3369 c-380 -40 -614 -192 -707 -459 -20 -59 -23 -88 -27 -307
l-4 -243 371 0 371 0 0 163 c0 175 10 231 51 292 31 44 68 65 119 65 57 0 96
-23 122 -73 19 -36 22 -58 22 -147 0 -122 -8 -143 -81 -211 -72 -67 -143 -113
-424 -269 -139 -79 -279 -160 -310 -181 -73 -49 -122 -107 -165 -194 -59 -120
-68 -186 -68 -470 0 -349 18 -466 85 -560 100 -139 303 -227 485 -211 219 20
384 130 445 298 12 32 25 58 29 58 10 0 17 -58 26 -197 l6 -103 370 0 370 0
-7 33 c-4 17 -11 509 -14 1092 -8 1180 -4 1110 -78 1265 -72 152 -245 279
-445 329 -150 38 -357 50 -542 30z m314 -1752 l0 -353 -27 -41 c-33 -51 -58
-63 -133 -63 -48 0 -64 4 -89 26 -48 40 -61 101 -61 289 0 205 7 229 98 318
62 61 198 177 208 177 2 0 4 -159 4 -353z"/>
<path d="M7019 3369 c-225 -24 -430 -118 -536 -247 -59 -72 -116 -194 -145
-308 -23 -89 -23 -92 -23 -854 0 -760 0 -765 23 -845 82 -298 258 -459 574
-526 146 -32 457 -32 598 -2 172 38 285 94 385 192 97 96 145 182 188 341 20
72 21 105 25 800 2 510 0 749 -8 805 -27 188 -111 361 -223 460 -66 58 -208
129 -312 155 -148 37 -364 49 -546 29z m254 -478 c41 -16 76 -62 87 -116 8
-34 10 -295 8 -830 -3 -729 -4 -782 -21 -813 -29 -54 -71 -74 -146 -69 -60 3
-66 6 -98 42 -18 21 -38 55 -43 76 -7 25 -10 314 -8 821 3 769 3 784 24 818
40 69 123 99 197 71z"/>
<path d="M16241 3370 c-300 -38 -504 -167 -606 -383 -52 -109 -71 -181 -85
-308 -12 -119 -13 -1272 0 -1399 22 -219 81 -360 205 -486 66 -67 96 -89 175
-128 186 -91 428 -125 685 -96 317 36 546 175 655 398 62 126 72 190 73 457
l2 240 -372 3 -373 2 0 -248 c0 -277 -4 -294 -71 -340 -28 -20 -44 -23 -92
-20 -46 4 -63 10 -88 34 -60 57 -59 51 -59 438 l0 356 528 2 527 3 0 435 c-1
492 -2 504 -72 649 -37 77 -59 108 -122 170 -111 111 -232 169 -431 206 -102
19 -376 28 -479 15z m285 -489 c17 -11 41 -39 53 -63 19 -41 21 -60 21 -256
l0 -212 -156 0 -155 0 3 218 c3 242 11 276 72 313 41 25 121 25 162 0z"/>
<path d="M18310 3373 c-19 -2 -70 -8 -113 -14 -301 -41 -509 -171 -607 -381
-49 -104 -60 -178 -60 -410 l0 -208 369 0 369 0 4 183 c3 166 5 186 26 229 36
72 82 108 140 108 60 0 103 -26 128 -76 15 -31 19 -61 19 -144 0 -124 -8 -144
-89 -217 -75 -69 -125 -100 -416 -263 -354 -199 -383 -220 -449 -325 -77 -122
-107 -308 -98 -595 13 -377 37 -457 173 -570 112 -93 257 -139 400 -126 222
20 395 137 449 304 30 92 40 68 51 -125 l6 -123 370 0 370 0 -7 38 c-4 20 -10
514 -14 1097 l-7 1060 -23 75 c-34 114 -77 187 -157 266 -149 150 -391 227
-694 222 -58 0 -121 -3 -140 -5z m246 -2148 c-32 -53 -68 -69 -146 -63 -67 5
-92 22 -118 78 -20 46 -30 341 -12 417 14 63 61 120 200 236 l95 80 3 -353 2
-353 -24 -42z"/>
<path d="M11460 3354 c-157 -33 -307 -147 -398 -299 l-42 -70 0 158 0 157
-365 0 -365 0 2 -1337 3 -1338 373 -3 372 -2 0 1010 c0 1124 -5 1043 70 1095
78 54 172 34 212 -46 16 -31 18 -72 18 -421 l0 -388 375 0 375 0 0 509 c0 561
-4 609 -59 724 -100 208 -320 305 -571 251z"/>
<path d="M8300 2163 c0 -1272 -2 -1224 66 -1353 99 -190 291 -277 522 -238
175 30 346 142 449 296 l38 57 3 -152 3 -153 359 0 360 0 0 1345 0 1345 -370
0 -370 0 -2 -1019 c-3 -1012 -3 -1020 -24 -1047 -40 -54 -70 -69 -141 -69 -62
0 -66 2 -98 37 -18 20 -38 53 -44 75 -7 26 -11 358 -11 1031 l0 992 -370 0
-370 0 0 -1147z"/>
<path d="M22161 3273 c4 -21 75 -353 158 -738 82 -385 204 -943 270 -1240 139
-626 152 -694 140 -739 -17 -61 -40 -66 -288 -66 l-221 0 0 -240 0 -240 388 0
c416 0 441 3 546 54 73 36 123 81 167 149 87 134 129 299 328 1268 141 689
240 1161 322 1537 32 150 59 277 59 283 0 5 -124 9 -312 9 l-313 0 -48 -253
c-26 -138 -56 -317 -67 -397 -95 -710 -106 -809 -122 -1067 -6 -112 -15 -203
-18 -203 -4 0 -12 78 -19 173 -23 329 -91 865 -187 1460 l-47 287 -372 0 -373
0 9 -37z"/>
</g>
</svg>
