<svg xmlns="http://www.w3.org/2000/svg" width="840" height="276" viewBox="0 0 840 276">
<g>
<path d="M 184.00,254.27 C156.45,237.62 124.85,219.00 124.14,219.00 C123.79,219.00 117.48,224.40 110.12,231.00 C102.77,237.60 96.36,243.00 95.88,243.00 C95.39,243.00 95.00,241.54 94.99,239.75 C94.99,237.96 94.10,221.20 93.01,202.50 C91.92,183.80 91.02,167.71 91.01,166.75 C91.00,165.46 81.73,160.37 55.38,147.19 L 19.77,129.38 L 38.13,121.06 C54.67,113.56 62.53,110.02 81.37,101.56 L 87.23,98.92 L 107.87,105.53 C119.21,109.16 134.91,114.23 142.75,116.79 C159.35,122.22 157.84,119.35 155.50,141.00 C154.70,148.43 154.03,156.10 154.02,158.05 L 154.00,161.59 L 164.25,165.80 C175.21,170.30 177.00,170.71 177.01,168.75 C177.01,168.06 179.26,153.55 182.00,136.50 C184.74,119.45 186.98,104.60 186.98,103.50 C186.98,101.80 185.51,101.14 177.24,99.10 C171.88,97.78 156.70,93.90 143.50,90.49 L 119.50,84.28 L 123.00,82.74 C124.92,81.88 134.05,77.81 143.28,73.67 L 160.07,66.16 L 179.28,69.96 C189.85,72.05 204.01,74.78 210.75,76.02 C218.45,77.44 223.00,78.73 223.00,79.49 C223.00,80.16 221.46,87.41 219.58,95.60 C217.70,103.80 215.89,111.87 215.55,113.54 L 214.93,116.58 L 223.18,118.75 C227.71,119.94 231.56,120.77 231.74,120.59 C232.05,120.28 237.58,99.92 244.10,75.09 C245.74,68.82 246.73,63.37 246.29,62.98 C245.86,62.60 235.82,60.86 224.00,59.12 C212.18,57.38 199.18,55.45 195.11,54.82 L 187.73,53.68 L 191.11,51.96 C192.98,51.01 199.78,47.89 206.23,45.02 L 217.97,39.82 L 239.73,42.41 C251.70,43.84 263.86,45.26 266.75,45.57 C269.64,45.89 272.00,46.61 272.00,47.19 C272.00,47.76 268.60,59.26 264.44,72.73 C260.28,86.21 257.08,97.76 257.33,98.41 C257.58,99.06 267.98,101.75 280.44,104.39 C304.42,109.47 310.00,110.82 310.00,111.54 C310.00,111.78 305.80,117.95 300.67,125.24 C295.54,132.53 280.61,153.80 267.49,172.50 C254.37,191.20 242.05,208.75 240.12,211.50 C238.18,214.25 229.00,227.30 219.72,240.50 C210.44,253.70 202.54,264.58 202.17,264.67 C201.80,264.77 193.62,260.09 184.00,254.27 M 391.97,219.54 C387.27,218.86 378.16,217.07 371.72,215.57 L 360.00,212.85 L 360.00,126.42 L 360.00,40.00 L 379.00,40.00 L 398.00,40.00 L 398.00,73.00 C398.00,91.15 398.17,106.00 398.38,106.00 C398.58,106.00 401.39,104.83 404.63,103.40 C412.70,99.82 424.23,97.00 430.77,97.00 C460.40,97.00 479.52,122.25 477.70,158.98 C477.39,165.31 476.38,172.97 475.47,176.00 C472.66,185.31 466.99,194.90 460.47,201.39 C443.97,217.81 421.32,223.81 391.97,219.54 M 421.10,195.18 C427.59,192.39 432.52,187.72 435.35,181.68 C443.94,163.32 440.31,138.03 427.78,128.95 C422.53,125.15 417.16,123.68 408.83,123.75 C396.81,123.86 398.00,119.78 398.00,160.90 C398.00,180.57 398.34,197.02 398.75,197.45 C400.13,198.88 416.30,197.24 421.10,195.18 M 524.00,219.57 C513.39,216.62 505.39,210.13 501.09,201.00 C498.75,196.04 498.50,194.33 498.50,183.50 C498.50,172.37 498.70,171.08 501.31,165.78 C505.83,156.56 515.56,149.75 527.98,147.10 C532.57,146.11 556.81,144.09 564.86,144.02 C567.17,144.00 567.20,143.84 566.84,135.90 C566.51,128.54 566.23,127.59 563.74,125.45 C562.23,124.15 559.31,122.62 557.25,122.05 C552.61,120.77 534.90,120.74 525.50,122.01 C521.65,122.53 516.12,123.25 513.22,123.62 L 507.94,124.28 L 508.09,115.11 C508.20,107.74 508.55,105.78 509.87,105.10 C512.16,103.90 529.61,100.26 541.50,98.50 C572.55,93.89 593.31,100.76 600.25,117.97 C602.44,123.38 602.49,124.51 602.80,171.25 L 603.11,219.00 L 586.05,219.00 L 569.00,219.00 L 569.00,215.50 C569.00,213.57 568.60,212.00 568.10,212.00 C567.61,212.00 563.18,213.55 558.26,215.45 C544.49,220.77 533.19,222.13 524.00,219.57 M 562.36,196.36 L 567.00,195.73 L 567.00,179.36 C567.00,164.44 566.85,163.00 565.25,163.01 C559.06,163.03 546.27,165.23 542.45,166.92 C538.76,168.55 537.54,169.79 535.85,173.60 C534.02,177.75 533.91,178.91 534.89,183.81 C535.50,186.86 536.79,190.23 537.75,191.31 C542.06,196.16 550.78,197.95 562.36,196.36 M 633.24,159.25 L 633.50,99.50 L 651.75,99.23 L 670.00,98.95 L 670.00,103.08 C670.00,106.62 670.25,107.11 671.75,106.52 C690.55,99.02 701.43,96.54 712.39,97.28 C721.90,97.92 727.72,99.82 733.01,104.01 L 736.84,107.04 L 746.17,104.06 C761.86,99.05 771.91,97.01 781.00,97.02 C794.53,97.03 804.83,100.63 810.83,107.45 C819.42,117.25 819.96,121.21 819.98,174.75 L 820.00,219.00 L 801.00,219.00 L 782.00,219.00 L 782.00,176.73 C782.00,137.59 781.86,134.22 780.16,131.03 C776.52,124.26 766.89,121.86 752.71,124.21 L 744.91,125.50 L 744.98,172.25 L 745.04,219.00 L 726.52,219.00 L 708.00,219.00 L 707.98,177.25 C707.96,138.40 707.82,135.21 706.06,131.32 C702.79,124.12 694.60,121.86 679.59,123.99 L 671.00,125.21 L 671.00,172.10 L 671.00,219.00 L 651.99,219.00 L 632.98,219.00 L 633.24,159.25 Z" fill="rgba(0,0,0,1)"/>
</g>
</svg>