<?xml version="1.0" standalone="no"?>
<!DOCTYPE svg PUBLIC "-//W3C//DTD SVG 20010904//EN"
 "http://www.w3.org/TR/2001/REC-SVG-20010904/DTD/svg10.dtd">
<svg version="1.0" xmlns="http://www.w3.org/2000/svg"
 width="1000.000000pt" height="562.000000pt" viewBox="0 0 1000.000000 562.000000"
 preserveAspectRatio="xMidYMid meet">

<g transform="translate(0.000000,562.000000) scale(0.100000,-0.100000)"
fill="#000000" stroke="none">
<path d="M3293 3942 c-105 -37 -186 -114 -225 -211 -21 -52 -23 -71 -23 -286
0 -261 7 -298 75 -383 78 -99 201 -149 342 -139 97 6 170 38 242 107 90 85
116 176 116 410 0 230 -28 330 -116 415 -76 72 -140 98 -259 102 -79 3 -111 0
-152 -15z m213 -227 c49 -32 58 -73 58 -270 0 -162 -2 -185 -21 -226 -17 -39
-28 -49 -66 -64 -40 -15 -51 -16 -88 -4 -80 26 -98 77 -99 280 0 152 12 233
38 262 42 47 124 58 178 22z"/>
<path d="M2187 3944 c-4 -4 -7 -234 -7 -511 l0 -504 278 3 278 3 59 30 c105
54 163 163 153 290 -6 72 -25 113 -78 164 l-39 38 29 28 c46 44 73 109 73 174
-1 122 -49 205 -148 256 l-59 30 -266 3 c-146 2 -269 0 -273 -4z m472 -238
c32 -29 29 -98 -5 -125 -23 -18 -41 -21 -120 -21 l-93 0 -3 28 c-2 15 -1 53 0
85 l4 59 98 -4 c79 -2 102 -7 119 -22z m-19 -379 c60 -21 79 -94 36 -144 -23
-26 -28 -28 -130 -31 l-106 -4 0 96 0 96 83 -1 c45 0 98 -5 117 -12z"/>
<path d="M3835 3903 c27 -95 265 -961 265 -967 0 -3 47 -6 104 -6 l105 0 82
253 82 252 83 -250 82 -250 104 -3 104 -3 137 503 c76 277 137 506 137 511 0
4 -58 7 -129 7 l-129 0 -62 -252 c-34 -139 -64 -260 -67 -268 -2 -8 -42 104
-86 250 l-82 265 -91 3 -90 3 -72 -233 c-39 -128 -74 -245 -78 -261 -3 -15 -9
-29 -13 -31 -3 -2 -35 115 -70 260 l-65 264 -132 0 -133 0 14 -47z"/>
<path d="M5180 3440 l0 -510 125 0 125 0 2 240 3 239 68 -119 68 -120 83 0 83
0 69 120 69 120 3 -240 2 -240 125 0 125 0 0 510 0 510 -123 0 -122 0 -113
-220 c-63 -121 -117 -218 -120 -216 -4 3 -56 102 -117 220 l-110 216 -122 0
-123 0 0 -510z"/>
<path d="M6290 3440 l0 -510 345 0 345 0 0 110 0 110 -220 0 -220 0 0 90 0 90
190 0 190 0 0 115 0 115 -190 0 -190 0 0 85 0 85 220 0 220 0 0 110 0 110
-345 0 -345 0 0 -510z"/>
<path d="M7110 3441 l0 -511 125 0 125 0 0 190 0 190 43 0 44 0 89 -190 89
-190 148 0 147 0 -39 73 c-21 39 -71 135 -111 211 l-73 140 24 15 c49 31 107
100 123 147 9 26 16 79 16 118 0 125 -72 236 -189 290 -43 19 -65 21 -303 24
l-258 3 0 -510z m445 274 c36 -18 55 -51 55 -96 0 -73 -43 -99 -165 -99 l-85
0 0 105 0 105 81 0 c52 0 92 -5 114 -15z"/>
<path d="M1560 3050 l0 -119 -122 -3 -123 -3 -3 -122 -3 -123 126 0 125 0 0
-120 0 -120 120 0 120 0 0 120 0 120 120 0 120 0 0 125 0 125 -120 0 -120 0 0
120 0 120 -120 0 -120 0 0 -120z"/>
<path d="M2184 2667 c-2 -7 -3 -235 -2 -507 l3 -495 123 -3 122 -3 0 158 0
158 41 48 c22 26 44 47 47 47 4 0 59 -92 122 -205 l115 -205 147 0 147 0 -136
228 c-74 125 -155 262 -180 305 l-45 78 19 22 c26 29 294 347 312 370 13 16 5
17 -140 17 l-154 -1 -140 -174 c-77 -96 -143 -174 -147 -175 -5 0 -8 79 -8
175 l0 175 -120 0 c-89 0 -122 -3 -126 -13z"/>
<path d="M3100 2170 l0 -510 125 0 125 0 0 510 0 510 -125 0 -125 0 0 -510z"/>
<path d="M3510 2170 l0 -510 125 0 125 0 0 190 0 190 41 0 40 0 92 -190 91
-190 143 0 c79 0 143 3 143 6 0 4 -20 43 -44 88 -24 44 -72 137 -106 205 l-63
125 23 15 c86 57 131 131 138 231 9 137 -53 249 -172 310 l-69 35 -253 3 -254
3 0 -511z m451 267 c46 -31 60 -85 35 -131 -24 -46 -53 -56 -151 -56 l-85 0 0
105 0 105 84 0 c70 0 88 -4 117 -23z"/>
<path d="M4399 2673 c-1 -5 -1 -233 0 -508 l1 -500 120 -3 120 -3 0 157 0 156
41 49 c22 27 44 49 47 49 4 0 59 -92 122 -205 l115 -205 149 0 c117 0 146 3
138 13 -9 12 -317 531 -341 575 -10 19 4 39 159 222 93 111 170 203 170 206 0
2 -67 4 -150 4 l-149 0 -141 -172 c-78 -95 -146 -174 -151 -176 -5 -2 -9 71
-9 172 l0 176 -120 0 c-66 0 -120 -3 -121 -7z"/>
<path d="M5310 2170 l0 -510 340 0 340 0 0 110 0 110 -215 0 -215 0 0 400 0
400 -125 0 -125 0 0 -510z"/>
<path d="M6195 2184 c-99 -273 -181 -502 -183 -510 -3 -11 20 -14 126 -14
l130 0 24 73 25 72 159 3 160 2 22 -75 22 -75 130 0 c72 0 130 3 130 8 -1 4
-83 232 -183 507 l-182 500 -100 3 -100 2 -180 -496z m332 -34 l41 -130 -90 0
c-68 0 -89 3 -85 13 2 6 22 65 43 130 21 64 41 117 44 117 4 0 25 -58 47 -130z"/>
<path d="M6970 2170 l0 -510 125 0 125 0 2 254 3 254 160 -253 160 -254 113 0
112 -1 0 510 0 510 -125 0 -125 0 -2 -255 -3 -254 -161 252 -161 252 -111 3
-112 3 0 -511z"/>
<path d="M7920 2170 l0 -510 229 0 c199 0 237 3 292 20 112 34 185 107 226
224 27 77 26 456 -1 536 -36 109 -122 193 -230 225 -38 11 -106 15 -283 15
l-233 0 0 -510z m440 272 c63 -31 72 -67 72 -271 0 -256 -17 -285 -172 -286
l-85 0 -3 275 c-1 151 0 280 3 287 7 20 142 17 185 -5z"/>
</g>
</svg>
