<?xml version="1.0" standalone="no"?>
<!DOCTYPE svg PUBLIC "-//W3C//DTD SVG 20010904//EN"
 "http://www.w3.org/TR/2001/REC-SVG-20010904/DTD/svg10.dtd">
<svg version="1.0" xmlns="http://www.w3.org/2000/svg"
 width="2362.000000pt" height="1520.000000pt" viewBox="0 0 2362.000000 1520.000000"
 preserveAspectRatio="xMidYMid meet">

<g transform="translate(0.000000,1520.000000) scale(0.100000,-0.100000)"
fill="#000000" stroke="none">
<path d="M5825 11680 c-983 -72 -1720 -736 -1891 -1705 -21 -117 -29 -438 -15
-573 94 -896 720 -1597 1586 -1777 306 -63 658 -59 985 12 276 59 567 203 789
388 145 121 409 415 399 445 -4 13 -800 580 -813 579 -5 -1 -45 -40 -87 -89
-151 -172 -347 -301 -533 -352 -111 -30 -394 -33 -500 -4 -83 22 -215 81 -280
126 -203 140 -352 375 -411 650 -26 120 -26 392 0 510 92 424 389 729 768 790
97 16 311 8 393 -14 214 -58 377 -165 566 -373 l56 -61 184 142 c101 78 286
221 412 318 l227 177 -79 98 c-350 436 -832 674 -1439 713 -169 11 -167 11
-317 0z"/>
<path d="M17660 11650 c-369 -57 -643 -183 -856 -395 -227 -225 -344 -515
-344 -850 0 -497 239 -817 770 -1030 162 -65 332 -116 657 -196 617 -152 742
-223 731 -418 -6 -115 -74 -190 -212 -234 -63 -20 -92 -22 -266 -22 -140 1
-222 6 -290 18 -320 58 -613 189 -912 406 l-57 41 -298 -356 c-164 -195 -300
-360 -301 -365 -5 -11 16 -30 140 -124 434 -329 985 -512 1603 -532 580 -19
1059 132 1355 427 239 238 352 544 337 915 -14 363 -159 618 -461 817 -227
149 -497 247 -1016 368 -257 60 -421 110 -510 156 -77 40 -100 58 -134 109
-22 32 -26 49 -26 112 0 109 40 173 135 221 148 73 471 58 757 -34 185 -60
409 -170 551 -270 26 -19 49 -34 51 -34 3 0 118 161 257 358 139 196 262 369
273 385 23 32 34 20 -109 121 -315 223 -700 362 -1140 411 -184 21 -537 18
-685 -5z"/>
<path d="M7990 9630 l0 -1980 548 2 547 3 3 753 2 752 700 0 700 0 0 -755 0
-755 548 2 547 3 0 1975 0 1975 -547 3 -548 2 0 -740 0 -740 -700 0 -700 0 0
740 0 740 -550 0 -550 0 0 -1980z"/>
<path d="M13510 11568 c-11 -24 -387 -913 -834 -1975 l-814 -1933 573 0 572 0
140 353 140 352 765 3 765 2 140 -352 140 -353 587 -3 c322 -1 586 -1 586 0 0
2 -375 890 -833 1973 l-833 1970 -537 3 -537 2 -20 -42z m770 -1796 c117 -298
211 -545 208 -547 -3 -3 -201 -4 -440 -3 l-436 3 220 553 c121 305 223 550
227 545 4 -4 103 -252 221 -551z"/>
<path d="M19834 10825 c-228 -50 -388 -252 -388 -490 0 -255 172 -454 429
-495 122 -19 262 18 368 98 233 177 262 525 63 739 -69 75 -142 118 -240 143
-90 23 -145 24 -232 5z m251 -136 c44 -16 76 -38 121 -83 81 -82 107 -147 108
-271 1 -81 -2 -97 -31 -157 -161 -341 -653 -274 -713 97 -32 194 96 386 287
435 56 14 160 4 228 -21z"/>
<path d="M19750 10346 l0 -226 70 0 70 0 0 65 c0 61 1 65 23 65 16 0 33 -18
65 -65 l42 -65 80 0 80 0 -52 76 -53 76 28 20 c38 28 57 69 57 125 0 58 -26
105 -72 130 -27 14 -63 18 -185 21 l-153 4 0 -226z m258 92 c7 -7 12 -21 12
-33 0 -33 -20 -45 -77 -45 l-53 0 0 45 0 45 53 0 c29 0 58 -5 65 -12z"/>
<path d="M4670 6964 c0 -8 57 -77 200 -239 146 -167 534 -560 720 -728 529
-480 1127 -910 1745 -1254 995 -555 2080 -922 3210 -1087 430 -63 737 -86
1220 -93 622 -9 1082 24 1661 117 309 50 757 146 752 161 -3 9 -1166 839
-1184 846 -6 2 -72 -3 -145 -11 -311 -36 -544 -49 -929 -49 -375 0 -541 7
-860 39 -1803 178 -3510 956 -4849 2207 l-103 97 -719 0 c-395 0 -719 -3 -719
-6z"/>
<path d="M17565 6838 c-391 -365 -898 -747 -1355 -1020 -469 -282 -1030 -549
-1487 -708 l-92 -32 -9 -47 c-40 -193 -204 -1122 -200 -1127 8 -8 269 70 523
156 1169 397 2250 1026 3205 1868 215 189 634 611 825 831 88 101 164 189 168
197 7 12 -99 14 -715 13 l-723 0 -140 -131z"/>
</g>
</svg>
