<svg xmlns="http://www.w3.org/2000/svg" width="1420" height="320" viewBox="0 0 1420 320">
<g>
<path d="M 224.00,219.00 L 224.00,118.00 L 232.50,118.00 L 241.00,118.00 L 241.00,219.00 L 241.00,320.00 L 232.50,320.00 L 224.00,320.00 L 224.00,219.00 M 195.00,314.87 C193.07,314.34 188.24,312.97 184.25,311.81 L 177.00,309.71 L 177.00,213.85 L 177.00,118.00 L 189.00,118.00 L 201.00,118.00 L 201.00,217.00 C201.00,295.58 200.74,315.98 199.75,315.91 C199.06,315.86 196.93,315.39 195.00,314.87 M 265.00,217.08 L 265.00,118.00 L 270.00,118.00 L 275.00,118.00 L 275.00,215.46 C275.00,307.27 274.90,312.98 273.25,313.85 C272.29,314.35 270.04,315.08 268.25,315.46 L 265.00,316.16 L 265.00,217.08 M 143.00,300.96 C136.68,299.41 128.91,297.62 125.75,297.00 L 120.00,295.86 L 120.00,206.93 L 120.00,118.00 L 138.50,118.00 L 157.00,118.00 L 157.00,211.00 C157.00,284.79 156.74,303.98 155.75,303.89 C155.06,303.83 149.32,302.51 143.00,300.96 M 88.00,291.38 C82.22,290.64 71.42,289.68 64.00,289.26 L 50.50,288.50 L 50.24,203.25 L 49.99,118.00 L 75.99,118.00 L 102.00,118.00 L 102.00,205.50 C102.00,288.22 101.90,292.99 100.25,292.87 C99.29,292.80 93.78,292.13 88.00,291.38 M 374.00,213.97 C366.23,212.35 355.64,206.43 349.68,200.37 C336.73,187.21 331.12,166.35 335.61,148.06 C339.60,131.85 351.33,117.07 365.60,110.29 C373.04,106.75 374.05,106.53 383.00,106.56 C393.28,106.60 398.80,108.32 405.83,113.68 L 409.27,116.31 L 412.72,112.15 C415.98,108.22 416.45,108.00 421.58,108.00 L 427.00,108.00 L 427.00,130.00 L 427.00,152.00 L 417.97,152.00 C411.60,152.00 408.83,151.63 408.58,150.75 C405.58,140.28 400.70,132.84 394.45,129.22 C391.21,127.33 389.33,126.98 384.00,127.23 C378.62,127.49 376.70,128.10 372.88,130.73 C363.54,137.17 358.37,149.60 359.27,163.45 C360.54,182.92 371.68,196.15 387.00,196.37 C396.72,196.51 402.54,190.88 406.99,177.03 L 409.25,170.00 L 418.13,170.00 L 427.00,170.00 L 427.00,184.41 L 427.00,198.81 L 422.25,202.77 C412.70,210.72 403.33,214.03 389.00,214.54 C383.23,214.75 376.48,214.49 374.00,213.97 M 461.00,213.13 C450.21,210.75 442.42,204.72 437.79,195.15 C434.87,189.12 434.53,187.45 434.18,177.20 C433.67,162.61 435.98,154.46 442.78,146.90 C449.76,139.13 455.41,136.70 467.62,136.20 C483.96,135.53 493.47,139.58 500.67,150.27 C508.16,161.41 508.97,182.73 502.41,196.54 C499.67,202.33 492.72,208.59 486.43,210.94 C480.10,213.31 466.95,214.44 461.00,213.13 M 478.85,196.47 C483.53,192.53 485.51,186.10 485.45,175.00 C485.42,169.78 484.84,163.61 484.17,161.30 C481.72,152.87 474.04,148.47 465.98,150.89 C457.95,153.29 454.43,162.12 455.18,177.97 C455.89,192.68 460.49,198.92 470.67,198.97 C474.77,198.99 476.47,198.47 478.85,196.47 M 608.00,212.92 C604.98,212.40 600.31,211.25 597.62,210.36 L 592.75,208.76 L 593.44,201.15 C593.81,196.96 594.23,193.44 594.36,193.31 C594.49,193.18 597.50,194.25 601.05,195.70 C607.65,198.39 620.27,199.90 625.37,198.62 C628.95,197.72 631.00,195.29 631.00,191.95 C631.00,188.19 628.45,186.54 617.22,183.01 C598.36,177.10 592.86,171.73 592.86,159.21 C592.86,148.64 599.41,140.68 610.85,137.35 C617.18,135.52 636.20,135.90 641.75,137.98 L 645.00,139.20 L 645.00,146.55 L 645.00,153.91 L 640.75,152.30 C638.01,151.26 633.07,150.66 626.84,150.60 C617.92,150.51 616.97,150.69 614.59,152.92 C608.80,158.35 612.18,162.07 627.00,166.61 C637.96,169.97 641.97,172.06 645.80,176.43 C653.42,185.10 651.91,200.45 642.76,207.34 C635.59,212.74 620.70,215.13 608.00,212.92 M 677.72,212.64 C672.02,211.03 668.40,207.93 665.89,202.50 C664.27,198.98 664.04,195.71 664.02,175.25 L 664.00,152.00 L 658.00,152.00 L 652.00,152.00 L 652.00,144.50 L 652.00,137.00 L 658.00,137.00 L 664.00,137.00 L 664.00,127.62 L 664.00,118.25 L 672.46,116.12 C685.91,112.75 685.00,112.07 685.00,125.50 L 685.00,137.00 L 693.50,137.00 L 702.00,137.00 L 702.00,144.50 L 702.00,152.00 L 693.50,152.00 L 685.00,152.00 L 684.91,168.25 C684.78,190.59 684.94,193.17 686.59,195.73 C687.38,196.96 689.11,198.24 690.44,198.58 C692.43,199.07 700.20,197.34 704.50,195.44 C705.14,195.16 705.32,197.60 705.00,202.22 L 704.50,209.45 L 699.55,211.28 C692.94,213.73 683.63,214.31 677.72,212.64 M 784.04,212.23 C776.86,210.12 770.93,204.32 768.94,197.47 C767.84,193.68 767.50,185.98 767.50,165.00 L 767.50,137.50 L 778.25,137.22 L 789.00,136.93 L 789.00,163.52 C789.00,193.01 789.34,194.88 795.12,196.89 C802.43,199.44 808.83,197.04 811.96,190.59 C813.85,186.69 814.00,184.50 814.00,161.68 L 814.00,137.00 L 824.50,137.00 L 835.00,137.00 L 835.00,166.93 C835.00,192.49 835.22,197.08 836.53,198.39 C837.69,199.55 838.68,199.69 840.60,198.96 C841.99,198.43 843.33,198.00 843.57,198.00 C843.80,198.00 844.00,200.64 844.00,203.86 L 844.00,209.73 L 839.72,211.36 C831.28,214.58 819.30,212.55 817.39,207.57 C816.96,206.44 815.89,206.75 812.32,209.01 C804.43,214.01 794.10,215.19 784.04,212.23 M 877.40,212.51 C855.99,207.86 843.30,189.10 847.08,167.72 C850.14,150.40 862.07,138.94 880.03,136.07 C889.89,134.50 900.51,136.76 906.07,141.61 C907.43,142.80 908.03,142.58 910.51,139.99 C912.82,137.57 914.20,137.00 917.69,137.00 L 922.00,137.00 L 922.00,153.00 L 922.00,169.00 L 915.03,169.00 L 908.06,169.00 L 905.96,164.13 C900.57,151.59 888.96,147.83 877.70,154.98 C871.09,159.17 867.55,166.84 868.25,175.47 C870.32,201.33 897.31,209.17 905.93,186.41 L 907.79,181.50 L 914.90,181.21 L 922.00,180.91 L 922.00,190.38 L 922.00,199.84 L 917.83,203.42 C907.07,212.62 892.73,215.85 877.40,212.51 M 955.50,213.09 C947.21,210.78 942.92,206.96 941.04,200.22 C940.48,198.17 940.01,186.49 940.01,174.25 L 940.00,152.00 L 934.00,152.00 L 928.00,152.00 L 928.00,144.50 L 928.00,137.00 L 934.00,137.00 L 940.00,137.00 L 940.00,127.73 L 940.00,118.46 L 949.25,116.07 C954.34,114.76 959.06,113.48 959.75,113.24 C960.71,112.89 961.00,115.63 961.00,124.89 L 961.00,137.00 L 969.50,137.00 L 978.00,137.00 L 978.00,144.50 L 978.00,152.00 L 969.50,152.00 L 961.00,152.00 L 961.00,173.05 L 961.00,194.09 L 963.58,196.67 C965.83,198.92 966.72,199.17 970.60,198.64 C973.04,198.31 976.42,197.32 978.11,196.44 C979.80,195.57 981.36,195.03 981.57,195.24 C981.79,195.45 981.67,198.69 981.32,202.44 L 980.69,209.25 L 976.31,211.19 C971.45,213.34 960.12,214.37 955.50,213.09 M 1058.41,212.97 C1048.00,210.91 1040.72,205.75 1036.28,197.30 C1031.96,189.06 1030.65,182.37 1031.25,171.63 C1032.15,155.57 1038.22,144.97 1049.75,139.33 C1054.48,137.02 1057.05,136.49 1065.08,136.17 C1084.96,135.37 1096.41,142.45 1102.01,159.01 C1103.92,164.63 1104.15,167.04 1103.76,177.00 C1103.27,189.55 1101.18,196.11 1095.55,202.77 C1088.14,211.54 1072.66,215.79 1058.41,212.97 M 1074.95,197.53 C1076.60,196.67 1078.78,194.05 1080.15,191.28 C1082.22,187.06 1082.50,185.09 1082.49,174.50 C1082.49,163.93 1082.22,161.99 1080.20,158.21 C1077.06,152.30 1072.79,149.78 1066.81,150.29 C1056.32,151.19 1052.55,157.60 1052.58,174.50 C1052.61,188.32 1055.34,195.53 1061.50,198.05 C1064.76,199.39 1071.89,199.11 1074.95,197.53 M 1375.83,212.46 C1368.84,210.76 1361.07,206.09 1357.54,201.46 C1345.65,185.87 1347.16,157.40 1360.54,145.07 C1368.52,137.71 1371.98,136.50 1385.00,136.50 C1395.54,136.50 1396.92,136.72 1401.50,139.16 C1407.97,142.61 1413.35,148.24 1416.08,154.44 C1418.48,159.86 1419.64,169.75 1418.57,175.48 C1417.47,181.34 1414.67,182.00 1391.03,182.00 C1377.93,182.00 1371.00,182.36 1371.00,183.03 C1371.00,184.85 1374.02,191.36 1375.79,193.35 C1381.99,200.34 1397.61,200.82 1410.35,194.42 C1413.06,193.06 1415.47,192.14 1415.71,192.38 C1415.95,192.61 1415.83,195.97 1415.45,199.84 L 1414.75,206.88 L 1408.63,209.45 C1397.60,214.07 1386.64,215.08 1375.83,212.46 M 1398.63,164.35 C1397.42,155.52 1392.18,150.01 1385.00,150.01 C1377.94,150.01 1372.48,156.00 1371.26,165.11 L 1370.75,168.93 L 1382.12,169.22 C1388.38,169.37 1394.79,169.33 1396.37,169.12 C1399.14,168.75 1399.22,168.59 1398.63,164.35 M 517.00,182.53 L 517.00,152.00 L 512.50,152.00 L 508.00,152.00 L 508.00,144.50 L 508.00,137.00 L 519.00,137.00 C525.89,137.00 530.00,137.39 530.00,138.03 C530.00,138.60 530.66,140.65 531.48,142.60 L 532.95,146.13 L 535.73,143.50 C541.75,137.79 545.63,136.51 557.00,136.50 C568.33,136.50 572.47,137.75 577.36,142.64 C583.26,148.53 583.47,149.87 583.79,182.79 L 584.08,213.07 L 573.79,212.79 L 563.50,212.50 L 563.00,185.50 C562.48,157.50 562.13,155.21 558.04,153.02 C555.53,151.68 547.72,151.71 544.71,153.09 C543.40,153.68 541.47,155.59 540.42,157.34 C538.70,160.17 538.45,163.19 538.00,186.50 L 537.50,212.50 L 527.25,212.78 L 517.00,213.07 L 517.00,182.53 M 718.00,182.53 L 718.00,152.00 L 713.50,152.00 L 709.00,152.00 L 709.00,144.50 L 709.00,137.00 L 719.90,137.00 L 730.80,137.00 L 732.55,141.87 L 734.30,146.73 L 737.39,143.21 C741.45,138.59 747.24,136.05 753.79,136.02 L 759.08,136.00 L 758.79,144.07 L 758.50,152.15 L 752.97,152.40 C749.88,152.55 746.32,153.40 744.88,154.34 C739.94,157.58 739.57,159.67 739.01,187.00 L 738.50,212.50 L 728.25,212.78 L 718.00,213.07 L 718.00,182.53 M 1000.90,210.72 C995.60,207.15 995.12,204.37 995.06,176.75 L 995.00,152.00 L 990.50,152.00 L 986.00,152.00 L 986.00,144.50 L 986.00,137.00 L 1000.99,137.00 L 1015.97,137.00 L 1016.24,167.75 L 1016.50,198.50 L 1021.33,198.33 C1025.25,198.19 1026.04,198.44 1025.58,199.66 C1025.26,200.49 1025.00,203.10 1025.00,205.47 C1025.00,209.57 1024.80,209.86 1020.98,211.39 C1014.83,213.85 1005.07,213.52 1000.90,210.72 M 1114.67,212.33 C1114.30,211.97 1114.00,198.24 1114.00,181.83 L 1114.00,152.00 L 1109.50,152.00 L 1105.00,152.00 L 1105.00,144.50 L 1105.00,137.00 L 1115.86,137.00 L 1126.73,137.00 L 1128.48,141.58 L 1130.23,146.16 L 1132.86,143.67 C1138.71,138.15 1143.70,136.50 1154.53,136.50 C1167.54,136.50 1172.87,138.89 1177.67,146.87 C1181.70,153.57 1182.21,158.91 1181.81,189.50 L 1181.50,212.50 L 1171.25,212.78 L 1161.00,213.07 L 1160.98,188.78 C1160.96,175.43 1160.54,162.70 1160.03,160.50 C1158.67,154.60 1155.12,152.00 1148.46,152.00 C1143.95,152.00 1142.51,152.46 1139.96,154.75 C1138.13,156.39 1136.52,159.11 1135.97,161.50 C1135.46,163.70 1135.04,176.19 1135.02,189.25 L 1135.00,213.00 L 1125.17,213.00 C1119.76,213.00 1115.03,212.70 1114.67,212.33 M 1200.20,211.33 C1193.53,208.04 1193.53,208.06 1193.21,162.25 L 1192.92,121.00 L 1188.41,121.00 L 1183.91,121.00 L 1184.21,113.75 L 1184.50,106.50 L 1199.25,106.22 L 1214.00,105.95 L 1214.00,151.35 C1214.00,201.78 1213.73,199.84 1220.49,198.57 L 1224.00,197.91 L 1223.90,201.70 C1223.73,208.20 1222.71,210.24 1218.97,211.59 C1213.96,213.41 1204.13,213.27 1200.20,211.33 M 1243.50,212.05 C1242.40,211.59 1240.38,210.01 1239.00,208.53 L 1236.50,205.84 L 1236.20,178.92 L 1235.91,152.00 L 1231.45,152.00 L 1227.00,152.00 L 1227.00,144.47 L 1227.00,136.95 L 1241.75,137.22 L 1256.50,137.50 L 1256.73,166.50 C1256.85,182.45 1256.97,196.35 1256.98,197.39 C1257.00,199.04 1257.54,199.20 1261.50,198.66 L 1266.00,198.04 L 1266.00,202.58 C1266.00,208.63 1264.72,210.71 1260.24,211.95 C1255.84,213.17 1246.35,213.23 1243.50,212.05 M 1276.00,182.50 L 1276.00,152.00 L 1271.50,152.00 L 1267.00,152.00 L 1267.00,144.50 L 1267.00,137.00 L 1278.00,137.00 C1284.05,137.00 1289.00,137.40 1289.00,137.88 C1289.00,138.36 1289.71,140.44 1290.57,142.51 L 1292.14,146.26 L 1295.32,143.24 C1300.64,138.20 1304.72,136.67 1314.20,136.20 C1320.96,135.86 1324.03,136.17 1328.03,137.61 C1334.18,139.82 1340.37,146.07 1341.92,151.65 C1342.56,153.97 1342.99,166.92 1342.99,184.28 L 1343.00,213.07 L 1332.75,212.78 L 1322.50,212.50 L 1322.00,184.66 L 1321.50,156.82 L 1318.69,154.41 C1316.48,152.51 1314.75,152.00 1310.52,152.00 C1304.02,152.00 1299.62,155.10 1298.03,160.81 C1297.47,162.86 1297.01,175.30 1297.01,188.75 L 1297.00,213.00 L 1286.50,213.00 L 1276.00,213.00 L 1276.00,182.50 M 998.31,126.05 C992.37,122.42 991.79,113.49 997.17,108.33 C999.62,105.99 1001.00,105.50 1005.15,105.50 C1009.55,105.50 1010.52,105.90 1013.08,108.77 C1015.28,111.23 1016.00,113.02 1016.00,116.07 C1016.00,120.71 1013.84,125.48 1011.06,126.97 C1007.99,128.61 1001.78,128.16 998.31,126.05 M 1237.95,125.25 C1231.89,119.83 1233.31,109.44 1240.53,106.42 C1244.88,104.60 1247.38,104.63 1251.03,106.52 C1261.36,111.86 1257.20,128.00 1245.50,128.00 C1242.04,128.00 1240.34,127.38 1237.95,125.25 M 52.00,105.06 C52.00,104.54 52.42,103.86 52.94,103.54 C54.65,102.48 57.28,88.00 56.68,82.94 C55.93,76.63 54.13,73.31 48.39,67.65 L 43.67,63.00 L 162.87,63.00 L 282.07,63.00 L 278.60,66.04 C273.15,70.83 270.00,78.14 270.01,85.95 C270.02,91.79 271.44,99.26 273.49,104.25 C274.18,105.91 268.53,106.00 163.11,106.00 C94.35,106.00 52.00,105.64 52.00,105.06 M 11.00,43.75 L 11.00,38.00 L 162.50,38.00 L 314.00,38.00 L 314.00,43.49 L 314.00,48.99 L 162.50,49.24 L 11.00,49.50 L 11.00,43.75 M 0.00,14.50 L 0.00,0.00 L 163.50,0.00 L 327.00,0.00 L 327.00,14.50 L 327.00,29.00 L 163.50,29.00 L 0.00,29.00 L 0.00,14.50 Z" fill="rgba(0,0,0,1)"/>
</g>
</svg>