<svg xmlns="http://www.w3.org/2000/svg" width="1024" height="515" viewBox="0 0 1024 515">
<g>
<path d="M 13.26,513.36 C8.60,511.06 5.85,506.01 5.27,498.69 C4.35,487.06 8.53,479.28 16.93,477.02 C23.21,475.33 28.79,476.59 32.80,480.60 C37.09,484.89 36.72,487.27 31.65,488.09 C28.31,488.64 27.69,488.42 26.76,486.38 C24.54,481.51 18.13,482.09 15.62,487.39 C13.74,491.34 13.51,498.31 15.11,502.88 C16.48,506.83 21.02,509.37 25.07,508.48 C27.61,507.93 28.00,507.39 28.00,504.42 C28.00,501.67 27.61,501.00 26.00,501.00 C24.53,501.00 24.00,500.33 24.00,498.50 C24.00,496.09 24.23,496.00 30.50,496.00 L 37.00,496.00 L 37.00,505.03 C37.00,512.46 36.71,514.17 35.37,514.69 C34.47,515.03 32.91,514.80 31.90,514.17 C30.63,513.37 29.27,513.33 27.47,514.01 C23.61,515.48 16.94,515.17 13.26,513.36 M 48.30,513.04 C44.15,510.51 42.00,506.24 42.00,500.52 C42.00,494.61 44.12,489.62 47.60,487.34 C51.32,484.91 60.52,484.92 64.20,487.37 C69.84,491.12 71.60,503.38 67.42,509.77 C64.09,514.85 54.08,516.56 48.30,513.04 M 59.76,507.75 C61.34,505.79 62.22,500.30 61.50,496.99 C60.65,493.15 58.50,491.00 55.49,491.00 C52.19,491.00 50.00,494.60 50.00,500.00 C50.00,505.72 52.16,509.00 55.93,509.00 C57.49,509.00 59.21,508.44 59.76,507.75 M 77.75,513.92 C76.20,513.01 76.00,511.07 76.00,496.57 C76.00,481.07 75.90,480.21 74.00,479.71 C72.65,479.36 72.00,478.35 72.00,476.59 C72.00,474.09 72.21,474.00 78.00,474.00 L 84.00,474.00 L 84.00,491.50 C84.00,506.39 84.22,509.00 85.50,509.00 C87.53,509.00 87.46,513.61 85.42,514.39 C83.09,515.29 79.74,515.08 77.75,513.92 M 96.78,513.26 C93.23,511.06 91.49,506.73 91.55,500.25 C91.64,492.06 97.04,486.20 105.39,485.26 C109.43,484.80 110.00,484.45 110.00,482.37 C110.00,480.93 109.41,480.00 108.50,480.00 C107.50,480.00 107.00,479.00 107.00,477.00 C107.00,474.03 107.06,474.00 112.50,474.00 L 118.00,474.00 L 118.00,491.50 C118.00,508.53 118.06,509.00 120.07,509.00 C123.29,509.00 122.21,513.21 118.67,514.45 C116.51,515.21 115.18,515.07 113.08,513.86 C110.74,512.52 110.05,512.49 108.48,513.64 C105.94,515.50 100.08,515.31 96.78,513.26 M 108.80,507.80 C110.20,506.40 110.47,491.41 109.11,490.57 C107.66,489.67 102.03,492.07 100.98,494.04 C99.40,496.99 99.78,505.64 101.57,507.43 C103.44,509.29 107.12,509.48 108.80,507.80 M 141.00,496.06 L 141.00,477.00 L 144.86,477.00 C148.60,477.00 148.81,477.19 151.31,482.75 C152.73,485.91 155.31,491.62 157.04,495.43 L 160.19,502.37 L 163.61,494.43 C171.57,476.01 170.91,477.00 175.19,477.00 L 179.04,477.00 L 178.77,495.75 L 178.50,514.50 L 175.50,514.50 L 172.50,514.50 L 171.99,504.00 L 171.47,493.50 L 169.81,497.00 C168.90,498.93 166.81,503.65 165.16,507.50 C160.72,517.90 159.45,517.56 153.41,504.34 L 148.50,493.59 L 148.00,504.04 L 147.50,514.50 L 144.25,514.81 L 141.00,515.13 L 141.00,496.06 M 192.00,513.25 C187.69,511.09 185.00,506.01 185.00,500.00 C185.00,490.61 191.19,484.45 199.74,485.32 C205.57,485.91 208.50,488.12 210.55,493.49 C211.93,497.11 212.06,498.57 211.17,500.53 C210.10,502.87 209.61,503.00 201.54,503.00 L 193.04,503.00 L 194.19,505.52 C195.85,509.17 202.36,510.10 208.25,507.55 C209.67,506.93 210.00,507.29 210.00,509.44 C210.00,514.47 199.06,516.78 192.00,513.25 M 204.00,496.72 C204.00,494.25 200.87,491.00 198.50,491.00 C197.17,491.00 195.43,491.98 194.56,493.22 C191.82,497.13 192.54,498.00 198.50,498.00 C202.30,498.00 204.00,497.60 204.00,496.72 M 218.67,514.33 C218.30,513.97 218.00,508.78 218.00,502.80 C218.00,494.07 217.71,491.82 216.50,491.36 C215.68,491.05 215.00,489.71 215.00,488.39 C215.00,486.29 215.46,486.00 218.80,486.00 C220.89,486.00 223.06,486.46 223.63,487.03 C224.33,487.73 225.58,487.58 227.58,486.54 C231.23,484.63 234.11,484.60 238.50,486.43 C241.51,487.69 242.41,487.68 245.89,486.31 C250.70,484.42 255.94,485.17 258.61,488.12 C260.24,489.92 260.50,491.85 260.50,502.35 L 260.50,514.50 L 256.75,514.81 L 253.00,515.12 L 253.00,505.06 C253.00,496.33 252.73,494.73 251.00,493.00 C248.62,490.62 247.99,490.56 245.44,492.42 C243.77,493.64 243.45,495.33 243.16,504.47 L 242.81,515.11 L 239.16,514.80 L 235.50,514.50 L 235.23,504.00 C235.01,495.58 234.62,493.25 233.29,492.25 C231.04,490.56 230.34,490.66 228.00,493.00 C226.27,494.73 226.00,496.33 226.00,505.00 L 226.00,515.00 L 222.67,515.00 C220.83,515.00 219.03,514.70 218.67,514.33 M 271.00,514.11 L 268.50,513.41 L 268.23,496.71 C268.00,482.77 267.71,480.00 266.48,480.00 C265.50,480.00 265.00,478.98 265.00,477.00 C265.00,474.03 265.06,474.00 270.50,474.00 L 276.00,474.00 L 276.00,480.61 C276.00,486.50 276.19,487.14 277.75,486.52 C288.00,482.47 295.00,488.03 295.00,500.22 C294.99,506.76 292.30,511.56 287.51,513.56 C283.96,515.05 275.40,515.33 271.00,514.11 M 284.14,508.09 C286.16,506.45 286.50,505.28 286.50,500.01 C286.50,495.06 286.12,493.56 284.56,492.42 C281.93,490.50 280.37,490.63 278.00,493.00 C276.39,494.61 276.00,496.33 276.00,501.92 C276.00,506.51 276.42,509.00 277.25,509.34 C279.74,510.34 281.82,509.96 284.14,508.09 M 305.30,513.04 C300.61,510.18 298.73,506.70 298.65,500.67 C298.50,490.71 305.36,484.08 314.40,485.43 C320.30,486.32 324.06,490.34 324.76,496.53 C325.43,502.47 324.66,502.97 314.75,502.98 C310.49,502.99 307.00,503.35 307.00,503.78 C307.00,504.21 307.73,505.59 308.62,506.86 C310.03,508.88 310.89,509.12 315.37,508.77 C318.19,508.55 321.29,508.01 322.25,507.58 C323.68,506.93 324.00,507.28 324.00,509.44 C324.00,511.53 323.26,512.41 320.53,513.55 C315.66,515.59 309.12,515.37 305.30,513.04 M 317.00,495.70 C317.00,494.44 316.46,492.86 315.80,492.20 C312.94,489.34 307.00,491.96 307.00,496.07 C307.00,497.72 307.73,498.00 312.00,498.00 C316.55,498.00 317.00,497.79 317.00,495.70 M 332.00,503.47 C332.00,492.65 331.86,491.78 330.00,491.29 C328.71,490.95 328.00,489.93 328.00,488.38 C328.00,486.26 328.44,486.00 332.14,486.00 C334.91,486.00 336.72,486.58 337.61,487.75 C338.34,488.71 338.95,488.99 338.97,488.37 C339.01,486.83 344.59,484.63 346.55,485.38 C347.59,485.78 348.02,486.94 347.82,488.74 C347.57,490.89 346.91,491.57 344.82,491.81 C343.35,491.98 341.68,492.68 341.11,493.37 C340.54,494.05 339.95,499.09 339.79,504.56 L 339.50,514.50 L 335.75,514.81 L 332.00,515.12 L 332.00,503.47 M 40.53,438.99 C20.80,435.48 6.52,421.88 1.61,401.94 C-4.30,377.86 7.71,351.55 29.48,340.91 C35.93,337.76 37.17,337.50 45.98,337.50 C56.40,337.50 62.86,339.58 68.12,344.61 L 70.74,347.12 L 73.95,343.06 C77.01,339.21 77.44,339.00 82.60,339.00 L 88.04,339.00 L 87.77,359.75 L 87.50,380.50 L 79.14,380.50 L 70.78,380.50 L 68.52,374.27 C64.19,362.30 57.51,356.53 47.99,356.53 C32.21,356.53 20.68,374.86 23.89,394.82 C25.72,406.15 31.67,415.71 39.39,419.70 C41.05,420.56 45.21,421.49 48.63,421.76 C53.85,422.18 55.42,421.91 58.43,420.04 C62.66,417.43 66.56,411.18 68.92,403.22 L 70.62,397.50 L 79.06,397.50 L 87.50,397.50 L 87.78,410.65 L 88.06,423.80 L 83.78,427.49 C73.10,436.70 54.89,441.54 40.53,438.99 M 121.84,437.93 C113.82,436.75 107.67,433.54 102.56,427.85 C96.23,420.81 94.50,415.05 94.50,401.00 C94.50,390.70 94.77,388.92 97.10,383.95 C100.69,376.30 105.13,371.57 111.82,368.29 C116.99,365.75 118.49,365.50 128.50,365.50 C137.86,365.50 140.24,365.84 144.50,367.80 C155.87,373.03 161.98,383.28 162.77,398.46 C163.96,421.19 154.35,434.79 134.86,437.95 C131.36,438.52 128.28,438.93 128.00,438.87 C127.72,438.81 124.95,438.38 121.84,437.93 M 134.65,423.36 C140.62,420.53 142.46,415.50 142.48,402.00 C142.50,392.46 142.16,389.83 140.50,386.56 C137.73,381.12 133.84,378.50 128.50,378.50 C123.16,378.50 119.27,381.12 116.50,386.56 C114.84,389.83 114.50,392.46 114.52,402.00 C114.53,411.87 114.84,414.08 116.71,417.60 C120.30,424.36 127.61,426.70 134.65,423.36 M 262.00,437.96 C254.01,437.04 247.93,435.45 245.93,433.77 C244.77,432.80 244.51,430.89 244.80,425.68 C245.13,419.79 245.40,418.95 246.84,419.54 C256.17,423.41 260.16,424.33 267.83,424.41 C275.77,424.50 276.28,424.37 278.58,421.69 C279.91,420.15 281.00,418.44 281.00,417.90 C281.00,415.27 275.54,411.93 266.81,409.20 C255.55,405.68 252.39,404.12 248.73,400.26 C243.80,395.07 242.57,385.69 245.89,378.50 C248.22,373.45 251.20,370.71 257.51,367.80 C261.91,365.77 263.98,365.51 275.00,365.58 C281.97,365.62 288.72,366.16 290.25,366.80 C292.88,367.90 293.00,368.26 293.00,374.93 L 293.00,381.91 L 288.75,380.40 C277.93,376.56 265.99,377.91 263.04,383.31 C261.57,386.00 261.62,386.22 264.21,388.48 C265.70,389.77 271.29,392.26 276.64,394.00 C292.05,399.00 297.30,403.60 298.62,413.24 C300.92,430.05 285.23,440.65 262.00,437.96 M 327.33,437.93 C322.29,436.97 318.14,434.92 315.65,432.17 C311.76,427.87 311.09,423.37 311.04,401.25 L 311.00,380.00 L 305.50,380.00 L 300.00,380.00 L 300.00,373.00 L 300.00,366.00 L 305.46,366.00 L 310.92,366.00 L 311.21,357.31 L 311.50,348.62 L 319.50,346.39 C331.89,342.93 331.00,342.26 331.00,355.00 L 331.00,366.00 L 339.00,366.00 L 347.00,366.00 L 347.00,373.00 L 347.00,380.00 L 339.00,380.00 L 331.00,380.00 L 331.00,399.78 C331.00,423.17 331.28,424.02 338.81,423.96 C341.39,423.95 344.62,423.29 346.00,422.50 C347.38,421.71 348.86,421.05 349.30,421.04 C349.73,421.02 349.96,424.03 349.80,427.72 L 349.50,434.44 L 345.00,436.08 C339.10,438.23 332.50,438.92 327.33,437.93 M 428.77,437.95 C421.58,436.77 416.02,433.21 412.54,427.58 L 409.50,422.66 L 409.18,394.33 L 408.86,366.00 L 418.93,366.00 L 429.00,366.00 L 429.00,391.37 C429.00,415.28 429.12,416.88 431.02,419.29 C434.75,424.04 442.05,424.92 447.67,421.28 C452.24,418.32 453.00,413.72 453.00,388.94 L 453.00,365.93 L 462.75,366.21 L 472.50,366.50 L 473.00,395.50 L 473.50,424.50 L 477.53,424.26 L 481.55,424.01 L 481.03,429.25 C480.56,433.84 480.13,434.66 477.50,435.92 C470.22,439.42 461.23,438.23 456.63,433.14 L 454.76,431.08 L 451.63,433.42 C446.18,437.48 436.98,439.31 428.77,437.95 M 515.71,437.91 C496.81,435.14 483.99,420.87 483.89,402.50 C483.83,390.97 486.22,384.09 492.80,376.80 C500.14,368.68 509.27,364.99 521.93,365.02 C529.57,365.04 536.24,367.09 540.12,370.61 C541.62,371.97 542.00,371.82 543.96,369.06 C545.83,366.43 546.77,366.00 550.57,366.00 L 555.00,366.00 L 555.00,381.00 L 555.00,396.00 L 548.25,396.00 L 541.50,395.99 L 539.75,391.74 C536.32,383.38 531.23,379.81 522.81,379.86 C504.47,379.96 497.29,405.34 511.57,419.62 C519.50,427.55 528.68,427.70 535.28,419.99 C537.14,417.81 539.27,414.22 540.00,412.01 L 541.32,408.00 L 548.16,408.00 L 555.00,408.00 L 555.00,416.38 L 555.00,424.77 L 550.88,428.49 C545.91,432.98 538.37,436.46 530.46,437.92 C524.02,439.11 523.94,439.11 515.71,437.91 M 587.18,437.95 C581.49,436.80 576.96,433.90 574.50,429.82 C572.70,426.83 572.45,424.20 572.00,403.50 L 571.50,380.50 L 566.25,380.20 L 561.00,379.90 L 561.00,373.00 L 561.00,366.10 L 566.25,365.80 L 571.50,365.50 L 571.79,356.92 L 572.07,348.35 L 579.29,346.65 C583.25,345.71 587.51,344.68 588.75,344.36 C590.98,343.77 591.00,343.85 591.00,354.88 L 591.00,366.00 L 599.55,366.00 L 608.09,366.00 L 607.80,372.75 L 607.50,379.50 L 599.18,379.79 L 590.85,380.08 L 591.18,399.94 C591.47,417.79 591.69,420.01 593.40,421.90 C595.71,424.44 601.39,424.70 606.65,422.50 C608.63,421.68 610.41,421.00 610.62,421.00 C610.83,421.00 611.00,423.67 611.00,426.94 C611.00,431.97 610.65,433.13 608.75,434.47 C604.33,437.57 593.77,439.28 587.18,437.95 M 685.40,437.91 C673.72,435.96 665.77,430.12 661.20,420.12 C657.50,412.03 656.89,397.02 659.87,387.21 C662.52,378.47 668.54,371.35 676.22,367.89 C680.76,365.84 683.05,365.50 692.50,365.50 C702.53,365.50 704.00,365.75 709.22,368.31 C719.65,373.43 725.64,383.48 726.73,397.70 C728.04,414.83 721.79,428.45 709.78,434.59 C706.05,436.50 693.51,439.35 691.00,438.86 C690.73,438.81 688.21,438.38 685.40,437.91 M 701.11,421.39 C705.46,417.23 707.37,409.61 706.76,398.91 C705.97,385.07 701.40,378.50 692.58,378.50 C686.89,378.50 683.75,380.34 680.88,385.35 C678.74,389.09 678.50,390.69 678.50,401.50 C678.50,411.68 678.81,414.11 680.57,417.50 C684.63,425.36 694.93,427.31 701.11,421.39 M 986.69,437.91 C978.58,436.72 969.49,431.65 965.41,426.03 C960.41,419.14 958.51,412.13 958.63,401.00 C958.77,388.03 961.27,381.44 968.87,373.97 C975.55,367.41 981.79,365.00 992.08,365.00 C1010.50,365.00 1022.73,376.58 1023.80,395.03 C1024.22,402.39 1024.10,402.99 1021.67,405.42 L 1019.09,408.00 L 999.05,408.00 C976.45,408.00 977.21,407.68 981.05,415.60 C983.44,420.55 986.05,422.48 992.50,424.11 C998.34,425.58 1008.14,424.03 1015.46,420.48 C1018.18,419.16 1020.60,418.27 1020.83,418.50 C1021.06,418.72 1020.93,421.81 1020.55,425.36 L 1019.86,431.81 L 1015.18,433.81 C1005.71,437.86 995.96,439.26 986.69,437.91 M 1005.00,393.47 C1005.00,388.86 1002.93,384.12 999.55,381.00 C997.43,379.04 995.78,378.50 991.94,378.50 C987.78,378.50 986.56,378.97 983.90,381.64 C980.86,384.68 977.37,394.18 978.58,396.13 C978.88,396.61 984.94,397.00 992.06,397.00 L 1005.00,397.00 L 1005.00,393.47 M 631.27,436.58 C629.49,435.77 627.13,433.63 626.02,431.81 C624.15,428.73 624.01,426.80 624.00,404.31 L 624.00,380.11 L 619.75,379.81 L 615.50,379.50 L 615.50,373.00 L 615.50,366.50 L 629.50,366.50 L 643.50,366.50 L 644.00,395.50 L 644.50,424.50 L 648.25,424.28 L 652.00,424.06 L 652.00,429.37 C652.00,434.19 651.74,434.80 649.25,435.96 C644.97,437.94 635.02,438.29 631.27,436.58 M 818.00,436.25 C811.10,432.80 811.00,432.12 811.00,389.31 L 811.00,351.11 L 806.75,350.81 L 802.50,350.50 L 802.50,344.00 L 802.50,337.50 L 816.74,337.22 L 830.98,336.95 L 831.24,380.72 L 831.50,424.50 L 835.57,424.25 L 839.64,424.00 L 839.23,429.25 C838.78,434.91 838.32,435.47 833.00,436.99 C827.74,438.49 821.91,438.20 818.00,436.25 M 858.00,436.31 C851.53,432.96 851.00,430.53 851.00,403.75 L 851.00,380.00 L 846.50,380.00 L 842.00,380.00 L 842.00,372.97 L 842.00,365.95 L 856.25,366.22 L 870.50,366.50 L 871.00,395.50 L 871.50,424.50 L 875.50,424.26 L 879.50,424.02 L 879.16,429.39 C878.87,434.07 878.49,434.91 876.16,435.99 C871.44,438.19 861.94,438.35 858.00,436.31 M 172.77,408.75 L 172.50,380.50 L 168.25,380.19 L 164.00,379.89 L 164.00,372.94 L 164.00,366.00 L 174.05,366.00 L 184.10,366.00 L 185.66,369.75 C186.51,371.81 187.34,373.64 187.51,373.82 C187.67,373.99 189.81,372.61 192.25,370.74 C198.19,366.21 204.26,364.63 213.40,365.21 C222.88,365.82 228.76,369.04 232.72,375.78 L 235.50,380.50 L 235.82,408.75 L 236.14,437.00 L 226.07,437.00 L 216.00,437.00 L 216.00,411.42 L 216.00,385.85 L 213.08,382.92 C210.63,380.47 209.35,380.00 205.15,380.00 C199.04,380.00 194.58,383.24 193.03,388.81 C192.47,390.84 192.01,402.51 192.01,414.75 L 192.00,437.00 L 182.52,437.00 L 173.03,437.00 L 172.77,408.75 M 362.00,408.50 L 362.00,380.00 L 358.00,380.00 L 354.00,380.00 L 354.00,372.97 L 354.00,365.93 L 364.22,366.22 L 374.45,366.50 L 376.02,370.77 L 377.59,375.03 L 380.55,371.89 C384.52,367.66 390.49,365.05 396.25,365.02 L 401.00,365.00 L 401.00,372.94 L 401.00,380.87 L 397.75,380.36 C395.96,380.08 392.70,380.45 390.50,381.18 C387.33,382.23 386.04,383.42 384.25,386.96 C382.11,391.20 382.00,392.57 382.00,414.21 L 382.00,437.00 L 372.00,437.00 L 362.00,437.00 L 362.00,408.50 M 736.00,408.50 L 736.00,380.00 L 732.00,380.00 L 728.00,380.00 L 728.00,373.00 L 728.00,366.00 L 738.01,366.00 L 748.02,366.00 L 749.62,370.00 C751.45,374.59 751.98,374.79 754.60,371.89 C758.15,367.96 764.11,365.69 772.13,365.21 C782.35,364.60 788.49,366.64 793.81,372.41 C799.37,378.44 800.00,382.50 800.00,412.05 L 800.00,437.00 L 790.00,437.00 L 780.00,437.00 L 780.00,412.45 C780.00,386.43 779.53,383.42 775.06,381.03 C772.27,379.54 765.35,379.77 762.07,381.46 C756.78,384.20 756.00,388.38 756.00,414.02 L 756.00,437.00 L 746.00,437.00 L 736.00,437.00 L 736.00,408.50 M 889.00,408.56 L 889.00,380.11 L 884.75,379.81 L 880.50,379.50 L 880.50,373.00 L 880.50,366.50 L 890.63,366.22 L 900.76,365.93 L 902.39,370.01 L 904.02,374.09 L 907.29,371.59 C913.48,366.87 918.96,365.04 927.00,365.03 C938.73,365.01 946.84,369.58 950.45,378.23 C951.72,381.27 952.00,386.88 952.00,409.47 L 952.00,437.00 L 942.56,437.00 L 933.12,437.00 L 932.81,411.75 C932.48,384.74 932.22,383.33 927.26,381.07 C923.88,379.53 918.38,379.75 914.87,381.57 C909.56,384.31 909.00,387.36 909.00,413.47 L 909.00,437.00 L 899.00,437.00 L 889.00,437.00 L 889.00,408.56 M 628.02,356.30 C618.52,351.38 621.37,337.50 632.14,336.29 C636.19,335.83 637.10,336.12 640.11,338.80 C643.12,341.49 643.50,342.41 643.50,346.90 C643.50,350.99 643.01,352.44 640.95,354.51 C637.56,357.90 632.48,358.60 628.02,356.30 M 855.21,356.54 C847.98,353.29 847.44,342.14 854.30,337.96 C859.28,334.92 863.59,335.39 867.60,339.40 C870.36,342.16 871.00,343.57 871.00,346.88 C871.00,354.95 862.82,359.95 855.21,356.54 M 298.00,299.37 C271.94,296.06 252.48,289.50 233.04,277.47 C198.00,255.80 173.99,221.81 164.84,180.94 C162.80,171.85 162.50,167.84 162.50,150.00 C162.50,127.33 163.98,117.71 170.19,100.12 C183.24,63.14 211.92,31.23 247.06,14.58 C268.99,4.20 286.24,0.49 312.50,0.53 C338.60,0.56 355.95,4.54 378.50,15.65 C441.88,46.86 474.69,118.71 456.98,187.50 C442.53,243.63 395.68,287.12 338.50,297.48 C329.64,299.08 304.84,300.24 298.00,299.37 M 355.75,251.01 C356.74,251.00 357.00,238.53 357.00,192.00 L 357.00,133.00 L 352.50,133.00 L 348.00,133.00 L 348.00,191.92 C348.00,254.16 347.87,252.46 352.50,251.46 C353.60,251.22 355.06,251.02 355.75,251.01 M 333.00,191.00 L 333.00,133.00 L 326.50,133.00 L 320.00,133.00 L 320.00,189.36 L 320.00,245.71 L 325.25,247.24 C328.14,248.08 331.06,248.82 331.75,248.88 C332.74,248.98 333.00,236.80 333.00,191.00 M 375.42,248.39 C376.84,247.85 377.00,241.80 377.00,190.33 L 377.00,132.87 L 374.25,133.18 L 371.50,133.50 L 371.24,191.25 C370.97,252.69 370.78,250.17 375.42,248.39 M 308.00,187.47 L 308.00,132.93 L 297.25,133.22 L 286.50,133.50 L 286.50,185.41 L 286.50,237.33 L 296.00,239.53 C301.23,240.75 306.06,241.80 306.75,241.87 C307.74,241.97 308.00,230.50 308.00,187.47 M 276.00,184.50 L 276.00,133.00 L 260.50,133.00 L 245.00,133.00 L 245.00,182.85 L 245.00,232.70 L 259.75,234.20 C267.86,235.02 274.84,235.76 275.25,235.85 C275.66,235.93 276.00,212.82 276.00,184.50 M 375.62,123.75 C373.15,114.75 373.77,108.61 377.63,104.03 L 380.18,101.00 L 311.59,101.00 C273.87,101.00 243.01,101.34 243.02,101.75 C243.03,102.16 244.14,103.55 245.49,104.82 C249.21,108.36 249.85,114.75 247.38,123.75 L 246.77,126.00 L 311.50,126.00 L 376.23,126.00 L 375.62,123.75 M 399.81,89.25 L 400.13,86.00 L 311.06,86.00 L 222.00,86.00 L 222.00,88.83 C222.00,90.39 222.30,91.97 222.67,92.34 C223.04,92.71 262.98,92.90 311.42,92.76 L 399.50,92.50 L 399.81,89.25 M 407.79,72.25 L 408.08,64.00 L 312.04,64.00 L 216.00,64.00 L 216.00,72.51 L 216.00,81.01 L 311.75,80.76 L 407.50,80.50 L 407.79,72.25 Z" fill="rgba(0,0,0,1)"/>
</g>
</svg>