<svg xmlns="http://www.w3.org/2000/svg" width="262" height="192" viewBox="0 0 262 192">
<g>
<path d="M 1.00,95.50 L 1.00,1.00 L 131.00,1.00 L 261.00,1.00 L 261.00,32.50 L 261.00,64.00 L 163.50,64.00 L 66.00,64.00 L 66.00,95.50 L 66.00,127.00 L 163.50,127.00 L 261.00,127.00 L 261.00,158.50 L 261.00,190.00 L 131.00,190.00 L 1.00,190.00 L 1.00,95.50 M 101.50,119.79 C97.27,117.36 97.06,116.27 97.03,95.34 L 97.00,75.18 L 100.08,72.59 C102.45,70.59 104.25,70.00 107.97,70.00 C115.09,70.00 117.24,72.16 117.80,79.85 L 118.24,86.00 L 114.12,86.00 L 110.00,86.00 L 110.00,81.56 C110.00,76.83 109.16,75.62 106.57,76.61 C105.15,77.16 104.99,79.49 105.23,95.87 C105.49,113.74 105.58,114.50 107.50,114.50 C109.25,114.50 109.54,113.73 109.80,108.25 L 110.10,102.00 L 114.05,102.00 L 118.00,102.00 L 118.00,109.05 C118.00,115.38 117.73,116.34 115.35,118.55 C113.33,120.43 111.63,120.99 108.10,120.97 C105.57,120.95 102.60,120.42 101.50,119.79 M 125.92,118.08 L 123.00,115.15 L 123.00,95.50 L 123.00,75.85 L 125.92,72.92 C128.39,70.45 129.64,70.00 133.97,70.00 C138.07,70.00 139.58,70.49 141.55,72.45 C143.99,74.90 144.00,74.97 144.00,95.50 C144.00,116.03 143.99,116.10 141.55,118.55 C139.58,120.51 138.07,121.00 133.97,121.00 C129.64,121.00 128.39,120.55 125.92,118.08 M 135.77,95.99 C136.05,77.33 135.56,74.46 132.54,76.96 C131.26,78.03 131.00,81.16 131.00,95.42 C131.00,112.37 131.59,115.64 134.46,114.68 C135.12,114.46 135.60,107.53 135.77,95.99 M 152.53,118.63 C150.13,116.22 148.50,109.59 149.16,104.91 C149.45,102.86 150.13,102.45 153.75,102.19 L 158.00,101.89 L 158.00,107.88 C158.00,111.18 158.47,114.17 159.04,114.53 C161.17,115.84 163.00,112.78 163.00,107.91 C163.00,103.30 162.70,102.77 156.63,96.67 C151.23,91.25 150.16,89.58 149.58,85.69 C148.72,79.94 150.38,73.55 153.25,71.54 C154.53,70.64 157.58,70.00 160.55,70.00 C167.44,70.00 170.15,72.78 170.79,80.49 L 171.25,86.00 L 167.12,86.00 C163.00,86.00 163.00,86.00 163.00,82.12 C163.00,78.19 160.97,75.28 159.04,76.47 C158.47,76.83 158.00,79.16 158.00,81.65 C158.00,85.84 158.46,86.65 164.25,92.68 L 170.49,99.18 L 170.85,107.06 C171.20,114.71 171.12,115.03 168.18,117.97 C165.60,120.55 164.40,121.00 160.03,121.00 C155.97,121.00 154.42,120.51 152.53,118.63 M 178.71,120.38 C178.32,119.99 178.00,109.84 178.00,97.83 L 178.00,76.00 L 175.50,76.00 C173.39,76.00 173.00,75.53 173.00,73.00 L 173.00,70.00 L 182.50,70.00 L 192.00,70.00 L 192.00,73.00 C192.00,75.53 191.61,76.00 189.52,76.00 L 187.04,76.00 L 186.77,98.25 L 186.50,120.50 L 182.96,120.80 C181.02,120.96 179.11,120.77 178.71,120.38 M 192.01,119.75 C192.01,119.61 193.36,108.93 195.00,96.00 C196.64,83.07 197.99,71.94 197.99,71.25 C198.00,70.39 199.85,70.00 203.91,70.00 L 209.82,70.00 L 210.41,73.75 C211.07,77.94 216.00,118.08 216.00,119.25 C216.00,119.66 214.25,120.00 212.11,120.00 C207.80,120.00 207.00,118.98 207.00,113.42 C207.00,110.31 206.73,110.00 204.11,110.00 C200.88,110.00 200.00,111.41 200.00,116.58 C200.00,119.90 199.89,120.00 196.00,120.00 C193.80,120.00 192.00,119.89 192.01,119.75 M 205.50,94.75 C204.20,78.00 203.47,76.16 202.65,87.50 C202.25,93.00 201.66,98.96 201.35,100.75 C200.82,103.76 200.98,104.00 203.49,104.00 L 206.21,104.00 L 205.50,94.75 M 221.00,95.00 L 221.00,70.00 L 225.00,70.00 L 229.00,70.00 L 229.00,95.00 L 229.00,120.00 L 225.00,120.00 L 221.00,120.00 L 221.00,95.00 M 237.00,94.95 L 237.00,69.89 L 241.73,70.20 L 246.45,70.50 L 250.15,86.50 L 253.84,102.50 L 253.92,86.25 L 254.00,70.00 L 257.50,70.00 L 261.00,70.00 L 261.00,95.00 L 261.00,120.00 L 256.58,120.00 L 252.17,120.00 L 248.67,105.25 C246.74,97.14 244.93,89.60 244.64,88.50 C244.35,87.40 244.37,94.04 244.68,103.25 L 245.24,120.00 L 241.12,120.00 L 237.00,120.00 L 237.00,94.95 M 243.66,82.75 C243.38,82.06 243.16,82.62 243.16,84.00 C243.16,85.38 243.38,85.94 243.66,85.25 C243.94,84.56 243.94,83.44 243.66,82.75 Z" fill="rgba(0,0,0,1)"/>
</g>
</svg>