<?xml version="1.0" encoding="UTF-8"?>
<!DOCTYPE svg PUBLIC "-//W3C//DTD SVG 1.1//EN" "http://www.w3.org/Graphics/SVG/1.1/DTD/svg11.dtd">
<svg xmlns="http://www.w3.org/2000/svg" version="1.1" width="866px" height="446px" style="shape-rendering:geometricPrecision; text-rendering:geometricPrecision; image-rendering:optimizeQuality; fill-rule:evenodd; clip-rule:evenodd" xmlns:xlink="http://www.w3.org/1999/xlink">
<g><path style="opacity:0.926" fill="#000000" d="M 501.5,108.5 C 510.839,108.334 520.173,108.5 529.5,109C 534.821,109.108 539.654,110.608 544,113.5C 542.645,123.566 537.812,131.733 529.5,138C 524.725,141.721 519.391,144.388 513.5,146C 486.165,143.928 463.998,153.428 447,174.5C 441.735,182.7 436.735,191.033 432,199.5C 431.682,151.01 454.848,120.677 501.5,108.5 Z"/></g>
<g><path style="opacity:0.928" fill="#000000" d="M 567.5,116.5 C 570.291,136.68 565.125,155.013 552,171.5C 527.032,200.664 496.032,209.664 459,198.5C 458.335,193.819 459.335,189.486 462,185.5C 468.074,176.432 476.24,169.932 486.5,166C 524.581,167.306 551.581,150.806 567.5,116.5 Z"/></g>
<g><path style="opacity:0.934" fill="#000000" d="M 374.5,198.5 C 382.571,198.137 390.571,198.637 398.5,200C 401.566,211.005 397.566,214.505 386.5,210.5C 383.421,210.8 380.921,212.133 379,214.5C 377.661,221.426 377.161,228.426 377.5,235.5C 383.833,235.5 390.167,235.5 396.5,235.5C 396.793,239.437 396.46,243.27 395.5,247C 391.167,247.333 386.833,247.667 382.5,248C 380.598,248.199 379.098,249.033 378,250.5C 377.5,269.497 377.333,288.497 377.5,307.5C 372.167,307.5 366.833,307.5 361.5,307.5C 361.5,287.5 361.5,267.5 361.5,247.5C 357.818,247.665 354.152,247.499 350.5,247C 349.167,243.667 349.167,240.333 350.5,237C 354.06,235.763 357.727,235.263 361.5,235.5C 361.13,227.097 361.63,218.764 363,210.5C 365.045,204.624 368.878,200.624 374.5,198.5 Z"/></g>
<g><path style="opacity:0.941" fill="#000000" d="M 569.5,198.5 C 599.841,198.167 630.174,198.5 660.5,199.5C 659.567,203.429 659.234,207.429 659.5,211.5C 649.833,211.5 640.167,211.5 630.5,211.5C 630.5,242.833 630.5,274.167 630.5,305.5C 624.833,305.5 619.167,305.5 613.5,305.5C 613.5,274.167 613.5,242.833 613.5,211.5C 603.833,211.5 594.167,211.5 584.5,211.5C 584.5,242.833 584.5,274.167 584.5,305.5C 579.5,305.5 574.5,305.5 569.5,305.5C 569.778,303.654 569.111,302.32 567.5,301.5C 559.415,306.189 550.749,308.022 541.5,307C 531.818,303.638 525.985,296.805 524,286.5C 521.797,274.758 522.131,263.091 525,251.5C 533.77,231.394 547.936,226.727 567.5,237.5C 569.081,224.55 569.748,211.55 569.5,198.5 Z M 549.5,246.5 C 556.436,245.86 562.936,247.194 569,250.5C 569.667,263.167 569.667,275.833 569,288.5C 561.781,293.021 554.281,293.854 546.5,291C 542.908,287.984 540.742,284.151 540,279.5C 539.178,271.445 539.512,263.445 541,255.5C 542.714,251.29 545.547,248.29 549.5,246.5 Z"/></g>
<g><path style="opacity:0.932" fill="#000000" d="M 256.5,201.5 C 261.167,201.5 265.833,201.5 270.5,201.5C 270.5,236.833 270.5,272.167 270.5,307.5C 265.352,308.074 260.518,307.407 256,305.5C 255.18,270.792 255.347,236.125 256.5,201.5 Z"/></g>
<g><path style="opacity:0.933" fill="#000000" d="M 293.5,201.5 C 297.833,201.5 302.167,201.5 306.5,201.5C 306.5,236.833 306.5,272.167 306.5,307.5C 301.57,307.803 296.737,307.469 292,306.5C 291.316,271.421 291.816,236.421 293.5,201.5 Z"/></g>
<g><path style="opacity:0.905" fill="#000000" d="M 124.5,205.5 C 138.128,204.558 151.462,206.058 164.5,210C 165.624,210.839 166.291,212.006 166.5,213.5C 166.146,216.251 165.479,218.917 164.5,221.5C 163.333,221.833 162.167,222.167 161,222.5C 150.634,219.91 140.134,219.077 129.5,220C 119.479,223.365 113.812,230.365 112.5,241C 111.068,251.861 111.235,262.695 113,273.5C 116.473,286.495 124.973,293.162 138.5,293.5C 143.286,292.986 147.953,291.986 152.5,290.5C 152.703,280.129 153.203,269.795 154,259.5C 159.072,258.529 164.238,258.195 169.5,258.5C 169.833,272.183 169.499,285.85 168.5,299.5C 152.029,307.028 135.029,308.861 117.5,305C 105.242,298.015 97.7424,287.515 95,273.5C 92.3465,258.564 93.3465,243.897 98,229.5C 103.276,217.465 112.11,209.465 124.5,205.5 Z"/></g>
<g><path style="opacity:0.917" fill="#000000" d="M 517.5,233.5 C 518.995,233.415 519.995,234.081 520.5,235.5C 519.561,239.765 519.228,244.098 519.5,248.5C 511.983,248.975 504.65,250.308 497.5,252.5C 497.5,270.833 497.5,289.167 497.5,307.5C 492.5,307.5 487.5,307.5 482.5,307.5C 482.287,283.488 482.62,259.488 483.5,235.5C 487.846,235.334 492.179,235.501 496.5,236C 497.071,237.205 497.738,238.372 498.5,239.5C 504.617,236.395 510.95,234.395 517.5,233.5 Z"/></g>
<g><path style="opacity:0.958" fill="#000000" d="M 693.5,233.5 C 695.442,238.056 696.108,243.056 695.5,248.5C 688.604,248.747 681.938,250.08 675.5,252.5C 674.5,270.821 674.167,289.155 674.5,307.5C 669.5,307.5 664.5,307.5 659.5,307.5C 659.5,283.5 659.5,259.5 659.5,235.5C 664.167,235.5 668.833,235.5 673.5,235.5C 673.222,237.346 673.889,238.68 675.5,239.5C 681.294,236.457 687.294,234.457 693.5,233.5 Z"/></g>
<g><path style="opacity:0.892" fill="#000000" d="M 205.5,234.5 C 212.175,234.334 218.842,234.5 225.5,235C 229.24,236.29 232.407,238.457 235,241.5C 236.895,247.34 237.895,253.34 238,259.5C 238.733,274.851 238.566,290.185 237.5,305.5C 233.154,305.666 228.821,305.499 224.5,305C 223.663,303.989 223.33,302.822 223.5,301.5C 217.855,303.318 212.188,305.152 206.5,307C 198.272,308.796 191.772,306.296 187,299.5C 180.939,287.212 182.772,276.379 192.5,267C 202.189,263.592 212.189,262.092 222.5,262.5C 224.345,252.688 220.345,247.688 210.5,247.5C 203.628,248.917 196.795,249.251 190,248.5C 189.216,245.24 189.383,242.073 190.5,239C 195.414,236.747 200.414,235.247 205.5,234.5 Z M 221.5,272.5 C 222.497,272.47 223.164,272.97 223.5,274C 222.9,279.495 222.233,284.995 221.5,290.5C 217.115,292.352 212.615,293.685 208,294.5C 200.54,293.263 197.873,288.929 200,281.5C 200.785,279.714 201.951,278.214 203.5,277C 209.483,274.956 215.483,273.456 221.5,272.5 Z"/></g>
<g><path style="opacity:0.899" fill="#000000" d="M 425.5,234.5 C 443.991,231.985 456.491,239.318 463,256.5C 467.557,272.601 465.224,287.601 456,301.5C 449.719,308.835 441.719,311.835 432,310.5C 423.338,311.391 416.005,308.725 410,302.5C 406.937,298.431 404.27,294.098 402,289.5C 399.815,277.426 400.148,265.426 403,253.5C 407.542,243.503 415.042,237.17 425.5,234.5 Z M 427.5,247.5 C 438.674,245.836 445.508,250.502 448,261.5C 448.831,269.888 448.497,278.221 447,286.5C 442.326,296.435 434.826,299.268 424.5,295C 420.855,291.547 418.355,287.38 417,282.5C 416.333,275.5 416.333,268.5 417,261.5C 418.359,255.07 421.859,250.403 427.5,247.5 Z"/></g>
<g><path style="opacity:0.896" fill="#000000" d="M 707.5,234.5 C 712.762,234.195 717.928,234.529 723,235.5C 728.804,251.245 734.804,266.912 741,282.5C 747.723,266.952 753.223,250.952 757.5,234.5C 761.833,234.5 766.167,234.5 770.5,234.5C 768.261,245.721 765.095,256.721 761,267.5C 754.177,288.638 746.177,309.305 737,329.5C 735.5,331 734,332.5 732.5,334C 725.263,336.381 717.93,336.881 710.5,335.5C 708.976,331.73 709.309,328.23 711.5,325C 715.619,324.857 719.619,324.19 723.5,323C 727.608,317.452 730.942,311.452 733.5,305C 724.648,282.126 715.648,259.292 706.5,236.5C 706.863,235.817 707.196,235.15 707.5,234.5 Z"/></g>
<g><path style="opacity:0.958" fill="#000000" d="M 325.5,237.5 C 329.571,237.234 333.571,237.567 337.5,238.5C 338.5,261.49 338.833,284.49 338.5,307.5C 333.833,307.5 329.167,307.5 324.5,307.5C 324.639,291.99 324.305,276.49 323.5,261C 323.658,253.098 324.325,245.265 325.5,237.5 Z"/></g>
</svg>
