<?xml version="1.0" encoding="UTF-8"?>
<!DOCTYPE svg PUBLIC "-//W3C//DTD SVG 1.1//EN" "http://www.w3.org/Graphics/SVG/1.1/DTD/svg11.dtd">
<svg xmlns="http://www.w3.org/2000/svg" version="1.1" width="433px" height="174px" style="shape-rendering:geometricPrecision; text-rendering:geometricPrecision; image-rendering:optimizeQuality; fill-rule:evenodd; clip-rule:evenodd" xmlns:xlink="http://www.w3.org/1999/xlink">
<g><path style="opacity:0.9" fill="#000000" d="M 88.5,31.5 C 121.173,31.1668 153.84,31.5001 186.5,32.5C 178.5,41.1667 170.167,49.5 161.5,57.5C 160.513,54.2317 160.18,50.8984 160.5,47.5C 141.833,47.5 123.167,47.5 104.5,47.5C 104.5,66.5 104.5,85.5 104.5,104.5C 106.591,104.318 108.591,104.652 110.5,105.5C 111.583,106.365 111.749,107.365 111,108.5C 103.986,115.681 96.819,122.681 89.5,129.5C 88.5001,96.8401 88.1668,64.1735 88.5,31.5 Z"/></g>
<g><path style="opacity:0.89" fill="#000000" d="M 108.5,51.5 C 125.167,51.5 141.833,51.5 158.5,51.5C 158.336,54.1873 158.503,56.854 159,59.5C 161.719,60.4438 164.552,60.7771 167.5,60.5C 167.5,77.1667 167.5,93.8333 167.5,110.5C 150.833,110.5 134.167,110.5 117.5,110.5C 117.664,107.813 117.497,105.146 117,102.5C 114.281,101.556 111.448,101.223 108.5,101.5C 108.5,84.8333 108.5,68.1667 108.5,51.5 Z M 147.5,62.5 C 150.5,62.5 153.5,62.5 156.5,62.5C 157.748,69.5874 154.748,72.9207 147.5,72.5C 146.607,75.0841 146.274,77.7508 146.5,80.5C 139.627,79.2082 136.293,82.0415 136.5,89C 133.905,89.2256 131.405,89.7256 129,90.5C 128.223,87.5706 128.39,84.7372 129.5,82C 136.5,82.3333 139.833,79 139.5,72C 142.095,71.7744 144.595,71.2744 147,70.5C 147.497,67.854 147.664,65.1873 147.5,62.5 Z M 120.5,91.5 C 122.857,91.3367 125.19,91.5034 127.5,92C 126.833,94.3333 126.167,96.6667 125.5,99C 119.593,99.7465 117.927,97.2465 120.5,91.5 Z"/></g>
<g><path style="opacity:0.778" fill="#000000" d="M 173.5,60.5 C 181.889,60.1968 190.222,60.5301 198.5,61.5C 198.833,61.8333 199.167,62.1667 199.5,62.5C 195.027,68.0601 193.527,74.3935 195,81.5C 200.468,77.0334 205.635,72.2 210.5,67C 208.981,65.6487 207.648,64.1487 206.5,62.5C 207.376,61.7492 208.376,61.2492 209.5,61C 215.157,60.5006 220.824,60.3339 226.5,60.5C 226.256,63.2626 224.923,65.4293 222.5,67C 217.211,70.6201 212.211,74.6201 207.5,79C 213.74,89.2367 220.74,98.9034 228.5,108C 228.095,108.945 227.428,109.612 226.5,110C 221.833,110.667 217.167,110.667 212.5,110C 207.456,102.745 202.289,95.5784 197,88.5C 194.031,93.2455 193.698,98.2455 196,103.5C 199.195,104.851 201.028,107.185 201.5,110.5C 193.198,112.159 185.031,111.826 177,109.5C 177.747,107.024 179.081,104.691 181,102.5C 181.667,90.8333 181.667,79.1667 181,67.5C 177.954,65.6169 175.454,63.2836 173.5,60.5 Z"/></g>
<g><path style="opacity:0.809" fill="#000000" d="M 231.5,60.5 C 238.543,60.2803 245.543,60.6136 252.5,61.5C 252.716,63.6807 251.883,65.3474 250,66.5C 248.439,79.1541 248.272,91.8208 249.5,104.5C 252.672,105.331 254.338,107.331 254.5,110.5C 246.833,110.5 239.167,110.5 231.5,110.5C 231.918,107.235 233.085,104.235 235,101.5C 236,91.5111 236.333,81.5111 236,71.5C 234.414,68.0809 232.248,65.0809 229.5,62.5C 230.243,61.8182 230.909,61.1515 231.5,60.5 Z"/></g>
<g><path style="opacity:0.771" fill="#000000" d="M 258.5,60.5 C 269.838,60.3335 281.172,60.5001 292.5,61C 293.464,65.0659 293.797,69.2325 293.5,73.5C 292.448,73.6495 291.448,73.4828 290.5,73C 288.711,70.7206 286.711,68.7206 284.5,67C 281.183,66.5017 277.85,66.335 274.5,66.5C 274.5,71.1667 274.5,75.8333 274.5,80.5C 276.527,80.6621 278.527,80.4955 280.5,80C 287.133,73.1746 289.799,74.6746 288.5,84.5C 288.333,87.1667 288.167,89.8333 288,92.5C 287.586,92.9574 287.086,93.2907 286.5,93.5C 284.937,92.0552 283.604,90.3885 282.5,88.5C 280.119,86.6041 277.619,86.2708 275,87.5C 274.501,92.8229 274.334,98.1563 274.5,103.5C 281.329,104.886 286.995,103.053 291.5,98C 293.025,96.9914 294.692,96.4914 296.5,96.5C 297.464,102.739 295.131,107.239 289.5,110C 278.505,110.5 267.505,110.667 256.5,110.5C 258.177,107.299 259.677,103.965 261,100.5C 261.906,89.4409 261.573,78.4409 260,67.5C 257.654,66.3822 255.821,64.7155 254.5,62.5C 255.949,61.8281 257.282,61.1614 258.5,60.5 Z"/></g>
<g><path style="opacity:0.795" fill="#000000" d="M 298.5,60.5 C 309.881,60.1445 321.215,60.6445 332.5,62C 337.228,63.3956 339.728,66.5623 340,71.5C 340.667,73.8333 340.667,76.1667 340,78.5C 337.66,82.006 334.826,85.006 331.5,87.5C 335.441,93.7736 340.108,99.4403 345.5,104.5C 346.833,106.167 346.833,107.833 345.5,109.5C 338.588,112.917 332.755,111.584 328,105.5C 325,100.5 322,95.5 319,90.5C 317.989,89.6634 316.822,89.33 315.5,89.5C 315.191,94.2675 315.691,98.9342 317,103.5C 320.195,104.851 322.028,107.185 322.5,110.5C 314.167,110.5 305.833,110.5 297.5,110.5C 297.351,109.448 297.517,108.448 298,107.5C 299.713,106.122 301.047,104.455 302,102.5C 302.779,91.3102 302.612,80.1435 301.5,69C 300.077,66.7907 298.411,64.7907 296.5,63C 297.056,61.9889 297.722,61.1556 298.5,60.5 Z M 318.5,65.5 C 326.964,67.7184 329.131,72.7184 325,80.5C 322.5,82.5363 319.833,82.8696 317,81.5C 314.559,75.7265 315.059,70.3932 318.5,65.5 Z"/></g>
</svg>
