<?xml version="1.0" encoding="UTF-8"?>
<!DOCTYPE svg PUBLIC "-//W3C//DTD SVG 1.1//EN" "http://www.w3.org/Graphics/SVG/1.1/DTD/svg11.dtd">
<svg xmlns="http://www.w3.org/2000/svg" version="1.1" width="960px" height="511px" style="shape-rendering:geometricPrecision; text-rendering:geometricPrecision; image-rendering:optimizeQuality; fill-rule:evenodd; clip-rule:evenodd" xmlns:xlink="http://www.w3.org/1999/xlink">
<g><path style="opacity:0.966" fill="#000000" d="M -0.5,152.5 C 319.5,152.5 639.5,152.5 959.5,152.5C 959.5,162.167 959.5,171.833 959.5,181.5C 639.5,181.5 319.5,181.5 -0.5,181.5C -0.5,171.833 -0.5,162.167 -0.5,152.5 Z"/></g>
<g><path style="opacity:0.937" fill="#000000" d="M 713.5,241.5 C 729.492,242.135 745.492,242.635 761.5,243C 774.741,246.977 780.241,255.81 778,269.5C 777.436,273.127 775.936,276.293 773.5,279C 776.152,280.065 777.985,281.898 779,284.5C 779.406,290.849 779.906,297.183 780.5,303.5C 774.833,303.5 769.167,303.5 763.5,303.5C 763.879,298.154 763.213,292.987 761.5,288C 750.544,286.681 739.544,286.181 728.5,286.5C 728.5,292.167 728.5,297.833 728.5,303.5C 723.5,303.5 718.5,303.5 713.5,303.5C 713.5,282.833 713.5,262.167 713.5,241.5 Z M 728.5,259.5 C 739.271,259.023 749.938,259.69 760.5,261.5C 761.769,263.695 761.769,265.861 760.5,268C 749.87,269.238 739.203,269.738 728.5,269.5C 728.5,266.167 728.5,262.833 728.5,259.5 Z"/></g>
<g><path style="opacity:0.949" fill="#000000" d="M 33.5,242.5 C 38.8333,242.5 44.1667,242.5 49.5,242.5C 49.5,257.833 49.5,273.167 49.5,288.5C 61.1667,288.5 72.8333,288.5 84.5,288.5C 84.5,293.5 84.5,298.5 84.5,303.5C 67.5895,303.825 50.7561,303.492 34,302.5C 33.5,282.503 33.3334,262.503 33.5,242.5 Z"/></g>
<g><path style="opacity:0.92" fill="#000000" d="M 119.5,242.5 C 126.508,242.334 133.508,242.5 140.5,243C 152.285,262.402 162.618,282.569 171.5,303.5C 165.132,303.83 158.798,303.496 152.5,302.5C 150.901,298.135 148.901,293.969 146.5,290C 135.485,289.168 124.485,289.334 113.5,290.5C 111.5,294.5 109.5,298.5 107.5,302.5C 101.202,303.496 94.8682,303.83 88.5,303.5C 97.5217,282.456 107.855,262.123 119.5,242.5 Z M 129.5,259.5 C 130.458,259.953 131.292,260.619 132,261.5C 134.039,265.745 136.206,269.912 138.5,274C 132.868,275.759 127.201,275.759 121.5,274C 124.572,269.353 127.238,264.52 129.5,259.5 Z"/></g>
<g><path style="opacity:0.945" fill="#000000" d="M 175.5,242.5 C 180.833,242.5 186.167,242.5 191.5,242.5C 191.5,262.833 191.5,283.167 191.5,303.5C 186.167,303.5 180.833,303.5 175.5,303.5C 175.5,283.167 175.5,262.833 175.5,242.5 Z"/></g>
<g><path style="opacity:0.928" fill="#000000" d="M 199.5,242.5 C 207.174,242.334 214.841,242.5 222.5,243C 234.667,255.167 246.833,267.333 259,279.5C 259.5,267.171 259.667,254.838 259.5,242.5C 264.833,242.5 270.167,242.5 275.5,242.5C 275.5,262.833 275.5,283.167 275.5,303.5C 269.158,303.666 262.825,303.5 256.5,303C 243,289.5 229.5,276 216,262.5C 215.5,276.163 215.333,289.829 215.5,303.5C 210.238,303.805 205.072,303.471 200,302.5C 199.5,282.503 199.333,262.503 199.5,242.5 Z"/></g>
<g><path style="opacity:0.913" fill="#000000" d="M 296.5,242.5 C 312.904,242.045 329.237,242.545 345.5,244C 348.937,245.105 351.437,247.272 353,250.5C 354.309,255.066 354.809,259.733 354.5,264.5C 349.489,264.666 344.489,264.499 339.5,264C 338.595,260.818 336.595,258.818 333.5,258C 323.058,255.837 312.725,256.17 302.5,259C 302,259.5 301.5,260 301,260.5C 298.846,268.766 299.013,276.933 301.5,285C 312.378,287.955 323.378,288.288 334.5,286C 337.693,284.974 339.026,282.808 338.5,279.5C 331.5,279.5 324.5,279.5 317.5,279.5C 317.5,274.833 317.5,270.167 317.5,265.5C 330.5,265.5 343.5,265.5 356.5,265.5C 355.913,274.156 355.413,282.822 355,291.5C 354.771,294.458 353.604,296.958 351.5,299C 348.382,300.893 345.049,302.226 341.5,303C 327.128,303.463 312.961,303.63 299,303.5C 291.145,302.413 286.145,298.08 284,290.5C 283.333,279.5 283.333,268.5 284,257.5C 284.792,249.552 288.959,244.552 296.5,242.5 Z"/></g>
<g><path style="opacity:0.905" fill="#000000" d="M 405.5,242.5 C 417.838,242.333 430.171,242.5 442.5,243C 451.667,244.167 456.833,249.333 458,258.5C 458.667,268.167 458.667,277.833 458,287.5C 457.873,295.958 453.706,301.124 445.5,303C 430.521,303.452 415.687,303.618 401,303.5C 393.236,301.06 389.236,295.727 389,287.5C 388.174,276.128 388.508,264.794 390,253.5C 392.681,246.249 397.848,242.583 405.5,242.5 Z M 409.5,259.5 C 419.872,259.24 430.206,259.573 440.5,260.5C 441.783,268.667 441.783,276.834 440.5,285C 440.095,285.945 439.428,286.612 438.5,287C 428.5,287.667 418.5,287.667 408.5,287C 407.692,286.692 407.025,286.192 406.5,285.5C 404.703,277.956 404.536,270.289 406,262.5C 406.985,261.186 408.152,260.186 409.5,259.5 Z"/></g>
<g><path style="opacity:0.846" fill="#000000" d="M 465.5,242.5 C 469.167,242.5 472.833,242.5 476.5,242.5C 475.723,249.819 475.057,257.153 474.5,264.5C 471.833,264.5 469.167,264.5 466.5,264.5C 465.271,257.122 464.937,249.789 465.5,242.5 Z"/></g>
<g><path style="opacity:0.925" fill="#000000" d="M 484.5,242.5 C 500.503,242.333 516.503,242.5 532.5,243C 540.7,244.2 546.2,248.7 549,256.5C 549.667,261.833 549.667,267.167 549,272.5C 547.961,274.746 546.794,276.913 545.5,279C 547.783,280.865 549.616,283.032 551,285.5C 551.499,291.491 551.666,297.491 551.5,303.5C 546.167,303.5 540.833,303.5 535.5,303.5C 535.329,298.804 534.829,294.137 534,289.5C 533.5,289 533,288.5 532.5,288C 521.975,286.28 511.475,286.113 501,287.5C 500.501,292.823 500.334,298.156 500.5,303.5C 495.167,303.5 489.833,303.5 484.5,303.5C 484.5,283.167 484.5,262.833 484.5,242.5 Z M 500.5,259.5 C 508.84,259.334 517.173,259.5 525.5,260C 527.952,260.29 530.285,260.956 532.5,262C 533.833,264 533.833,266 532.5,268C 521.828,269.538 511.161,269.705 500.5,268.5C 500.5,265.5 500.5,262.5 500.5,259.5 Z"/></g>
<g><path style="opacity:0.908" fill="#000000" d="M 573.5,242.5 C 588.211,242.106 602.878,242.606 617.5,244C 623.004,246.836 626.17,251.336 627,257.5C 627.667,268.167 627.667,278.833 627,289.5C 626.822,296.053 623.655,300.219 617.5,302C 601.167,304 584.833,304 568.5,302C 562.643,300.482 559.476,296.648 559,290.5C 558.1,277.452 558.433,264.452 560,251.5C 563.16,246.346 567.66,243.346 573.5,242.5 Z M 578.5,259.5 C 588.938,259.049 599.271,259.549 609.5,261C 612.22,269.534 612.054,278.034 609,286.5C 598.577,287.652 588.077,287.819 577.5,287C 577,286.5 576.5,286 576,285.5C 574.06,277.495 574.06,269.495 576,261.5C 576.995,260.934 577.828,260.267 578.5,259.5 Z"/></g>
<g><path style="opacity:0.911" fill="#000000" d="M 635.5,242.5 C 640.833,242.5 646.167,242.5 651.5,242.5C 652.097,256.493 652.597,270.493 653,284.5C 653.5,285.667 654.333,286.5 655.5,287C 665.167,289 674.833,289 684.5,287C 685.667,286.5 686.5,285.667 687,284.5C 687.949,270.514 688.449,256.514 688.5,242.5C 693.833,242.5 699.167,242.5 704.5,242.5C 704.667,257.837 704.5,273.17 704,288.5C 703.237,295.219 699.737,299.719 693.5,302C 686.212,303.041 678.878,303.541 671.5,303.5C 664.877,303.086 658.377,303.086 652,303.5C 643.534,302.365 638.201,297.698 636,289.5C 635.5,273.837 635.333,258.17 635.5,242.5 Z"/></g>
<g><path style="opacity:0.908" fill="#000000" d="M 787.5,242.5 C 792.833,242.5 798.167,242.5 803.5,242.5C 803.17,249.532 803.503,256.532 804.5,263.5C 816.299,257.434 827.632,250.601 838.5,243C 845.826,242.5 853.159,242.334 860.5,242.5C 860.719,243.675 860.386,244.675 859.5,245.5C 847.361,253.806 835.361,262.306 823.5,271C 834.316,280.239 845.316,289.239 856.5,298C 858.607,299.264 859.607,301.097 859.5,303.5C 852.825,303.666 846.158,303.5 839.5,303C 830.833,296 822.167,289 813.5,282C 810.52,279.676 807.187,278.176 803.5,277.5C 803.5,286.167 803.5,294.833 803.5,303.5C 798.238,303.805 793.072,303.471 788,302.5C 787.5,282.503 787.333,262.503 787.5,242.5 Z"/></g>
<g><path style="opacity:0.914" fill="#000000" d="M 864.5,242.5 C 884.833,242.5 905.167,242.5 925.5,242.5C 925.5,247.5 925.5,252.5 925.5,257.5C 910.5,257.5 895.5,257.5 880.5,257.5C 880.5,260.167 880.5,262.833 880.5,265.5C 894.833,265.5 909.167,265.5 923.5,265.5C 923.5,270.167 923.5,274.833 923.5,279.5C 909.167,279.5 894.833,279.5 880.5,279.5C 880.5,282.5 880.5,285.5 880.5,288.5C 895.5,288.5 910.5,288.5 925.5,288.5C 925.5,293.5 925.5,298.5 925.5,303.5C 905.497,303.667 885.497,303.5 865.5,303C 864.507,282.909 864.173,262.743 864.5,242.5 Z"/></g>
<g><path style="opacity:0.966" fill="#000000" d="M -0.5,364.5 C 319.5,364.5 639.5,364.5 959.5,364.5C 959.5,374.167 959.5,383.833 959.5,393.5C 639.5,393.5 319.5,393.5 -0.5,393.5C -0.5,383.833 -0.5,374.167 -0.5,364.5 Z"/></g>
</svg>
