<svg xmlns="http://www.w3.org/2000/svg" width="265" height="190" viewBox="0 0 265 190">
<g>
<path d="M 129.50,187.53 C127.30,186.71 125.42,186.02 125.33,186.02 C125.23,186.01 98.52,165.53 65.97,140.50 C16.11,102.17 7.26,95.00 9.81,95.00 C12.44,95.00 15.60,92.21 33.17,74.37 C44.35,63.03 54.94,53.13 56.71,52.38 C59.58,51.15 63.65,51.52 95.71,55.95 C115.39,58.67 153.32,63.85 180.00,67.47 C206.68,71.08 229.79,74.30 231.36,74.62 C234.13,75.19 234.15,75.24 232.09,76.35 C230.92,76.98 214.39,100.00 195.36,127.50 C176.33,155.00 159.35,179.00 157.63,180.84 C155.91,182.67 152.70,185.10 150.50,186.24 C145.28,188.93 134.92,189.57 129.50,187.53 M 56.82,107.25 C57.03,105.75 56.62,105.00 55.60,105.00 C54.34,105.00 54.02,103.13 53.78,94.25 C53.50,83.53 53.49,83.50 51.00,83.50 C48.50,83.50 48.50,83.52 48.21,94.37 C47.99,103.00 48.26,105.75 49.53,107.68 C51.63,110.89 56.34,110.61 56.82,107.25 M 72.20,108.20 C72.67,107.73 72.79,106.62 72.45,105.74 C72.01,104.58 70.99,104.29 68.63,104.67 C66.40,105.03 65.00,104.70 64.08,103.60 C62.90,102.17 63.30,102.00 67.88,102.00 L 73.00,102.00 L 73.00,98.00 C73.00,90.50 65.65,87.26 60.45,92.45 C58.56,94.35 58.00,95.96 58.00,99.52 C58.00,104.92 59.28,107.75 62.32,109.04 C64.74,110.07 70.85,109.55 72.20,108.20 M 109.15,108.40 C109.62,108.12 110.00,102.28 110.00,95.44 L 110.00,83.00 L 107.50,83.00 C105.31,83.00 105.00,83.43 105.00,86.50 C105.00,89.78 104.79,90.00 101.75,90.02 C99.96,90.02 98.00,90.36 97.40,90.77 C92.47,94.06 93.05,106.82 98.24,109.01 C100.38,109.91 107.33,109.53 109.15,108.40 M 121.80,107.38 C122.01,105.93 121.45,105.09 120.05,104.72 C118.15,104.23 118.00,103.44 118.00,93.59 L 118.00,83.00 L 115.50,83.00 L 113.00,83.00 L 113.00,94.67 C113.00,104.25 113.30,106.68 114.70,108.22 C116.98,110.75 121.40,110.23 121.80,107.38 M 135.36,109.05 C137.15,108.37 137.70,107.57 137.33,106.16 C136.91,104.54 136.19,104.30 133.06,104.72 C130.20,105.10 129.15,104.84 128.68,103.61 C128.16,102.26 128.87,102.00 133.03,102.00 L 138.00,102.00 L 138.00,98.00 C138.00,92.91 135.30,90.00 130.57,90.00 C125.74,90.00 123.00,93.69 123.00,100.18 C123.00,108.08 128.17,111.79 135.36,109.05 M 152.96,108.87 L 156.21,107.73 L 155.83,100.94 C155.38,92.96 153.41,89.99 148.60,90.01 C143.20,90.04 141.00,91.05 141.00,93.49 C141.00,95.58 141.34,95.72 145.50,95.25 C148.91,94.86 150.00,95.08 150.00,96.12 C150.00,96.95 148.75,97.59 146.86,97.72 C139.63,98.23 137.46,105.38 143.50,108.81 C146.07,110.26 148.89,110.28 152.96,108.87 M 170.54,107.97 C172.10,106.67 172.47,102.29 171.20,100.29 C170.78,99.62 168.74,98.37 166.67,97.51 C162.22,95.65 162.65,93.91 167.37,94.67 C169.95,95.09 170.86,94.82 171.38,93.46 C172.25,91.18 171.92,90.93 167.10,90.29 C161.38,89.52 157.77,91.96 158.19,96.31 C158.45,98.97 159.21,99.83 162.75,101.47 C168.07,103.95 168.22,105.43 163.07,104.74 C159.28,104.23 158.00,105.06 158.00,108.01 C158.00,110.19 167.90,110.16 170.54,107.97 M 186.36,109.05 C188.15,108.37 188.70,107.57 188.33,106.16 C187.91,104.54 187.19,104.30 184.06,104.72 C181.20,105.10 180.15,104.84 179.68,103.61 C179.16,102.26 179.87,102.00 184.03,102.00 L 189.00,102.00 L 189.00,98.00 C189.00,90.50 181.65,87.26 176.45,92.45 C174.56,94.35 174.00,95.96 174.00,99.52 C174.00,104.94 175.29,107.78 178.32,108.99 C181.24,110.17 183.37,110.19 186.36,109.05 M 81.00,102.00 C81.00,95.20 81.07,95.00 83.50,95.00 C85.93,95.00 86.00,95.20 86.00,102.00 L 86.00,109.00 L 89.00,109.00 L 92.00,109.00 L 92.00,102.13 C92.00,93.41 89.79,89.99 84.18,90.01 C76.13,90.04 76.00,90.20 76.00,100.12 C76.00,108.93 76.02,109.00 78.50,109.00 C80.93,109.00 81.00,108.80 81.00,102.00 M 193.41,135.45 C200.44,124.56 231.61,80.18 233.23,78.75 C235.78,76.51 240.20,76.51 242.86,78.75 C244.00,79.71 248.34,88.38 252.50,98.00 C256.66,107.62 260.96,116.19 262.06,117.03 C263.91,118.44 261.54,119.23 229.28,127.91 C210.15,133.06 193.83,137.52 193.00,137.84 C191.84,138.28 191.93,137.74 193.41,135.45 M 5.02,91.74 C0.14,89.22 0.19,87.78 6.72,45.34 C10.84,18.57 12.55,4.94 11.97,3.42 C11.11,1.17 14.20,2.87 84.68,43.58 C94.14,49.03 101.31,53.63 100.63,53.79 C99.95,53.94 91.32,52.93 81.45,51.54 C61.38,48.70 57.83,48.51 54.68,50.12 C53.48,50.73 43.50,60.40 32.50,71.61 C20.04,84.31 11.56,92.19 10.00,92.51 C8.62,92.79 6.38,92.44 5.02,91.74 M 63.68,97.34 C62.61,96.28 65.01,94.07 66.57,94.67 C68.64,95.46 68.33,98.00 66.17,98.00 C65.16,98.00 64.04,97.70 63.68,97.34 M 100.67,104.33 C100.30,103.97 100.00,101.76 100.00,99.44 C100.00,96.50 100.48,95.03 101.59,94.60 C104.21,93.60 105.00,94.86 105.00,100.06 C105.00,104.18 104.70,105.00 103.17,105.00 C102.16,105.00 101.03,104.70 100.67,104.33 M 128.00,97.20 C128.00,95.71 130.24,94.15 131.62,94.69 C133.99,95.59 133.18,98.00 130.50,98.00 C129.12,98.00 128.00,97.64 128.00,97.20 M 145.69,104.36 C144.65,103.32 145.97,102.00 148.06,102.00 C149.13,102.00 150.00,102.67 150.00,103.50 C150.00,104.98 146.93,105.60 145.69,104.36 M 179.68,97.34 C178.61,96.28 181.01,94.07 182.57,94.67 C184.64,95.46 184.33,98.00 182.17,98.00 C181.16,98.00 180.04,97.70 179.68,97.34 Z" fill="rgba(0,0,0,1)"/>
</g>
</svg>