<?xml version="1.0" encoding="UTF-8"?>
<!DOCTYPE svg PUBLIC "-//W3C//DTD SVG 1.1//EN" "http://www.w3.org/Graphics/SVG/1.1/DTD/svg11.dtd">
<svg xmlns="http://www.w3.org/2000/svg" version="1.1" width="799px" height="478px" style="shape-rendering:geometricPrecision; text-rendering:geometricPrecision; image-rendering:optimizeQuality; fill-rule:evenodd; clip-rule:evenodd" xmlns:xlink="http://www.w3.org/1999/xlink">
<g><path style="opacity:0.922" fill="#000000" d="M 406.5,66.5 C 413.841,66.3337 421.174,66.5003 428.5,67C 433.056,67.3888 437.39,68.5555 441.5,70.5C 442.553,71.4383 443.22,72.605 443.5,74C 436.819,92.6914 423.486,102.691 403.5,104C 387.209,102.983 372.876,107.649 360.5,118C 350.135,128.36 341.301,139.86 334,152.5C 331.952,124.766 341.786,102.266 363.5,85C 376.46,75.4102 390.793,69.2435 406.5,66.5 Z"/></g>
<g><path style="opacity:0.917" fill="#000000" d="M 464.5,72.5 C 466.576,99.4097 456.909,121.243 435.5,138C 412.119,156.006 386.286,160.84 358,152.5C 358.193,144.939 361.026,138.439 366.5,133C 373.19,127.429 380.856,123.762 389.5,122C 400.293,121.11 410.96,119.443 421.5,117C 433.326,112.182 443.159,104.682 451,94.5C 456.275,87.612 460.775,80.2787 464.5,72.5 Z"/></g>
<g><path style="opacity:0.934" fill="#000000" d="M 437.5,173.5 C 444.508,173.334 451.508,173.5 458.5,174C 457.503,219.428 457.17,264.928 457.5,310.5C 451.167,310.5 444.833,310.5 438.5,310.5C 438.949,308.023 438.283,306.023 436.5,304.5C 425.378,311.113 413.378,313.613 400.5,312C 390.333,308.5 383.5,301.667 380,291.5C 375.056,273.384 375.389,255.384 381,237.5C 387.829,221.169 399.995,214.336 417.5,217C 423.864,218.684 429.864,221.184 435.5,224.5C 436.951,207.532 437.618,190.532 437.5,173.5 Z M 417.5,234.5 C 423.944,235.035 430.111,236.702 436,239.5C 436.181,255.877 436.681,272.211 437.5,288.5C 410.902,301.545 397.902,293.379 398.5,264C 397.064,253.719 400.064,245.052 407.5,238C 410.776,236.308 414.109,235.141 417.5,234.5 Z"/></g>
<g><path style="opacity:0.872" fill="#000000" d="M 253.5,178.5 C 266.677,177.84 271.51,183.84 268,196.5C 264.723,202.109 259.89,203.942 253.5,202C 246.567,198.628 244.067,193.128 246,185.5C 247.742,182.254 250.242,179.921 253.5,178.5 Z"/></g>
<g><path style="opacity:0.963" fill="#000000" d="M 154.5,181.5 C 161.5,181.5 168.5,181.5 175.5,181.5C 175.5,219.167 175.5,256.833 175.5,294.5C 194.845,294.167 214.178,294.5 233.5,295.5C 232.552,300.435 232.219,305.435 232.5,310.5C 206.5,310.5 180.5,310.5 154.5,310.5C 154.5,267.5 154.5,224.5 154.5,181.5 Z"/></g>
<g><path style="opacity:0.94" fill="#000000" d="M 329.5,216.5 C 338.162,215.663 346.495,216.829 354.5,220C 360.107,224.469 363.273,230.302 364,237.5C 364.5,261.831 364.667,286.164 364.5,310.5C 357.833,310.5 351.167,310.5 344.5,310.5C 344.665,287.118 343.832,263.785 342,240.5C 341.535,239.069 340.701,237.903 339.5,237C 329.055,234.882 318.722,235.382 308.5,238.5C 307.608,262.487 307.274,286.487 307.5,310.5C 300.833,310.5 294.167,310.5 287.5,310.5C 287.5,279.833 287.5,249.167 287.5,218.5C 293.833,218.5 300.167,218.5 306.5,218.5C 306.051,220.977 306.717,222.977 308.5,224.5C 315.454,221.409 322.454,218.742 329.5,216.5 Z"/></g>
<g><path style="opacity:0.905" fill="#000000" d="M 502.5,216.5 C 518.599,213.224 532.099,217.558 543,229.5C 548.932,241.4 551.765,254.066 551.5,267.5C 532.194,268.45 512.86,268.783 493.5,268.5C 492.287,285.275 499.953,294.275 516.5,295.5C 525.955,294.127 535.289,292.127 544.5,289.5C 548.64,292.923 549.974,297.256 548.5,302.5C 531.112,312.348 512.779,314.848 493.5,310C 483.078,305.006 476.578,296.839 474,285.5C 470.123,268.733 471.456,252.399 478,236.5C 483.699,226.618 491.866,219.951 502.5,216.5 Z M 514.5,231.5 C 525.874,233.339 531.541,240.172 531.5,252C 527.351,253.269 523.018,253.935 518.5,254C 510.507,254.5 502.507,254.666 494.5,254.5C 494.965,241.141 501.632,233.474 514.5,231.5 Z"/></g>
<g><path style="opacity:0.947" fill="#000000" d="M 608.5,216.5 C 623.27,213.567 634.103,218.567 641,231.5C 641.242,257.846 641.742,284.179 642.5,310.5C 635.833,310.5 629.167,310.5 622.5,310.5C 622.123,287.354 621.29,264.021 620,240.5C 619.167,238.333 617.667,236.833 615.5,236C 605.978,234.239 596.644,235.072 587.5,238.5C 586.065,262.478 585.398,286.478 585.5,310.5C 578.833,310.5 572.167,310.5 565.5,310.5C 565.5,279.833 565.5,249.167 565.5,218.5C 571.833,218.5 578.167,218.5 584.5,218.5C 584.051,220.977 584.717,222.977 586.5,224.5C 593.729,221.205 601.063,218.538 608.5,216.5 Z"/></g>
<g><path style="opacity:0.952" fill="#000000" d="M 247.5,218.5 C 254.167,218.5 260.833,218.5 267.5,218.5C 267.5,249.167 267.5,279.833 267.5,310.5C 261.167,310.5 254.833,310.5 248.5,310.5C 247.591,279.845 247.257,249.178 247.5,218.5 Z"/></g>
<g><path style="opacity:0.865" fill="#000000" d="M 347.5,332.5 C 358.745,330.289 367.245,333.956 373,343.5C 374.563,351.087 374.896,358.754 374,366.5C 372.353,371.156 369.52,374.989 365.5,378C 345.405,383.973 334.738,376.64 333.5,356C 332.725,344.689 337.392,336.856 347.5,332.5 Z M 350.5,342.5 C 356.156,341.243 359.989,343.243 362,348.5C 362.667,353.833 362.667,359.167 362,364.5C 357.37,372.084 352.37,372.418 347,365.5C 346.333,359.167 346.333,352.833 347,346.5C 348.376,345.295 349.542,343.962 350.5,342.5 Z"/></g>
<g><path style="opacity:0.831" fill="#000000" d="M 486.5,332.5 C 492.969,331.978 499.135,332.978 505,335.5C 505.944,338.347 505.444,340.847 503.5,343C 498.868,342.607 494.201,342.607 489.5,343C 485.5,345 485.5,347 489.5,349C 494.383,350.072 499.05,351.739 503.5,354C 505.049,355.214 506.215,356.714 507,358.5C 509.586,374.248 502.919,381.248 487,379.5C 483.833,379.333 480.667,379.167 477.5,379C 476.584,378.626 475.75,378.126 475,377.5C 474.231,374.901 474.398,372.401 475.5,370C 481.167,369.667 486.833,369.333 492.5,369C 495.346,368.121 496.013,366.454 494.5,364C 489.42,362.196 484.42,360.196 479.5,358C 472.598,350.086 472.932,342.419 480.5,335C 482.611,334.155 484.611,333.322 486.5,332.5 Z"/></g>
<g><path style="opacity:0.93" fill="#000000" d="M 289.5,333.5 C 293.167,333.5 296.833,333.5 300.5,333.5C 300.635,339.181 300.968,344.848 301.5,350.5C 305.833,350.5 310.167,350.5 314.5,350.5C 314.313,344.788 314.646,339.121 315.5,333.5C 319.167,333.5 322.833,333.5 326.5,333.5C 326.5,348.5 326.5,363.5 326.5,378.5C 322.833,378.5 319.167,378.5 315.5,378.5C 315.666,372.158 315.5,365.825 315,359.5C 310.263,360.469 305.43,360.803 300.5,360.5C 300.36,366.536 300.693,372.536 301.5,378.5C 297.5,378.5 293.5,378.5 289.5,378.5C 289.5,363.5 289.5,348.5 289.5,333.5 Z"/></g>
<g><path style="opacity:0.88" fill="#000000" d="M 383.5,333.5 C 387.846,333.334 392.179,333.501 396.5,334C 397,334.5 397.5,335 398,335.5C 400.6,345.299 403.6,354.966 407,364.5C 410.305,354.28 413.138,343.946 415.5,333.5C 420.167,333.5 424.833,333.5 429.5,333.5C 430.86,348.452 431.527,363.452 431.5,378.5C 428.102,378.82 424.768,378.487 421.5,377.5C 421.167,376.833 420.833,376.167 420.5,375.5C 420.723,374.033 421.056,372.533 421.5,371C 420.686,364.247 420.186,357.414 420,350.5C 417.135,359.43 414.468,368.43 412,377.5C 409.925,378.134 407.759,378.468 405.5,378.5C 403.036,378.41 400.87,377.743 399,376.5C 396.667,367.833 394.333,359.167 392,350.5C 390.818,359.796 390.318,369.13 390.5,378.5C 387.119,378.46 383.786,378.793 380.5,379.5C 381.355,364.104 382.355,348.77 383.5,333.5 Z"/></g>
<g><path style="opacity:0.92" fill="#000000" d="M 440.5,333.5 C 450.5,333.5 460.5,333.5 470.5,333.5C 470.5,336.167 470.5,338.833 470.5,341.5C 464.167,341.5 457.833,341.5 451.5,341.5C 451.5,344.833 451.5,348.167 451.5,351.5C 458.2,351.17 464.866,351.503 471.5,352.5C 470.626,354.747 470.292,357.08 470.5,359.5C 464.167,359.5 457.833,359.5 451.5,359.5C 451.5,363.167 451.5,366.833 451.5,370.5C 458.167,370.5 464.833,370.5 471.5,370.5C 471.5,373.167 471.5,375.833 471.5,378.5C 461.167,378.5 450.833,378.5 440.5,378.5C 440.5,363.5 440.5,348.5 440.5,333.5 Z"/></g>
</svg>
