<?xml version="1.0" encoding="UTF-8"?>
<!DOCTYPE svg PUBLIC "-//W3C//DTD SVG 1.1//EN" "http://www.w3.org/Graphics/SVG/1.1/DTD/svg11.dtd">
<svg xmlns="http://www.w3.org/2000/svg" version="1.1" width="369px" height="137px" style="shape-rendering:geometricPrecision; text-rendering:geometricPrecision; image-rendering:optimizeQuality; fill-rule:evenodd; clip-rule:evenodd" xmlns:xlink="http://www.w3.org/1999/xlink">
<g><path style="opacity:1" fill="#fefefe" d="M -0.5,-0.5 C 70.1667,-0.5 140.833,-0.5 211.5,-0.5C 176.303,8.20737 156.97,30.7074 153.5,67C 156.104,104.763 175.77,127.929 212.5,136.5C 141.5,136.5 70.5,136.5 -0.5,136.5C -0.5,90.8333 -0.5,45.1667 -0.5,-0.5 Z"/></g>
<g><path style="opacity:1" fill="#fefefe" d="M 231.5,-0.5 C 277.167,-0.5 322.833,-0.5 368.5,-0.5C 368.5,45.1667 368.5,90.8333 368.5,136.5C 321.833,136.5 275.167,136.5 228.5,136.5C 267.182,129.812 288.182,106.812 291.5,67.5C 291.455,63.1107 290.955,58.7774 290,54.5C 292.015,96.7928 272.515,122.626 231.5,132C 201.703,134.851 178.87,123.684 163,98.5C 147.191,60.6624 156.691,31.1624 191.5,10C 208.665,2.89783 226.332,1.56449 244.5,6C 251.082,8.14473 257.415,10.4781 263.5,13C 253.68,6.23458 243.013,1.73458 231.5,-0.5 Z"/></g>
<g><path style="opacity:1" fill="#9eadae" d="M 274.5,13.5 C 275.659,23.992 275.825,34.6586 275,45.5C 270.018,41.5985 268.185,36.4319 269.5,30C 269.667,26.5 269.833,23 270,19.5C 272.102,17.9052 273.602,15.9052 274.5,13.5 Z"/></g>
<g><path style="opacity:1" fill="#9faeaf" d="M 276.5,14.5 C 281.985,18.1065 283.985,23.2732 282.5,30C 283.815,36.4319 281.982,41.5985 277,45.5C 276.5,35.172 276.334,24.8387 276.5,14.5 Z"/></g>
<g><path style="opacity:1" fill="#9aaaab" d="M 261.5,20.5 C 266.968,22.5782 268.968,26.5782 267.5,32.5C 264.167,32.5 260.833,32.5 257.5,32.5C 256.589,27.6329 257.922,23.6329 261.5,20.5 Z"/></g>
<g><path style="opacity:1" fill="#9babac" d="M 289.5,19.5 C 293.958,22.6257 295.624,26.959 294.5,32.5C 291.167,32.5 287.833,32.5 284.5,32.5C 283.895,27.2247 285.562,22.8914 289.5,19.5 Z"/></g>
<g><path style="opacity:1" fill="#9babac" d="M 257.5,34.5 C 260.833,34.5 264.167,34.5 267.5,34.5C 267.338,36.5273 267.505,38.5273 268,40.5C 270.682,43.3497 273.516,46.0164 276.5,48.5C 278.789,45.7088 281.289,43.0421 284,40.5C 284.495,38.5273 284.662,36.5273 284.5,34.5C 287.833,34.5 291.167,34.5 294.5,34.5C 294.663,36.8568 294.497,39.1902 294,41.5C 288.355,48.6461 282.522,55.6461 276.5,62.5C 270.441,56.0612 264.608,49.3946 259,42.5C 257.748,39.9865 257.248,37.3198 257.5,34.5 Z"/></g>
<g><path style="opacity:1" fill="#c2d0e4" d="M 232.5,52.5 C 225.833,52.5 219.167,52.5 212.5,52.5C 212.5,53.5 212.5,54.5 212.5,55.5C 215.059,55.1984 217.393,55.5318 219.5,56.5C 216.833,56.5 214.167,56.5 211.5,56.5C 211.5,54.8333 211.5,53.1667 211.5,51.5C 218.687,51.1755 225.687,51.5088 232.5,52.5 Z"/></g>
<g><path style="opacity:1" fill="#95aad0" d="M 137.5,52.5 C 138.919,51.5489 140.585,51.2155 142.5,51.5C 142.5,58.8333 142.5,66.1667 142.5,73.5C 145.713,73.19 148.713,73.5233 151.5,74.5C 148.167,74.5 144.833,74.5 141.5,74.5C 141.5,67.1667 141.5,59.8333 141.5,52.5C 140.167,52.5 138.833,52.5 137.5,52.5 Z"/></g>
<g><path style="opacity:1" fill="#2251a5" d="M 255.5,55.5 C 252.833,55.5 250.167,55.5 247.5,55.5C 247.5,62.8333 247.5,70.1667 247.5,77.5C 245.833,77.5 244.167,77.5 242.5,77.5C 242.5,70.1667 242.5,62.8333 242.5,55.5C 240.167,55.5 237.833,55.5 235.5,55.5C 235.5,54.5 235.5,53.5 235.5,52.5C 242.167,52.5 248.833,52.5 255.5,52.5C 255.5,53.5 255.5,54.5 255.5,55.5 Z"/></g>
<g><path style="opacity:1" fill="#9dafd2" d="M 76.5,52.5 C 75.5,52.5 74.5,52.5 73.5,52.5C 73.5,60.8333 73.5,69.1667 73.5,77.5C 72.507,69.0161 72.1736,60.3494 72.5,51.5C 74.099,51.2322 75.4324,51.5655 76.5,52.5 Z"/></g>
<g><path style="opacity:1" fill="#2352a5" d="M 76.5,52.5 C 80.449,58.2889 84.6157,63.9555 89,69.5C 89.4994,63.8431 89.6661,58.1764 89.5,52.5C 90.8333,52.5 92.1667,52.5 93.5,52.5C 93.5,60.8333 93.5,69.1667 93.5,77.5C 91.2776,77.822 89.4443,77.1554 88,75.5C 84.3333,70.5 80.6667,65.5 77,60.5C 76.5006,66.1569 76.3339,71.8236 76.5,77.5C 75.5,77.5 74.5,77.5 73.5,77.5C 73.5,69.1667 73.5,60.8333 73.5,52.5C 74.5,52.5 75.5,52.5 76.5,52.5 Z"/></g>
<g><path style="opacity:1" fill="#1850a4" d="M 101.5,52.5 C 105.833,52.5 110.167,52.5 114.5,52.5C 114.5,53.5 114.5,54.5 114.5,55.5C 111.833,55.5 109.167,55.5 106.5,55.5C 106.5,57.8333 106.5,60.1667 106.5,62.5C 109.167,62.5 111.833,62.5 114.5,62.5C 114.5,63.8333 114.5,65.1667 114.5,66.5C 111.833,66.5 109.167,66.5 106.5,66.5C 106.5,69.1667 106.5,71.8333 106.5,74.5C 109.833,74.5 113.167,74.5 116.5,74.5C 116.5,75.5 116.5,76.5 116.5,77.5C 111.5,77.5 106.5,77.5 101.5,77.5C 101.5,69.1667 101.5,60.8333 101.5,52.5 Z"/></g>
<g><path style="opacity:1" fill="#7693c4" d="M 128.5,77.5 C 128.5,69.1667 128.5,60.8333 128.5,52.5C 127.167,52.5 125.833,52.5 124.5,52.5C 124.5,60.8333 124.5,69.1667 124.5,77.5C 123.507,69.0161 123.174,60.3494 123.5,51.5C 125.5,51.5 127.5,51.5 129.5,51.5C 129.826,60.3494 129.493,69.0161 128.5,77.5 Z"/></g>
<g><path style="opacity:1" fill="#0448a0" d="M 128.5,77.5 C 127.167,77.5 125.833,77.5 124.5,77.5C 124.5,69.1667 124.5,60.8333 124.5,52.5C 125.833,52.5 127.167,52.5 128.5,52.5C 128.5,60.8333 128.5,69.1667 128.5,77.5 Z"/></g>
<g><path style="opacity:1" fill="#084aa1" d="M 137.5,52.5 C 138.833,52.5 140.167,52.5 141.5,52.5C 141.5,59.8333 141.5,67.1667 141.5,74.5C 144.833,74.5 148.167,74.5 151.5,74.5C 151.5,75.5 151.5,76.5 151.5,77.5C 146.833,77.5 142.167,77.5 137.5,77.5C 137.5,69.1667 137.5,60.8333 137.5,52.5 Z"/></g>
<g><path style="opacity:1" fill="#1f51a4" d="M 166.5,51.5 C 169.941,51.3011 173.274,51.8011 176.5,53C 177.337,54.0113 177.67,55.1779 177.5,56.5C 167.57,53.6059 162.737,57.2726 163,67.5C 165.147,73.6564 169.313,75.6564 175.5,73.5C 176.5,73.8333 177.167,74.5 177.5,75.5C 170.203,80.1318 164.037,78.7985 159,71.5C 157.077,67.1384 157.077,62.8051 159,58.5C 161.396,55.9334 163.896,53.6 166.5,51.5 Z"/></g>
<g><path style="opacity:1" fill="#2353a5" d="M 193.5,51.5 C 205.134,51.9706 209.967,57.9706 208,69.5C 206.833,73.3333 204.333,75.8333 200.5,77C 187.74,78.9073 182.24,73.4073 184,60.5C 185.775,55.888 188.942,52.888 193.5,51.5 Z"/></g>
<g><path style="opacity:1" fill="#104fa3" d="M 232.5,52.5 C 232.5,53.5 232.5,54.5 232.5,55.5C 229.833,55.5 227.167,55.5 224.5,55.5C 224.5,62.8333 224.5,70.1667 224.5,77.5C 222.833,77.5 221.167,77.5 219.5,77.5C 219.5,70.5 219.5,63.5 219.5,56.5C 217.393,55.5318 215.059,55.1984 212.5,55.5C 212.5,54.5 212.5,53.5 212.5,52.5C 219.167,52.5 225.833,52.5 232.5,52.5 Z"/></g>
<g><path style="opacity:1" fill="#a0afb0" d="M 211.5,-0.5 C 218.167,-0.5 224.833,-0.5 231.5,-0.5C 243.013,1.73458 253.68,6.23458 263.5,13C 257.415,10.4781 251.082,8.14473 244.5,6C 226.332,1.56449 208.665,2.89783 191.5,10C 156.691,31.1624 147.191,60.6624 163,98.5C 178.87,123.684 201.703,134.851 231.5,132C 272.515,122.626 292.015,96.7928 290,54.5C 290.955,58.7774 291.455,63.1107 291.5,67.5C 288.182,106.812 267.182,129.812 228.5,136.5C 223.167,136.5 217.833,136.5 212.5,136.5C 175.77,127.929 156.104,104.763 153.5,67C 156.97,30.7074 176.303,8.20737 211.5,-0.5 Z"/></g>
<g><path style="opacity:1" fill="#a8bad8" d="M 255.5,55.5 C 253.393,56.4682 251.059,56.8016 248.5,56.5C 248.825,63.6866 248.491,70.6866 247.5,77.5C 247.5,70.1667 247.5,62.8333 247.5,55.5C 250.167,55.5 252.833,55.5 255.5,55.5 Z"/></g>
<g><path style="opacity:1" fill="#f7f8fb" d="M 193.5,55.5 C 197.355,54.8454 200.188,56.1788 202,59.5C 202.667,63.1667 202.667,66.8333 202,70.5C 200.179,73.9907 197.346,75.1574 193.5,74C 191.667,73.5 190.5,72.3333 190,70.5C 189.333,66.8333 189.333,63.1667 190,59.5C 190.69,57.6498 191.856,56.3164 193.5,55.5 Z"/></g>
</svg>
