<svg xmlns="http://www.w3.org/2000/svg" width="487" height="103" viewBox="0 0 487 103">
<g>
<path d="M 43.57,101.43 C41.63,99.49 41.54,100.30 44.53,93.52 C45.93,90.37 47.33,85.89 47.65,83.56 L 48.23,79.32 L 41.87,77.97 C18.92,73.10 1.00,51.75 1.00,29.29 L 1.00,24.00 L 5.36,24.00 C22.45,24.00 40.49,34.26 49.14,48.91 L 52.77,55.07 L 56.01,49.32 C64.36,34.54 82.24,24.07 99.25,24.01 L 104.00,24.00 L 104.00,30.39 C104.00,46.14 94.58,62.29 80.06,71.47 C75.38,74.42 62.31,79.00 58.57,79.00 C56.34,79.00 56.00,79.43 55.98,82.25 C55.95,86.34 51.68,98.59 49.40,101.11 C47.32,103.41 45.65,103.50 43.57,101.43 M 47.71,66.88 C46.88,60.70 41.49,50.64 35.97,44.97 C30.76,39.62 19.70,33.72 12.63,32.52 L 8.75,31.86 L 9.44,35.68 C12.04,50.22 24.37,63.97 39.49,69.20 C47.51,71.98 48.36,71.74 47.71,66.88 M 65.77,69.15 C80.81,64.47 93.27,50.65 95.61,36.07 L 96.30,31.72 L 92.40,32.42 C82.20,34.25 69.04,43.27 63.26,52.39 C60.58,56.63 57.00,66.21 57.00,69.16 C57.00,71.47 58.33,71.46 65.77,69.15 M 368.70,78.62 C362.38,76.26 357.05,72.16 353.93,67.23 C348.78,59.11 347.82,52.33 350.53,43.23 C356.53,23.00 382.78,16.28 397.77,31.13 C403.97,37.26 406.43,43.06 406.43,51.50 C406.43,62.70 400.73,72.02 390.72,77.15 C385.37,79.89 374.13,80.64 368.70,78.62 M 388.40,66.25 C394.16,62.18 396.19,57.81 395.77,50.37 C395.49,45.50 394.83,43.47 392.58,40.51 C387.31,33.61 378.31,31.31 370.46,34.88 C355.30,41.77 356.04,62.81 371.66,68.59 C376.95,70.56 383.61,69.62 388.40,66.25 M 127.00,51.50 L 127.00,24.00 L 141.68,24.00 C154.49,24.00 156.92,24.26 160.65,26.07 C172.31,31.72 172.84,49.83 161.50,55.50 C159.30,56.60 157.33,57.60 157.11,57.72 C156.90,57.84 157.40,58.96 158.21,60.22 C159.03,61.47 162.03,66.24 164.89,70.80 L 170.08,79.10 L 164.37,78.80 L 158.67,78.50 L 152.57,68.50 L 146.48,58.50 L 141.74,58.20 L 137.00,57.89 L 137.00,68.45 L 137.00,79.00 L 132.00,79.00 L 127.00,79.00 L 127.00,51.50 M 157.08,47.08 C160.13,44.02 160.81,40.38 158.97,36.94 C157.16,33.56 152.60,32.00 144.55,32.00 L 137.00,32.00 L 137.00,41.00 L 137.00,50.00 L 145.58,50.00 C153.72,50.00 154.30,49.85 157.08,47.08 M 183.00,51.50 L 183.00,24.00 L 202.00,24.00 L 221.00,24.00 L 221.00,28.00 L 221.00,32.00 L 207.17,32.00 C199.56,32.00 193.15,32.19 192.92,32.41 C192.69,32.64 192.65,36.01 192.83,39.91 L 193.16,47.00 L 205.58,47.00 L 218.00,47.00 L 218.00,51.00 L 218.00,55.00 L 205.58,55.00 L 193.16,55.00 L 192.83,62.59 C192.65,66.76 192.69,70.36 192.92,70.59 C193.15,70.81 199.56,71.00 207.17,71.00 L 221.00,71.00 L 221.00,75.00 L 221.00,79.00 L 202.00,79.00 L 183.00,79.00 L 183.00,51.50 M 235.00,51.50 L 235.00,24.00 L 248.25,24.01 C255.54,24.01 263.15,24.47 265.18,25.03 C271.51,26.79 278.06,32.02 281.42,38.00 C284.15,42.88 284.50,44.40 284.48,51.50 C284.46,58.27 284.04,60.31 281.71,64.76 C276.15,75.37 267.52,79.00 247.82,79.00 L 235.00,79.00 L 235.00,51.50 M 261.32,69.93 C273.45,66.56 278.81,50.87 271.58,39.94 C268.23,34.88 263.14,32.73 253.25,32.19 L 245.00,31.75 L 245.00,51.37 L 245.00,71.00 L 251.25,70.99 C254.69,70.99 259.22,70.51 261.32,69.93 M 298.00,51.50 L 298.00,24.00 L 312.29,24.00 C325.13,24.00 327.02,24.23 330.98,26.25 C337.24,29.45 339.33,32.78 339.79,40.26 C340.12,45.53 339.81,47.04 337.83,50.00 C336.54,51.92 333.62,54.45 331.33,55.60 L 327.18,57.70 L 333.59,67.92 C337.12,73.53 340.00,78.33 340.00,78.56 C340.00,78.80 337.63,79.00 334.74,79.00 L 329.48,79.00 L 323.16,68.45 L 316.83,57.90 L 312.17,58.20 L 307.50,58.50 L 307.22,68.75 L 306.93,79.00 L 302.47,79.00 L 298.00,79.00 L 298.00,51.50 M 328.09,47.14 C330.93,43.63 330.61,37.93 327.42,34.92 C325.17,32.81 323.72,32.46 315.92,32.15 L 307.00,31.80 L 307.00,41.00 L 307.00,50.19 L 316.59,49.85 C325.24,49.53 326.37,49.27 328.09,47.14 M 427.50,77.80 C427.23,77.09 423.85,65.47 419.97,52.00 C416.09,38.52 412.68,26.71 412.39,25.75 C411.94,24.23 412.59,24.00 417.31,24.00 L 422.76,24.00 L 428.01,45.04 C430.90,56.61 433.43,65.90 433.65,65.69 C433.97,65.37 439.15,46.54 443.96,28.25 C445.03,24.16 445.23,24.00 449.00,24.00 C452.77,24.00 452.97,24.17 454.06,28.25 C459.24,47.66 464.17,65.50 464.43,65.76 C464.60,65.93 467.10,56.61 469.99,45.04 L 475.24,24.00 L 480.62,24.00 C483.58,24.00 485.99,24.11 485.99,24.25 C485.98,24.39 482.47,36.65 478.19,51.50 L 470.40,78.50 L 465.24,78.80 L 460.09,79.10 L 458.60,73.80 C457.78,70.89 455.49,62.42 453.50,55.00 C451.52,47.58 449.64,40.83 449.34,40.00 C449.03,39.17 446.43,47.50 443.56,58.50 L 438.35,78.50 L 433.16,78.80 C429.59,79.01 427.83,78.70 427.50,77.80 M 45.50,31.64 C33.18,25.94 32.86,8.36 44.97,2.25 C47.42,1.01 50.81,0.00 52.50,0.00 C56.57,0.00 63.88,3.82 66.38,7.24 C67.64,8.97 68.52,12.08 68.77,15.74 C69.11,20.55 68.79,22.06 66.84,24.91 C65.55,26.78 63.28,29.22 61.79,30.32 C58.37,32.86 49.65,33.56 45.50,31.64 M 58.55,22.55 C63.73,17.36 60.15,8.00 52.97,8.00 C48.82,8.00 44.00,12.72 44.00,16.78 C44.00,24.01 53.37,27.72 58.55,22.55 Z" fill="rgba(0,0,0,1)"/>
</g>
</svg>