<svg xmlns="http://www.w3.org/2000/svg" width="262" height="130" viewBox="0 0 262 130">
<g>
<path d="M 84.51,115.83 C78.19,110.86 78.05,104.31 84.02,93.19 L 86.88,87.87 L 82.26,84.69 C72.47,77.92 57.25,66.48 51.70,61.70 C48.35,58.82 45.53,57.09 45.03,57.60 C44.56,58.10 42.08,63.45 39.51,69.50 C34.63,81.01 31.88,85.00 28.83,85.00 C25.80,85.00 26.61,81.68 33.50,65.84 C38.67,53.97 39.80,50.49 38.99,48.98 C38.15,47.41 38.52,46.68 41.08,44.79 C43.16,43.26 45.75,39.19 48.92,32.50 C55.00,19.66 58.04,16.00 62.59,16.00 C64.47,16.00 66.00,16.23 66.00,16.52 C66.00,16.81 64.95,18.72 63.68,20.77 C62.40,22.82 58.99,28.90 56.10,34.27 L 50.84,44.04 L 54.67,45.76 C57.20,46.89 61.08,47.48 66.07,47.49 C72.66,47.50 74.18,47.14 77.78,44.77 C88.33,37.78 84.52,23.32 70.29,16.35 C66.01,14.26 62.81,13.53 56.52,13.20 C42.27,12.45 30.13,16.28 21.34,24.32 C10.82,33.93 8.43,43.90 14.07,54.65 L 17.13,60.50 L 13.04,56.52 C-1.79,42.10 12.63,20.02 43.50,9.87 C51.53,7.23 65.65,6.71 72.66,8.79 C78.83,10.63 86.16,15.97 88.71,20.50 C96.27,33.90 83.83,50.48 65.25,51.79 C61.81,52.03 59.00,52.53 59.00,52.90 C59.00,53.93 68.42,62.89 80.00,72.87 C92.73,83.84 93.45,83.72 92.05,70.97 C91.54,66.31 90.87,58.31 90.57,53.20 C90.04,44.30 90.12,43.79 92.46,41.45 C93.81,40.10 95.83,39.00 96.95,39.00 C98.89,39.00 99.00,39.59 99.01,50.25 C99.02,62.52 99.76,69.00 101.15,69.00 C102.44,69.00 109.58,57.67 113.55,49.32 C115.42,45.37 117.97,41.43 119.20,40.57 C121.31,39.09 126.00,38.37 126.00,39.53 C126.00,42.94 102.96,76.47 97.50,81.00 C94.84,83.21 95.87,84.96 102.25,89.11 C116.98,98.68 143.16,108.88 162.50,112.57 C174.80,114.92 191.37,114.93 201.50,112.60 C217.70,108.87 233.22,102.01 242.43,94.51 C245.48,92.03 248.27,90.00 248.64,90.00 C250.01,90.00 245.31,94.37 239.43,98.58 C226.73,107.66 207.95,114.73 190.28,117.09 C167.74,120.09 135.52,112.80 105.08,97.81 L 90.66,90.70 L 88.89,92.89 C87.03,95.18 83.00,105.12 83.00,107.39 C83.00,108.11 84.11,110.79 85.47,113.35 C86.83,115.91 87.79,118.00 87.61,118.00 C87.42,118.00 86.03,117.02 84.51,115.83 M 147.75,80.92 C143.50,78.44 141.97,71.25 144.08,63.66 C144.67,61.54 144.99,59.66 144.80,59.47 C144.61,59.27 141.99,62.30 138.98,66.19 C131.30,76.10 124.74,81.19 120.13,80.80 C112.85,80.19 112.45,72.70 119.17,62.55 C124.18,55.00 135.82,47.12 147.17,43.61 C150.21,42.67 151.84,40.96 156.79,33.49 C163.68,23.09 169.28,17.35 173.81,16.06 C175.56,15.55 177.00,15.52 177.00,15.98 C177.00,16.44 173.57,21.70 169.39,27.66 C165.20,33.62 161.31,39.62 160.75,41.00 C160.20,42.38 158.67,45.60 157.36,48.16 C151.44,59.72 150.01,70.45 153.85,74.30 C155.62,76.06 156.29,76.19 158.49,75.19 C159.90,74.54 161.29,73.23 161.58,72.26 C163.84,64.69 172.71,53.20 179.56,48.96 C181.46,47.79 183.00,46.01 183.00,45.00 C183.00,43.74 184.43,42.62 187.54,41.43 L 192.08,39.70 L 194.86,42.37 C196.40,43.84 199.18,45.48 201.04,46.01 C203.89,46.83 205.19,46.59 209.20,44.49 C211.82,43.12 214.42,42.00 214.98,42.00 C217.21,42.00 215.72,46.91 211.04,54.98 C208.34,59.64 206.28,63.61 206.47,63.80 C206.66,63.99 210.57,60.22 215.16,55.42 C226.06,44.01 234.43,38.66 236.40,41.83 C236.68,42.29 235.82,45.33 234.48,48.58 C231.33,56.24 231.10,66.02 233.96,70.70 C236.91,75.53 241.13,77.29 248.66,76.81 C252.15,76.59 255.00,76.53 255.00,76.68 C255.00,77.96 246.19,81.00 242.49,81.00 C237.22,81.00 233.61,79.38 229.87,75.34 C225.36,70.46 224.56,68.01 224.64,59.28 L 224.72,51.06 L 221.93,53.05 C218.52,55.48 214.69,60.28 208.77,69.54 C202.71,79.04 196.99,82.69 195.50,78.00 C194.69,75.44 195.24,73.70 200.77,61.25 C203.28,55.61 205.14,50.83 204.92,50.63 C204.69,50.42 202.54,50.53 200.15,50.88 C196.30,51.43 195.67,51.89 194.60,55.00 C191.83,63.05 181.09,76.34 174.67,79.67 C170.33,81.91 165.97,81.68 163.88,79.09 L 162.08,76.87 L 158.31,79.44 C154.36,82.12 150.70,82.64 147.75,80.92 M 129.54,71.86 C135.05,66.78 148.34,49.51 147.85,48.06 C146.72,44.66 126.05,61.23 123.35,67.70 C121.52,72.08 121.60,76.00 123.52,76.00 C124.36,76.00 127.07,74.14 129.54,71.86 M 178.90,73.43 C183.14,69.87 189.24,57.28 188.82,52.98 C188.65,51.15 187.99,49.49 187.38,49.29 C185.53,48.68 175.31,58.73 173.07,63.35 C171.93,65.70 171.00,69.51 171.00,71.82 C171.00,75.58 171.25,76.00 173.42,76.00 C174.76,76.00 177.22,74.84 178.90,73.43 Z" fill="rgba(0,0,0,1)"/>
</g>
</svg>