<?xml version="1.0" standalone="no"?>
<!DOCTYPE svg PUBLIC "-//W3C//DTD SVG 20010904//EN"
 "http://www.w3.org/TR/2001/REC-SVG-20010904/DTD/svg10.dtd">
<svg version="1.0" xmlns="http://www.w3.org/2000/svg"
 width="260.000000pt" height="194.000000pt" viewBox="0 0 260.000000 194.000000"
 preserveAspectRatio="xMidYMid meet">

<g transform="translate(0.000000,194.000000) scale(0.100000,-0.100000)"
fill="#000000" stroke="none">
<path d="M994 1930 c-687 -41 -984 -291 -984 -827 0 -148 11 -228 46 -333 96
-284 332 -440 751 -494 284 -37 822 -30 1076 14 402 69 620 255 688 586 28
131 23 367 -10 487 -87 325 -323 493 -774 552 -143 18 -594 27 -793 15z m547
-25 c593 -18 863 -161 958 -505 32 -114 44 -281 32 -419 -35 -383 -204 -574
-576 -651 -151 -31 -268 -41 -555 -47 -776 -15 -1105 84 -1249 378 -51 104
-68 172 -82 320 -8 85 -8 147 0 230 14 147 32 214 82 318 101 206 289 311 639
357 122 15 465 33 545 27 22 -1 115 -5 206 -8z"/>
<path d="M989 1860 c-540 -30 -738 -144 -821 -476 -30 -120 -33 -422 -5 -554
49 -234 174 -374 392 -439 182 -55 604 -82 978 -63 433 22 610 68 743 194 133
126 196 375 173 686 -30 395 -190 569 -580 626 -215 32 -575 42 -880 26z m427
-94 c30 -20 39 -51 24 -85 -15 -36 -48 -51 -112 -51 -41 0 -49 3 -40 12 15 15
16 128 1 128 -5 0 -7 5 -3 11 9 15 99 4 130 -15z m-323 2 c-11 -16 -5 -128 8
-128 5 0 9 -4 9 -10 0 -5 -15 -10 -32 -10 l-33 0 3 70 c2 46 0 70 -7 70 -6 0
-11 5 -11 10 0 6 16 10 36 10 27 0 34 -3 27 -12z m99 3 c-10 -6 -12 -23 -6
-70 7 -66 20 -76 56 -44 17 15 18 15 18 -5 0 -18 -7 -21 -62 -24 -61 -4 -86 0
-60 9 16 6 16 115 0 131 -9 9 -3 12 28 12 25 0 34 -3 26 -9z m398 -13 c0 -20
-1 -20 -18 -5 -25 23 -39 21 -46 -5 -7 -30 8 -45 29 -28 13 11 15 9 15 -16 0
-22 -3 -25 -12 -16 -21 21 -38 13 -38 -18 0 -25 4 -30 24 -30 14 0 28 5 31 10
11 18 23 11 18 -10 -6 -22 -16 -23 -87 -14 -26 4 -42 10 -36 14 18 11 26 120
9 131 -9 6 8 9 49 9 57 0 62 -2 62 -22z m-587 4 c-7 -4 -13 -36 -15 -72 -3
-60 -5 -66 -30 -78 -23 -11 -33 -11 -55 0 -23 11 -29 22 -36 67 -4 30 -12 60
-18 68 -9 10 -5 13 22 13 l34 0 1 -56 c1 -59 19 -89 46 -79 9 4 19 14 23 23 8
21 -5 102 -16 102 -5 0 -9 5 -9 10 0 6 15 10 33 10 18 0 27 -4 20 -8z m726 -2
c27 -14 34 -40 15 -61 -17 -19 -12 -49 13 -74 20 -21 12 -28 -19 -16 -14 5
-31 23 -38 40 -7 17 -16 31 -21 31 -13 0 -11 -44 4 -59 10 -11 8 -13 -13 -7
-14 3 -31 6 -39 6 -9 0 -10 4 -4 13 16 19 24 125 10 131 -7 2 7 5 31 5 24 1
51 -3 61 -9z m-919 -25 c7 -8 10 -24 7 -35 -3 -10 1 -24 9 -31 38 -31 2 -72
-75 -83 -36 -6 -42 -4 -33 7 15 17 0 116 -19 128 -11 6 -11 9 1 13 56 19 95
19 110 1z m1079 6 c8 -5 11 -16 7 -26 -5 -15 -8 -14 -26 6 -17 20 -21 22 -29
9 -8 -11 -2 -23 21 -47 24 -25 29 -37 24 -57 -12 -47 -106 -44 -106 4 0 26 16
26 23 0 7 -27 47 -27 47 0 0 10 -9 24 -20 30 -25 13 -36 55 -20 75 14 17 57
20 79 6z m-1185 -298 c24 -12 30 -13 37 -1 5 8 9 -19 9 -66 l0 -79 -23 34
c-31 46 -96 70 -134 49 -38 -22 -47 -42 -39 -86 6 -31 25 -55 106 -134 114
-110 146 -165 136 -234 -10 -63 -40 -104 -93 -128 -41 -18 -60 -20 -149 -15
-69 4 -105 2 -113 -6 -8 -8 -11 12 -11 78 l0 89 28 -27 c79 -76 210 -76 225 0
9 46 -15 83 -115 178 -51 50 -101 107 -111 127 -44 92 1 210 89 238 37 11 120
2 158 -17z m760 0 c24 -12 30 -13 37 -1 5 8 9 -18 9 -64 0 -43 -2 -78 -5 -78
-2 0 -11 13 -19 29 -30 58 -140 79 -166 31 -30 -55 -8 -99 105 -210 100 -99
125 -140 125 -208 0 -54 -25 -100 -73 -136 -26 -19 -42 -21 -150 -20 -78 1
-125 -3 -129 -10 -4 -6 -8 28 -8 76 l0 86 29 -27 c54 -51 164 -68 201 -31 24
24 26 70 5 109 -8 16 -49 59 -91 97 -103 91 -134 141 -134 212 0 87 35 139
109 163 34 10 118 1 155 -18z m-378 -8 c-11 -8 -23 -15 -27 -15 -21 0 -29 -80
-29 -310 0 -230 8 -310 29 -310 4 0 16 -7 27 -15 17 -13 7 -14 -101 -14 -112
0 -118 1 -93 15 15 8 32 23 38 34 6 11 10 124 10 290 0 166 -4 279 -10 290 -6
11 -23 26 -38 34 -25 14 -19 15 93 15 108 0 118 -1 101 -14z m742 -1 c-15 -8
-32 -23 -38 -34 -6 -11 -10 -124 -10 -290 0 -166 4 -279 10 -290 6 -11 23 -26
38 -34 25 -14 19 -15 -93 -15 -108 0 -118 1 -101 14 11 8 23 15 28 15 22 0 29
89 26 333 l-3 259 -33 29 -32 29 117 0 c110 -1 116 -2 91 -16z m337 2 c-16 -8
-88 -73 -160 -145 -124 -125 -129 -132 -116 -154 44 -70 269 -330 300 -347
l36 -19 -82 -1 -82 0 -136 167 c-74 92 -135 170 -135 174 0 3 54 62 120 132
75 78 120 133 120 146 0 12 -3 21 -7 21 -5 0 -19 9 -33 20 l-25 20 115 -1
c105 0 112 -1 85 -13z m-72 -801 c5 -11 0 -13 -24 -8 -27 5 -31 3 -27 -13 2
-13 13 -20 33 -22 35 -4 65 -28 65 -52 0 -33 -62 -69 -86 -49 -23 19 -16 29
11 17 19 -8 29 -8 37 0 17 17 1 42 -28 42 -32 0 -64 26 -64 51 0 36 72 65 83
34z m-1508 -9 c38 -16 38 -16 29 -41 -6 -14 -8 -13 -18 7 -26 52 -96 19 -96
-45 0 -18 5 -38 12 -45 15 -15 51 -15 66 0 8 8 12 8 12 1 0 -39 -66 -39 -107
-1 -38 36 -26 109 20 128 31 12 43 12 82 -4z m1396 -26 c21 -12 25 -40 8 -57
-7 -7 0 -19 25 -41 31 -27 32 -31 15 -35 -12 -3 -31 4 -48 19 -16 13 -32 24
-35 24 -12 0 -6 -29 9 -43 12 -13 12 -16 -8 -21 -38 -10 -42 -7 -43 38 -1 24
-8 58 -17 75 -15 31 -15 31 16 40 44 13 55 13 78 1z m-1228 -31 c20 -25 22
-77 3 -101 -33 -44 -115 -38 -140 10 -31 61 17 129 84 118 19 -3 43 -15 53
-27z m117 -47 l35 -57 3 44 c2 28 -1 47 -10 52 -8 6 -2 9 20 9 30 0 45 -14 22
-22 -6 -2 -13 -33 -17 -71 -3 -37 -9 -67 -13 -67 -4 0 -25 27 -46 59 -25 38
-41 55 -46 48 -12 -19 -9 -72 4 -85 9 -9 8 -12 -4 -12 -26 0 -51 12 -39 19 6
4 13 33 17 65 5 44 4 60 -7 67 -10 6 -5 9 16 9 26 -1 35 -9 65 -58z m981 39
c34 -27 33 -95 -1 -122 -56 -43 -140 -6 -140 61 0 67 87 105 141 61z m-751
-22 c0 -10 -4 -19 -10 -19 -5 0 -10 5 -10 10 0 6 -9 10 -20 10 -18 0 -20 -7
-20 -58 0 -32 5 -63 12 -70 9 -9 8 -12 -7 -12 -32 0 -68 12 -57 19 5 3 12 34
15 69 7 66 0 76 -35 45 -18 -16 -23 -8 -13 19 4 9 24 12 75 10 61 -3 70 -6 70
-23z m610 11 c0 -11 -4 -20 -10 -20 -5 0 -10 5 -10 10 0 6 -8 10 -18 10 -16 0
-18 -7 -14 -62 3 -35 9 -66 14 -69 6 -4 -6 -8 -26 -11 -21 -2 -39 0 -42 4 -3
4 0 8 5 8 7 0 11 24 11 60 0 52 -2 60 -19 60 -11 0 -21 -6 -24 -12 -2 -7 -7
-10 -11 -7 -3 3 -4 13 0 22 4 11 22 17 57 20 29 2 60 4 70 5 11 1 17 -5 17
-18z m-511 -1 c32 -11 42 -44 20 -66 -12 -12 12 -68 33 -76 7 -3 1 -6 -13 -6
-26 -1 -49 18 -64 54 -8 18 -9 17 -13 -9 -2 -17 2 -32 10 -37 8 -6 -4 -9 -32
-9 -29 0 -40 3 -31 9 10 6 12 27 9 80 l-4 71 27 0 c14 0 40 -5 58 -11z m181
-56 c12 -38 29 -74 38 -80 13 -11 9 -13 -29 -12 -24 0 -39 3 -33 5 7 3 10 14
7 25 -8 29 -48 22 -47 -8 0 -18 -5 -23 -23 -23 -22 0 -23 1 -9 23 8 12 24 48
36 80 12 31 25 57 30 57 5 0 18 -30 30 -67z m154 61 c9 -3 16 -16 16 -28 -1
-20 -2 -20 -14 -3 -18 23 -63 22 -76 -2 -15 -29 -12 -72 7 -93 21 -24 42 -23
70 4 16 15 23 17 23 7 -1 -47 -82 -60 -125 -19 -65 61 14 166 99 134z"/>
<path d="M1332 1708 c2 -49 7 -64 19 -66 26 -5 49 26 49 67 0 43 -14 61 -47
61 -23 0 -24 -3 -21 -62z"/>
<path d="M1680 1720 c0 -33 11 -38 30 -15 15 18 6 45 -15 45 -10 0 -15 -10
-15 -30z"/>
<path d="M750 1705 c0 -15 6 -25 14 -25 19 0 28 14 20 34 -10 25 -34 19 -34
-9z"/>
<path d="M766 1663 c-3 -4 -6 -17 -6 -30 0 -16 6 -23 20 -23 14 0 20 7 20 24
0 23 -22 41 -34 29z"/>
<path d="M538 1407 c-84 -71 -60 -170 70 -284 43 -36 87 -80 99 -97 47 -63 38
-141 -21 -177 -38 -23 -141 -26 -191 -5 -19 8 -35 11 -35 6 0 -13 96 -40 139
-40 53 1 117 33 135 69 40 77 6 156 -104 245 -110 89 -146 159 -116 230 20 48
68 71 130 62 25 -4 48 -11 51 -17 8 -11 25 -12 25 -1 0 16 -51 32 -103 32 -39
0 -58 -6 -79 -23z"/>
<path d="M1285 1397 c-30 -30 -35 -42 -35 -81 0 -72 20 -105 119 -196 104 -95
121 -120 121 -183 0 -47 -23 -81 -67 -98 -37 -14 -129 -11 -168 5 -19 8 -35
11 -35 6 0 -5 25 -17 57 -26 97 -28 187 -4 217 60 37 79 16 127 -107 239 -52
48 -102 103 -111 121 -24 51 -20 99 10 135 39 47 86 51 184 14 11 -4 11 -1 -2
13 -13 13 -37 19 -83 22 -63 4 -66 3 -100 -31z"/>
<path d="M980 1110 c0 -205 3 -309 10 -305 6 4 10 117 10 305 0 188 -4 301
-10 305 -7 4 -10 -100 -10 -305z"/>
<path d="M1734 1110 c0 -173 2 -244 3 -157 2 86 2 228 0 315 -1 86 -3 15 -3
-158z"/>
<path d="M1836 1119 c88 -115 259 -319 267 -319 6 0 3 8 -5 18 -8 9 -68 82
-132 162 -65 80 -123 147 -129 149 -9 3 -9 0 -1 -10z"/>
<path d="M1924 575 c3 -9 6 -23 6 -31 0 -8 7 -14 16 -14 23 0 14 54 -10 58
-14 3 -17 0 -12 -13z"/>
<path d="M660 560 c-16 -30 -8 -91 13 -104 36 -22 71 55 51 108 -9 23 -51 20
-64 -4z"/>
<path d="M1766 554 c-19 -18 -20 -53 -4 -89 14 -32 63 -36 73 -5 13 39 -16
110 -45 110 -5 0 -16 -7 -24 -16z"/>
<path d="M1160 511 c0 -21 5 -31 16 -31 11 0 14 8 12 27 -4 39 -28 42 -28 4z"/>
<path d="M1330 486 c0 -9 5 -16 10 -16 6 0 10 4 10 9 0 6 -4 13 -10 16 -5 3
-10 -1 -10 -9z"/>
</g>
</svg>
