<?xml version="1.0" standalone="no"?>
<!DOCTYPE svg PUBLIC "-//W3C//DTD SVG 20010904//EN"
 "http://www.w3.org/TR/2001/REC-SVG-20010904/DTD/svg10.dtd">
<svg version="1.0" xmlns="http://www.w3.org/2000/svg"
 width="2560.000000pt" height="375.000000pt" viewBox="0 0 2560.000000 375.000000"
 preserveAspectRatio="xMidYMid meet">

<g transform="translate(0.000000,375.000000) scale(0.100000,-0.100000)"
fill="#000000" stroke="none">
<path d="M1203 3699 c-666 -45 -1052 -338 -1148 -872 -26 -144 -17 -394 18
-530 99 -376 361 -639 752 -752 187 -54 230 -57 805 -64 l535 -6 58 -29 c147
-75 226 -245 187 -405 -16 -68 -77 -158 -134 -199 -98 -70 -39 -66 -986 -72
-775 -5 -861 -7 -915 -23 -86 -26 -137 -52 -179 -95 -85 -83 -112 -187 -122
-465 l-7 -187 1204 2 1204 3 89 28 c383 120 627 342 749 684 65 179 86 459 52
659 -87 495 -431 828 -957 925 -102 19 -162 21 -628 26 l-515 5 -57 25 c-64
28 -123 86 -160 155 -19 36 -23 58 -23 138 0 84 3 101 27 146 15 28 50 72 78
97 95 85 46 81 900 87 682 6 761 8 815 24 149 44 213 108 260 256 13 41 19
103 22 246 l5 191 -218 6 c-299 9 -1560 6 -1711 -4z"/>
<path d="M15963 3699 c-601 -41 -967 -278 -1113 -721 -52 -157 -68 -426 -35
-596 92 -477 417 -780 945 -877 80 -15 181 -19 630 -24 l535 -6 47 -23 c75
-38 134 -96 170 -170 30 -60 33 -75 33 -157 0 -78 -4 -97 -28 -147 -37 -75
-98 -134 -177 -172 l-65 -31 -855 -6 c-653 -4 -867 -9 -905 -19 -172 -44 -254
-129 -291 -299 -8 -36 -17 -153 -21 -259 l-6 -192 1204 2 1204 3 105 33 c338
106 575 310 701 602 71 164 99 309 99 504 0 616 -361 1044 -975 1157 -99 19
-163 21 -620 25 -577 6 -570 5 -657 83 -71 63 -100 127 -106 227 -4 73 -1 88
23 142 32 72 102 143 173 175 47 22 53 22 807 28 685 5 766 7 820 23 214 63
285 198 285 540 l0 153 -217 6 c-299 9 -1560 6 -1710 -4z"/>
<path d="M3750 1850 l0 -1850 383 0 382 0 55 26 c69 32 96 56 127 118 51 100
53 129 53 850 l0 669 24 -35 c28 -41 1203 -1404 1259 -1461 52 -52 145 -111
220 -139 l62 -23 653 -3 c569 -2 662 -1 715 13 134 34 216 98 267 208 16 34
57 152 91 262 34 110 66 208 71 218 8 16 49 17 695 15 l687 -3 76 -237 c98
-301 133 -359 260 -423 106 -54 149 -58 578 -53 216 3 395 8 398 11 3 3 -326
834 -732 1847 l-737 1840 -535 -2 -535 -3 -634 -1575 c-348 -866 -638 -1592
-645 -1612 l-11 -37 -26 38 c-14 21 -307 343 -651 716 -344 372 -624 683 -624
690 1 7 342 409 758 893 416 485 756 884 756 887 0 3 -267 5 -592 5 l-593 -1
-610 -790 c-335 -435 -618 -807 -627 -827 -17 -35 -17 -1 -18 791 l0 827 -500
0 -500 0 0 -1850z m5280 340 c122 -388 224 -709 226 -715 3 -7 -152 -10 -451
-10 -250 0 -455 1 -455 3 0 3 401 1277 431 1370 12 35 22 62 24 60 1 -2 103
-320 225 -708z"/>
<path d="M10930 1856 l0 -1844 83 -7 c45 -4 199 -5 343 -3 l260 3 59 30 c72
37 116 92 147 183 l23 67 3 870 c2 571 -1 904 -8 969 -5 55 -9 101 -6 103 2 2
26 -31 53 -74 28 -43 309 -471 626 -951 317 -479 584 -887 593 -905 52 -103
161 -203 282 -260 l67 -32 340 -3 c187 -2 377 0 423 3 l82 7 0 1839 0 1839
-460 0 -460 0 1 -1107 c0 -610 4 -1133 8 -1163 5 -30 8 -56 7 -57 -1 -2 -355
524 -786 1167 l-784 1170 -448 0 -448 0 0 -1844z"/>
<path d="M18560 1856 l0 -1843 53 -7 c28 -3 194 -6 368 -6 351 0 384 5 461 63
24 18 56 56 71 85 53 98 56 146 57 862 0 558 2 651 14 629 27 -52 1273 -1485
1324 -1522 61 -45 137 -81 217 -102 86 -22 1277 -22 1373 0 88 21 150 55 203
112 59 63 85 120 154 343 31 102 63 200 71 218 l13 32 687 -2 686 -3 72 -225
c40 -124 84 -248 99 -276 52 -103 165 -179 301 -205 56 -10 549 -12 709 -2
l107 6 0 41 c-1 31 -185 500 -724 1841 l-723 1800 -536 3 c-295 1 -537 1 -537
-1 0 -2 -290 -726 -644 -1610 l-644 -1606 -23 33 c-13 18 -305 338 -649 711
-344 372 -625 683 -625 690 0 7 340 407 755 891 415 483 757 882 758 886 2 4
-263 8 -590 8 l-593 0 -615 -796 c-338 -437 -620 -807 -627 -822 -10 -21 -12
145 -13 796 l0 822 -505 0 -505 0 0 -1844z m5255 437 c104 -329 205 -650 225
-713 l36 -115 -453 0 c-249 0 -453 2 -453 5 -1 13 445 1420 450 1420 3 0 91
-269 195 -597z"/>
</g>
</svg>
