<?xml version="1.0" encoding="UTF-8"?>
<!DOCTYPE svg PUBLIC "-//W3C//DTD SVG 1.1//EN" "http://www.w3.org/Graphics/SVG/1.1/DTD/svg11.dtd">
<svg xmlns="http://www.w3.org/2000/svg" version="1.1" width="1420px" height="320px" style="shape-rendering:geometricPrecision; text-rendering:geometricPrecision; image-rendering:optimizeQuality; fill-rule:evenodd; clip-rule:evenodd" xmlns:xlink="http://www.w3.org/1999/xlink">
<g><path style="opacity:1" fill="#fefefe" d="M 326.5,-0.5 C 690.833,-0.5 1055.17,-0.5 1419.5,-0.5C 1419.5,106.167 1419.5,212.833 1419.5,319.5C 1026.5,319.5 633.5,319.5 240.5,319.5C 240.5,252.167 240.5,184.833 240.5,117.5C 235.167,117.5 229.833,117.5 224.5,117.5C 223.501,184.665 223.168,251.998 223.5,319.5C 148.833,319.5 74.1667,319.5 -0.5,319.5C -0.5,222.5 -0.5,125.5 -0.5,28.5C 108.5,28.5 217.5,28.5 326.5,28.5C 326.5,18.8333 326.5,9.16667 326.5,-0.5 Z"/></g>
<g><path style="opacity:1" fill="#7e7e7e" d="M -0.5,-0.5 C 108.5,-0.5 217.5,-0.5 326.5,-0.5C 326.5,9.16667 326.5,18.8333 326.5,28.5C 217.5,28.5 108.5,28.5 -0.5,28.5C -0.5,18.8333 -0.5,9.16667 -0.5,-0.5 Z"/></g>
<g><path style="opacity:1" fill="#9e9e9e" d="M 10.5,38.5 C 111.665,37.5006 212.999,37.1672 314.5,37.5C 314.815,41.3714 314.482,45.0381 313.5,48.5C 313.5,45.1667 313.5,41.8333 313.5,38.5C 212.5,38.5 111.5,38.5 10.5,38.5 Z"/></g>
<g><path style="opacity:1" fill="#7d7d7d" d="M 10.5,38.5 C 111.5,38.5 212.5,38.5 313.5,38.5C 313.5,41.8333 313.5,45.1667 313.5,48.5C 212.5,48.5 111.5,48.5 10.5,48.5C 10.5,45.1667 10.5,41.8333 10.5,38.5 Z"/></g>
<g><path style="opacity:1" fill="#9d9d9d" d="M 279.5,64.5 C 201.5,63.1667 123.5,63.1667 45.5,64.5C 44.2438,64.5386 43.2438,64.0386 42.5,63C 122.167,62.3333 201.833,62.3333 281.5,63C 280.956,63.7172 280.289,64.2172 279.5,64.5 Z"/></g>
<g><path style="opacity:1" fill="#7d7d7d" d="M 279.5,64.5 C 270.412,71.705 267.245,81.0383 270,92.5C 270.661,96.6483 271.827,100.648 273.5,104.5C 199.5,105.833 125.5,105.833 51.5,104.5C 59.9539,89.3847 57.9539,76.0513 45.5,64.5C 123.5,63.1667 201.5,63.1667 279.5,64.5 Z"/></g>
<g><path style="opacity:1" fill="#575757" d="M 1000.5,104.5 C 1011.83,103.998 1016.67,109.331 1015,120.5C 1012.14,126.689 1007.3,128.856 1000.5,127C 993.868,123.903 991.701,118.736 994,111.5C 995.694,108.642 997.861,106.309 1000.5,104.5 Z"/></g>
<g><path style="opacity:1" fill="#8a8a8a" d="M 1213.5,106.5 C 1203.83,106.5 1194.17,106.5 1184.5,106.5C 1184.5,111.167 1184.5,115.833 1184.5,120.5C 1183.51,115.695 1183.18,110.695 1183.5,105.5C 1193.68,105.173 1203.68,105.506 1213.5,106.5 Z"/></g>
<g><path style="opacity:1" fill="#585858" d="M 1241.5,104.5 C 1253.67,104.185 1258.17,109.852 1255,121.5C 1251.72,127.109 1246.89,128.942 1240.5,127C 1233.96,123.085 1232.13,117.585 1235,110.5C 1236.87,108.153 1239.04,106.153 1241.5,104.5 Z"/></g>
<g><path style="opacity:1" fill="#575757" d="M 375.5,105.5 C 387.911,104.417 398.911,107.75 408.5,115.5C 411.172,113.327 413.506,110.827 415.5,108C 419.152,107.501 422.818,107.335 426.5,107.5C 426.5,122.167 426.5,136.833 426.5,151.5C 420.463,151.829 414.463,151.496 408.5,150.5C 406.423,142.51 402.423,135.676 396.5,130C 378.254,122.704 366.087,128.537 360,147.5C 355.356,165.011 359.522,179.844 372.5,192C 386.222,200.311 396.722,197.478 404,183.5C 405.799,179.268 407.299,174.935 408.5,170.5C 414.463,169.504 420.463,169.171 426.5,169.5C 426.666,179.172 426.5,188.839 426,198.5C 409.094,213.686 389.594,218.186 367.5,212C 342.166,199.842 330.999,179.675 334,151.5C 338.991,128.017 352.824,112.684 375.5,105.5 Z"/></g>
<g><path style="opacity:1" fill="#555555" d="M 1213.5,106.5 C 1213.33,136.502 1213.5,166.502 1214,196.5C 1215.79,198.229 1217.96,198.896 1220.5,198.5C 1222.34,200.279 1223.01,202.612 1222.5,205.5C 1222.05,209.436 1219.71,211.603 1215.5,212C 1210.08,212.839 1204.75,212.506 1199.5,211C 1197.67,209.833 1196.17,208.333 1195,206.5C 1193.52,177.897 1193.02,149.23 1193.5,120.5C 1190.5,120.5 1187.5,120.5 1184.5,120.5C 1184.5,115.833 1184.5,111.167 1184.5,106.5C 1194.17,106.5 1203.83,106.5 1213.5,106.5 Z"/></g>
<g><path style="opacity:1" fill="#575757" d="M 977.5,150.5 C 971.5,150.5 965.5,150.5 959.5,150.5C 959.171,164.344 959.504,178.01 960.5,191.5C 961.76,197.575 965.427,199.741 971.5,198C 974.521,197.151 977.521,196.317 980.5,195.5C 980.666,199.846 980.499,204.179 980,208.5C 968.896,214.802 957.73,214.969 946.5,209C 942.8,205.229 940.633,200.729 940,195.5C 939.5,180.837 939.333,166.17 939.5,151.5C 935.5,151.5 931.5,151.5 927.5,151.5C 927.5,146.5 927.5,141.5 927.5,136.5C 931.5,136.5 935.5,136.5 939.5,136.5C 939.5,130.167 939.5,123.833 939.5,117.5C 946.238,116.149 952.904,114.482 959.5,112.5C 960.498,120.472 960.831,128.472 960.5,136.5C 966.167,136.5 971.833,136.5 977.5,136.5C 977.5,141.167 977.5,145.833 977.5,150.5 Z"/></g>
<g><path style="opacity:1" fill="#565656" d="M 681.5,113.5 C 683.153,120.946 684.153,128.612 684.5,136.5C 689.833,136.5 695.167,136.5 700.5,136.5C 700.5,141.167 700.5,145.833 700.5,150.5C 694.833,150.5 689.167,150.5 683.5,150.5C 683.171,164.344 683.504,178.01 684.5,191.5C 685.796,197.623 689.463,199.79 695.5,198C 698.512,197.22 701.345,196.053 704,194.5C 704.802,199.419 704.635,204.252 703.5,209C 693.763,213.935 683.763,214.601 673.5,211C 667.703,207.909 664.536,203.076 664,196.5C 663.5,181.504 663.333,166.504 663.5,151.5C 659.5,151.5 655.5,151.5 651.5,151.5C 651.5,146.5 651.5,141.5 651.5,136.5C 655.5,136.5 659.5,136.5 663.5,136.5C 663.5,130.167 663.5,123.833 663.5,117.5C 669.548,116.373 675.548,115.039 681.5,113.5 Z"/></g>
<g><path style="opacity:1" fill="#ababab" d="M 681.5,113.5 C 682.209,112.596 683.209,112.263 684.5,112.5C 684.5,120.5 684.5,128.5 684.5,136.5C 684.153,128.612 683.153,120.946 681.5,113.5 Z"/></g>
<g><path style="opacity:1" fill="#7e7e7e" d="M 119.5,117.5 C 131.833,117.5 144.167,117.5 156.5,117.5C 156.5,179.5 156.5,241.5 156.5,303.5C 144.508,300.834 132.508,298.168 120.5,295.5C 119.5,236.17 119.167,176.837 119.5,117.5 Z"/></g>
<g><path style="opacity:1" fill="#7d7d7d" d="M 224.5,117.5 C 229.833,117.5 235.167,117.5 240.5,117.5C 240.5,184.833 240.5,252.167 240.5,319.5C 235.833,319.5 231.167,319.5 226.5,319.5C 224.509,252.381 223.842,185.048 224.5,117.5 Z"/></g>
<g><path style="opacity:1" fill="#7d7d7d" d="M 264.5,117.5 C 267.833,117.5 271.167,117.5 274.5,117.5C 274.5,182.833 274.5,248.167 274.5,313.5C 271.733,313.858 269.067,314.525 266.5,315.5C 264.503,249.842 263.837,183.842 264.5,117.5 Z"/></g>
<g><path style="opacity:1" fill="#9d9d9d" d="M 224.5,117.5 C 223.842,185.048 224.509,252.381 226.5,319.5C 225.5,319.5 224.5,319.5 223.5,319.5C 223.168,251.998 223.501,184.665 224.5,117.5 Z"/></g>
<g><path style="opacity:1" fill="#dedede" d="M 264.5,117.5 C 263.837,183.842 264.503,249.842 266.5,315.5C 265.791,316.404 264.791,316.737 263.5,316.5C 263.168,249.998 263.501,183.665 264.5,117.5 Z"/></g>
<g><path style="opacity:1" fill="#7d7d7d" d="M 49.5,117.5 C 66.8333,117.5 84.1667,117.5 101.5,117.5C 101.5,175.833 101.5,234.167 101.5,292.5C 84.2327,290.359 66.8994,289.026 49.5,288.5C 49.5,231.5 49.5,174.5 49.5,117.5 Z"/></g>
<g><path style="opacity:1" fill="#7e7e7e" d="M 199.5,117.5 C 199.5,183.167 199.5,248.833 199.5,314.5C 198.5,314.5 197.5,314.5 196.5,314.5C 190.017,313.451 183.683,311.784 177.5,309.5C 176.5,245.503 176.167,181.503 176.5,117.5C 184.167,117.5 191.833,117.5 199.5,117.5 Z"/></g>
<g><path style="opacity:1" fill="#9d9d9d" d="M 199.5,117.5 C 200.499,183.331 200.832,249.331 200.5,315.5C 198.901,315.768 197.568,315.434 196.5,314.5C 197.5,314.5 198.5,314.5 199.5,314.5C 199.5,248.833 199.5,183.167 199.5,117.5 Z"/></g>
<g><path style="opacity:1" fill="#575757" d="M 459.5,135.5 C 494.093,132.927 509.593,148.927 506,183.5C 501.762,203.399 489.429,213.399 469,213.5C 451.644,213.172 440.31,204.839 435,188.5C 432.51,176.629 433.177,164.962 437,153.5C 442.048,144.271 449.548,138.271 459.5,135.5 Z"/></g>
<g><path style="opacity:1" fill="#565656" d="M 583.5,211.5 C 576.833,211.5 570.167,211.5 563.5,211.5C 563.83,194.658 563.497,177.992 562.5,161.5C 561.764,154.436 557.764,150.769 550.5,150.5C 541.523,151.477 537.19,156.477 537.5,165.5C 536.504,180.658 536.17,195.991 536.5,211.5C 529.833,211.5 523.167,211.5 516.5,211.5C 516.5,191.5 516.5,171.5 516.5,151.5C 513.5,151.5 510.5,151.5 507.5,151.5C 507.5,146.5 507.5,141.5 507.5,136.5C 514.833,136.5 522.167,136.5 529.5,136.5C 529.784,139.852 530.95,142.852 533,145.5C 542.949,135.49 554.782,132.657 568.5,137C 575.758,139.924 580.592,145.091 583,152.5C 583.5,172.164 583.667,191.831 583.5,211.5 Z"/></g>
<g><path style="opacity:1" fill="#575757" d="M 612.5,135.5 C 623.028,134.825 633.362,135.825 643.5,138.5C 644.493,143.12 644.827,147.786 644.5,152.5C 635.67,149.964 626.67,149.131 617.5,150C 611.012,152.792 610.012,156.792 614.5,162C 622.118,164.821 629.784,167.487 637.5,170C 651.59,178.868 654.09,190.368 645,204.5C 634.509,212.535 622.676,215.368 609.5,213C 603.988,212.122 598.655,210.622 593.5,208.5C 592.357,203.104 592.691,197.771 594.5,192.5C 605.677,198.843 617.344,200.01 629.5,196C 632.22,192.125 631.554,188.791 627.5,186C 618.125,183.653 609.125,180.32 600.5,176C 592.045,167.905 590.212,158.405 595,147.5C 596.141,145.391 597.641,143.558 599.5,142C 603.647,139.26 607.98,137.093 612.5,135.5 Z"/></g>
<g><path style="opacity:1" fill="#575757" d="M 875.5,135.5 C 883.228,135.189 890.895,135.689 898.5,137C 901.759,138.211 904.592,140.044 907,142.5C 908.833,140.667 910.667,138.833 912.5,137C 915.482,136.502 918.482,136.335 921.5,136.5C 921.5,147.167 921.5,157.833 921.5,168.5C 916.5,168.5 911.5,168.5 906.5,168.5C 903.081,152.624 893.748,147.458 878.5,153C 868.125,160.798 864.958,170.965 869,183.5C 873.325,194.838 881.491,200.004 893.5,199C 901.1,195.57 905.433,189.737 906.5,181.5C 911.5,181.5 916.5,181.5 921.5,181.5C 921.666,187.509 921.499,193.509 921,199.5C 902.21,215.977 882.043,217.811 860.5,205C 847.933,193.932 843.433,180.098 847,163.5C 851.76,149.239 861.26,139.905 875.5,135.5 Z"/></g>
<g><path style="opacity:1" fill="#565656" d="M 1180.5,211.5 C 1173.83,211.5 1167.17,211.5 1160.5,211.5C 1160.83,193.992 1160.5,176.659 1159.5,159.5C 1158.03,153.538 1154.19,150.871 1148,151.5C 1142.34,150.995 1138.34,153.329 1136,158.5C 1134.54,176.098 1134.04,193.764 1134.5,211.5C 1127.83,211.5 1121.17,211.5 1114.5,211.5C 1114.83,191.326 1114.5,171.326 1113.5,151.5C 1111.05,150.527 1108.39,150.194 1105.5,150.5C 1105.5,145.833 1105.5,141.167 1105.5,136.5C 1112.53,136.17 1119.53,136.503 1126.5,137.5C 1127.39,140.284 1128.56,142.95 1130,145.5C 1138.63,136.564 1149.13,133.397 1161.5,136C 1170.55,137.769 1176.72,142.935 1180,151.5C 1180.5,171.497 1180.67,191.497 1180.5,211.5 Z"/></g>
<g><path style="opacity:1" fill="#565656" d="M 1342.5,157.5 C 1342.5,175.5 1342.5,193.5 1342.5,211.5C 1335.83,211.5 1329.17,211.5 1322.5,211.5C 1322.67,194.83 1322.5,178.163 1322,161.5C 1319.25,151.873 1313.08,148.707 1303.5,152C 1300.54,154.287 1298.37,157.12 1297,160.5C 1296.5,177.497 1296.33,194.497 1296.5,211.5C 1289.5,211.5 1282.5,211.5 1275.5,211.5C 1275.5,191.5 1275.5,171.5 1275.5,151.5C 1272.5,151.5 1269.5,151.5 1266.5,151.5C 1266.5,146.5 1266.5,141.5 1266.5,136.5C 1273.83,136.5 1281.17,136.5 1288.5,136.5C 1289.11,139.721 1290.28,142.721 1292,145.5C 1302,135.694 1313.84,132.861 1327.5,137C 1336.96,140.622 1341.96,147.455 1342.5,157.5 Z"/></g>
<g><path style="opacity:1" fill="#575757" d="M 1413.5,192.5 C 1414.46,194.265 1414.79,196.265 1414.5,198.5C 1414.81,201.247 1414.48,203.914 1413.5,206.5C 1395.39,216.218 1377.73,215.718 1360.5,205C 1355.05,199.601 1351.55,193.101 1350,185.5C 1347.81,172.42 1349.81,160.087 1356,148.5C 1368.07,135.482 1382.57,131.982 1399.5,138C 1415.54,146.59 1421.38,159.757 1417,177.5C 1416.17,178.333 1415.33,179.167 1414.5,180C 1399.84,180.5 1385.17,180.667 1370.5,180.5C 1370.85,189.341 1375.18,195.174 1383.5,198C 1394.22,199.876 1404.22,198.043 1413.5,192.5 Z"/></g>
<g><path style="opacity:1" fill="#565656" d="M 738.5,168.5 C 737.504,182.657 737.171,196.99 737.5,211.5C 730.833,211.5 724.167,211.5 717.5,211.5C 717.5,191.5 717.5,171.5 717.5,151.5C 714.5,151.5 711.5,151.5 708.5,151.5C 708.5,146.5 708.5,141.5 708.5,136.5C 715.863,136.169 723.197,136.503 730.5,137.5C 731.667,140.5 732.833,143.5 734,146.5C 739.69,137.54 747.857,133.873 758.5,135.5C 758.5,140.833 758.5,146.167 758.5,151.5C 745.012,149.329 738.346,154.995 738.5,168.5 Z"/></g>
<g><path style="opacity:1" fill="#575757" d="M 767.5,136.5 C 774.167,136.5 780.833,136.5 787.5,136.5C 787.333,153.503 787.5,170.503 788,187.5C 788.927,194.265 792.76,197.598 799.5,197.5C 802.656,197.257 805.656,196.424 808.5,195C 810.652,192.531 812.152,189.698 813,186.5C 813.5,169.837 813.667,153.17 813.5,136.5C 820.5,136.5 827.5,136.5 834.5,136.5C 834.333,156.503 834.5,176.503 835,196.5C 837.152,198.816 839.652,199.15 842.5,197.5C 843.491,201.445 843.824,205.445 843.5,209.5C 836.022,212.706 828.355,213.206 820.5,211C 818.622,209.457 817.122,207.624 816,205.5C 803.08,215.189 789.58,216.022 775.5,208C 771.27,204.443 768.77,199.943 768,194.5C 767.5,175.17 767.333,155.836 767.5,136.5 Z"/></g>
<g><path style="opacity:1" fill="#565656" d="M 985.5,136.5 C 995.5,136.5 1005.5,136.5 1015.5,136.5C 1015.33,156.836 1015.5,177.169 1016,197.5C 1018.47,198.788 1020.97,198.788 1023.5,197.5C 1024.83,201.5 1024.83,205.5 1023.5,209.5C 1017.13,212.362 1010.46,213.195 1003.5,212C 997.998,210.162 995.165,206.329 995,200.5C 994.5,184.17 994.333,167.837 994.5,151.5C 991.5,151.5 988.5,151.5 985.5,151.5C 985.5,146.5 985.5,141.5 985.5,136.5 Z"/></g>
<g><path style="opacity:1" fill="#565656" d="M 1226.5,136.5 C 1236.17,136.5 1245.83,136.5 1255.5,136.5C 1255.33,156.503 1255.5,176.503 1256,196.5C 1256.84,197.624 1258.01,198.291 1259.5,198.5C 1261.51,198.16 1263.51,197.827 1265.5,197.5C 1266.06,201.997 1265.39,206.164 1263.5,210C 1257,212.295 1250.34,212.961 1243.5,212C 1239.51,210.01 1237.01,206.843 1236,202.5C 1235.5,185.503 1235.33,168.503 1235.5,151.5C 1232.5,151.5 1229.5,151.5 1226.5,151.5C 1226.5,146.5 1226.5,141.5 1226.5,136.5 Z"/></g>
<g><path style="opacity:1" fill="#575757" d="M 1057.5,135.5 C 1071.52,133.597 1084.02,136.931 1095,145.5C 1103.58,158.706 1105.91,173.039 1102,188.5C 1099.35,198.31 1093.52,205.477 1084.5,210C 1046.16,219.068 1028.32,203.901 1031,164.5C 1033.84,149.171 1042.67,139.504 1057.5,135.5 Z"/></g>
<g><path style="opacity:1" fill="#fbfbfb" d="M 1398.5,168.5 C 1389.17,168.5 1379.83,168.5 1370.5,168.5C 1370.5,167.5 1370.5,166.5 1370.5,165.5C 1371.75,152.216 1378.75,147.383 1391.5,151C 1397.06,155.503 1399.39,161.337 1398.5,168.5 Z"/></g>
<g><path style="opacity:1" fill="#fafafa" d="M 465.5,149.5 C 477.232,148.395 483.732,153.728 485,165.5C 486.608,175.305 485.274,184.638 481,193.5C 479.457,195.378 477.624,196.878 475.5,198C 463.603,201.093 456.769,196.593 455,184.5C 454.13,176.103 454.463,167.77 456,159.5C 458.048,154.955 461.215,151.622 465.5,149.5 Z"/></g>
<g><path style="opacity:1" fill="#8e8e8e" d="M 700.5,136.5 C 701.487,141.305 701.821,146.305 701.5,151.5C 695.833,151.5 690.167,151.5 684.5,151.5C 684.5,164.833 684.5,178.167 684.5,191.5C 683.504,178.01 683.171,164.344 683.5,150.5C 689.167,150.5 694.833,150.5 700.5,150.5C 700.5,145.833 700.5,141.167 700.5,136.5 Z"/></g>
<g><path style="opacity:1" fill="#fbfbfb" d="M 1062.5,149.5 C 1073.34,148.176 1079.84,152.842 1082,163.5C 1082.67,170.5 1082.67,177.5 1082,184.5C 1079.26,197.123 1071.76,201.29 1059.5,197C 1053.36,190.253 1050.7,182.253 1051.5,173C 1051.35,166.428 1052.85,160.261 1056,154.5C 1057.97,152.45 1060.13,150.783 1062.5,149.5 Z"/></g>
<g><path style="opacity:1" fill="#828282" d="M 1105.5,136.5 C 1105.5,141.167 1105.5,145.833 1105.5,150.5C 1108.39,150.194 1111.05,150.527 1113.5,151.5C 1110.5,151.5 1107.5,151.5 1104.5,151.5C 1104.18,146.305 1104.51,141.305 1105.5,136.5 Z"/></g>
<g><path style="opacity:1" fill="#7f7f7f" d="M 977.5,150.5 C 972.025,151.489 966.358,151.822 960.5,151.5C 960.5,164.833 960.5,178.167 960.5,191.5C 959.504,178.01 959.171,164.344 959.5,150.5C 965.5,150.5 971.5,150.5 977.5,150.5 Z"/></g>
<g><path style="opacity:1" fill="#868686" d="M 1113.5,151.5 C 1114.5,171.326 1114.83,191.326 1114.5,211.5C 1121.17,211.5 1127.83,211.5 1134.5,211.5C 1127.69,212.491 1120.69,212.825 1113.5,212.5C 1113.5,192.167 1113.5,171.833 1113.5,151.5 Z"/></g>
<g><path style="opacity:1" fill="#cccccc" d="M 1342.5,157.5 C 1343.5,175.659 1343.83,193.992 1343.5,212.5C 1336.31,212.825 1329.31,212.491 1322.5,211.5C 1329.17,211.5 1335.83,211.5 1342.5,211.5C 1342.5,193.5 1342.5,175.5 1342.5,157.5 Z"/></g>
<g><path style="opacity:1" fill="#898989" d="M 562.5,161.5 C 563.497,177.992 563.83,194.658 563.5,211.5C 570.167,211.5 576.833,211.5 583.5,211.5C 576.687,212.491 569.687,212.825 562.5,212.5C 562.5,195.5 562.5,178.5 562.5,161.5 Z"/></g>
<g><path style="opacity:1" fill="#898989" d="M 537.5,165.5 C 537.5,181.167 537.5,196.833 537.5,212.5C 530.313,212.825 523.313,212.491 516.5,211.5C 523.167,211.5 529.833,211.5 536.5,211.5C 536.17,195.991 536.504,180.658 537.5,165.5 Z"/></g>
<g><path style="opacity:1" fill="#cacaca" d="M 1159.5,159.5 C 1160.5,176.659 1160.83,193.992 1160.5,211.5C 1167.17,211.5 1173.83,211.5 1180.5,211.5C 1173.69,212.491 1166.69,212.825 1159.5,212.5C 1159.5,194.833 1159.5,177.167 1159.5,159.5 Z"/></g>
<g><path style="opacity:1" fill="#a8a8a8" d="M 1370.5,165.5 C 1370.5,166.5 1370.5,167.5 1370.5,168.5C 1379.83,168.5 1389.17,168.5 1398.5,168.5C 1389.01,169.494 1379.35,169.827 1369.5,169.5C 1369.23,167.901 1369.57,166.568 1370.5,165.5 Z"/></g>
<g><path style="opacity:1" fill="#8a8a8a" d="M 738.5,168.5 C 738.5,183.167 738.5,197.833 738.5,212.5C 731.313,212.825 724.313,212.491 717.5,211.5C 724.167,211.5 730.833,211.5 737.5,211.5C 737.171,196.99 737.504,182.657 738.5,168.5 Z"/></g>
<g><path style="opacity:1" fill="#9d9d9d" d="M 1413.5,192.5 C 1413.56,191.957 1413.89,191.624 1414.5,191.5C 1415.8,193.973 1415.8,196.307 1414.5,198.5C 1414.79,196.265 1414.46,194.265 1413.5,192.5 Z"/></g>
<g><path style="opacity:1" fill="#9a9a9a" d="M 1220.5,198.5 C 1221.21,197.596 1222.21,197.263 1223.5,197.5C 1223.81,200.385 1223.47,203.052 1222.5,205.5C 1223.01,202.612 1222.34,200.279 1220.5,198.5 Z"/></g>
</svg>
